<?xml version="1.0" encoding="utf-8"?>
<!-- Generator: Adobe Illustrator 16.0.4, SVG Export Plug-In . SVG Version: 6.00 Build 0)  -->
<!DOCTYPE svg PUBLIC "-//W3C//DTD SVG 1.1//EN" "http://www.w3.org/Graphics/SVG/1.1/DTD/svg11.dtd">
<svg version="1.1" id="Layer_1" xmlns="http://www.w3.org/2000/svg" xmlns:xlink="http://www.w3.org/1999/xlink" x="0px" y="0px"
	 width="13.997px" height="10.997px" viewBox="0 0 13.997 10.997" enable-background="new 0 0 13.997 10.997" xml:space="preserve">
<path fill="#46B5E7" d="M13.744,1.518l-1.228-1.259C12.347,0.086,12.143,0,11.902,0s-0.445,0.086-0.614,0.259L5.364,6.341
	L2.709,3.61C2.541,3.437,2.336,3.351,2.095,3.351c-0.241,0-0.445,0.086-0.614,0.259L0.253,4.869C0.084,5.042,0,5.252,0,5.499
	s0.084,0.457,0.253,0.629l3.269,3.351l1.228,1.259c0.168,0.173,0.373,0.259,0.614,0.259c0.241,0,0.446-0.087,0.614-0.259
	l1.228-1.259l6.538-6.702c0.168-0.173,0.253-0.383,0.253-0.63C13.997,1.901,13.913,1.691,13.744,1.518z"/>
</svg>
