<?xml version="1.0" encoding="utf-8"?>
<!-- Generator: Adobe Illustrator 16.0.4, SVG Export Plug-In . SVG Version: 6.00 Build 0)  -->
<!DOCTYPE svg PUBLIC "-//W3C//DTD SVG 1.1//EN" "http://www.w3.org/Graphics/SVG/1.1/DTD/svg11.dtd">
<svg version="1.1" id="Layer_1" xmlns="http://www.w3.org/2000/svg" xmlns:xlink="http://www.w3.org/1999/xlink" x="0px" y="0px"
	 width="13px" height="10px" viewBox="0 0 13 10" enable-background="new 0 0 13 10" xml:space="preserve">
<path fill="#46B5E7" d="M12.712,2.036c-0.185-0.399-0.453-0.758-0.784-1.06c-0.331-0.301-0.724-0.545-1.162-0.714
	C10.329,0.093,9.849,0,9.344,0S8.358,0.116,7.921,0.32C7.483,0.523,7.089,0.814,6.759,1.161C6.663,1.262,6.585,1.377,6.5,1.487
	c-0.085-0.11-0.163-0.225-0.259-0.325C5.91,0.814,5.517,0.523,5.079,0.32C4.642,0.116,4.161,0,3.656,0S2.67,0.093,2.233,0.262
	C1.795,0.431,1.402,0.675,1.071,0.976C0.74,1.278,0.473,1.637,0.287,2.036C0.103,2.435,0,2.873,0,3.333
	c0,0.46,0.103,0.899,0.287,1.297C0.473,5.03,0.74,5.389,1.071,5.69C1.402,5.992,6.062,9.831,6.5,10
	c0.438-0.169,5.099-4.008,5.429-4.31c0.331-0.302,0.599-0.661,0.784-1.06C12.897,4.232,13,3.793,13,3.333
	C13,2.873,12.898,2.435,12.712,2.036z"/>
</svg>
