<?xml version="1.0" encoding="utf-8"?>
<!-- Generator: Adobe Illustrator 16.0.4, SVG Export Plug-In . SVG Version: 6.00 Build 0)  -->
<!DOCTYPE svg PUBLIC "-//W3C//DTD SVG 1.1//EN" "http://www.w3.org/Graphics/SVG/1.1/DTD/svg11.dtd">
<svg version="1.1" id="Layer_1" xmlns="http://www.w3.org/2000/svg" xmlns:xlink="http://www.w3.org/1999/xlink" x="0px" y="0px"
	 width="22px" height="13px" viewBox="0 0 22 13" enable-background="new 0 0 22 13" xml:space="preserve">
<path fill="#46B5E7" d="M17.1,5.848c-1.155,0-2.089,0.959-2.089,2.134c0,0.281,0.226,0.512,0.501,0.512s0.501-0.23,0.501-0.512
	c0-0.613,0.492-1.115,1.092-1.115c0.275,0,0.5-0.23,0.5-0.511C17.601,6.074,17.375,5.848,17.1,5.848z"/>
<path fill="#46B5E7" d="M20.506,4.378c-0.122-0.12-0.252-0.235-0.388-0.346l0,0l-1.85-1.604c-0.713-0.517-1.561-0.844-2.481-0.908
	l0.099,0.102L14.763,0.47h-0.009C14.442,0.18,14.023,0,13.567,0c-0.785,0-1.448,0.521-1.674,1.244
	c-0.226-0.147-0.487-0.235-0.771-0.253c-0.045-0.005-0.095-0.005-0.14-0.005c-0.32,0-0.618,0.097-0.871,0.258
	c-0.23-0.719-0.893-1.239-1.674-1.239c-0.456,0-0.871,0.175-1.187,0.47H7.242L6.118,1.626l0.099-0.101
	C5.297,1.59,4.444,1.921,3.736,2.433l-1.85,1.604l0,0C1.75,4.143,1.62,4.258,1.498,4.382C0.573,5.295,0,6.571,0,7.986
	C0,10.751,2.202,13,4.909,13c2.5,0,4.571-1.922,4.869-4.396c0.361,0.212,0.78,0.332,1.223,0.332c0.446,0,0.862-0.12,1.223-0.332
	c0.302,2.47,2.369,4.392,4.868,4.392c2.707,0,4.909-2.249,4.909-5.014C22.004,6.567,21.431,5.29,20.506,4.378z M4.909,11.405
	c-1.85,0-3.348-1.53-3.348-3.419c0-1.889,1.498-3.419,3.348-3.419c1.85,0,3.348,1.53,3.348,3.419
	C8.261,9.871,6.759,11.405,4.909,11.405z M11.004,7.516c-0.6,0-1.087-0.498-1.087-1.111s0.487-1.11,1.087-1.11
	s1.087,0.498,1.087,1.11S11.604,7.516,11.004,7.516z M17.1,11.405c-1.85,0-3.348-1.53-3.348-3.419c0-1.889,1.498-3.419,3.348-3.419
	c1.85,0,3.348,1.53,3.348,3.419C20.448,9.871,18.95,11.405,17.1,11.405z"/>
<path fill="#46B5E7" d="M4.909,5.848c-1.155,0-2.089,0.959-2.089,2.134c0,0.281,0.226,0.512,0.501,0.512c0.275,0,0.5-0.23,0.5-0.512
	c0-0.613,0.492-1.115,1.092-1.115c0.275,0,0.5-0.23,0.5-0.511C5.41,6.074,5.184,5.848,4.909,5.848z"/>
</svg>
