<?xml version="1.0" encoding="utf-8"?>
<!-- Generator: Adobe Illustrator 16.0.4, SVG Export Plug-In . SVG Version: 6.00 Build 0)  -->
<!DOCTYPE svg PUBLIC "-//W3C//DTD SVG 1.1//EN" "http://www.w3.org/Graphics/SVG/1.1/DTD/svg11.dtd">
<svg version="1.1" id="Isolation_Mode" xmlns="http://www.w3.org/2000/svg" xmlns:xlink="http://www.w3.org/1999/xlink" x="0px"
	 y="0px" width="544.273px" height="526.016px" viewBox="0 0 544.273 526.016" enable-background="new 0 0 544.273 526.016"
	 xml:space="preserve">
<g>
	<g>
		<path fill="#71A770" d="M293.472,89.614c-1.688,4.255-10.088,2.167-13.226,1.5c-10.384-2.205-19.741-8.178-29.771-11.677
			c-19.639-6.845-40.909-3.884-60.937,1.32c-5.762,1.5-11.536,3.179-17.447,3.461c-1.895,0.09-6.345,0.244-7.68-1.692
			c-1.826-2.64,0.959-5.012,2.682-7.409c11-15.24,22.457-30.327,32.854-46.234c0.695-1.077,1.392-2.141,2.076-3.217
			c1.312-2.051,2.602-4.115,3.869-6.204c1.197-1.948,2.464-4.012,4.404-4.935c2.807-1.346,6.082,0.115,9.049-0.654
			c6.401-1.628,8.433-12.28,14.869-13.715c5.66-1.269,10.35,5.499,16.101,6.243c1.415,0.179,2.842-0.013,4.269,0.153
			c6.379,0.744,7.303,6.524,9.174,11.972c1.256,3.653,2.545,7.293,3.823,10.946c1.106,3.115,2.202,6.23,3.274,9.357
			c4.52,13.203,9.392,26.495,17.151,37.762C289.923,79.373,295.092,85.577,293.472,89.614z"/>
		<path fill="#D7DB91" d="M267.58,29.472c-0.092-0.038-0.172-0.064-0.263-0.103c-1.574-0.615-2.922-1.781-4.199-2.986
			c-0.548-0.525-1.118-1.089-1.826-1.256c-0.707-0.179-1.586,0.18-1.769,0.961c-0.091,0.372-0.022,0.77,0.046,1.141
			c0.263,1.589,0.309,3.23,0.137,4.832c-0.08,0.667-0.342,1.487-0.936,1.525c-0.229,0.013-0.434-0.103-0.628-0.218
			c-2.944-1.718-5.729-9.344-9.175-8.857c-0.741,0.103-1.426,0.551-1.974,1.115c-2.134,2.153-2.545,5.653-3.503,8.678
			c-0.971,3.025-3.4,6.152-6.174,5.357c-1.963-0.551-3.104-2.884-3.446-5.114c-0.331-2.23-0.091-4.538-0.411-6.768
			c-0.33-2.269-1.266-4.422-2.646-6.127c-0.537-0.654-1.198-1.269-1.975-1.358c-1.449-0.167-2.521,1.384-3.298,2.769
			c-1.187,2.115-2.374,4.243-3.561,6.358c-1.096,1.974-2.259,4.012-4.028,5.255c-1.757,1.23-4.302,1.397-5.751-0.27
			c-1.026-1.192-1.278-2.948-1.712-4.538s-1.323-3.281-2.784-3.499c-3.126-0.474-4.781,5.909-7.805,4.948
			c0-0.769,0.011-1.589,0.046-2.436c0.695-1.077,1.392-2.141,2.076-3.217c1.312-2.051,2.602-4.115,3.869-6.204
			c1.197-1.948,2.464-4.012,4.404-4.935c2.807-1.346,6.082,0.115,9.049-0.654c6.401-1.628,8.433-12.28,14.869-13.715
			c5.66-1.269,10.35,5.499,16.101,6.243c1.415,0.179,2.842-0.013,4.269,0.153c6.379,0.744,7.303,6.524,9.174,11.972
			C265.013,22.179,266.302,25.819,267.58,29.472z"/>
	</g>
	<path fill="#578A38" d="M177.043,45.998c2.819-1.923,7.019-1.45,9.339,1.054c-0.599-2.207-1.018-4.999,0.794-6.394
		c1.225-0.943,3.038-0.751,4.364,0.044s2.275,2.077,3.188,3.325c-1.199-3.036,2.694-6.102,5.88-5.392
		c3.186,0.71,5.348,3.622,6.987,6.444c-0.159-2.792,2.416-5.323,5.209-5.452c2.793-0.13,5.446,1.869,6.45,4.479
		c-0.558-2.038,2.083-3.833,4.09-3.175c2.009,0.658,3.162,2.793,3.603,4.86c0.788-1.55,2.608-2.504,4.332-2.271
		c1.723,0.233,3.224,1.638,3.57,3.342c1.867-1.84,5.502-1.197,6.624,1.172c2.647-2.141,7.373-0.146,7.686,3.244
		c0.74-1.548,2.512-2.7,4.173-2.268s2.587,2.817,1.363,4.02c2.492-1.936,6.849,0.443,6.567,3.586
		c2.274-2.786,7.546-1.889,8.771,1.493c-1.512-2.397,1.621-5.524,4.428-5.134s4.855,2.765,6.627,4.976
		c-0.652-2.084,1.755-4.275,3.875-3.753s3.32,3.089,2.746,5.196c2.352-0.908,5.287,0.108,6.574,2.275
		c1.287,2.167,0.775,5.231-1.146,6.862c2.983,1.021,4.903,4.471,4.199,7.545c-0.705,3.073-3.937,5.342-7.066,4.961
		c-1.062-0.129-2.106-0.522-3.171-0.42c-1.817,0.174-3.178,1.709-4.849,2.444c-2.721,1.197-5.905,0.141-8.473-1.354
		c-2.568-1.495-4.944-3.45-7.815-4.214c-5.164-1.375-10.62,1.402-15.914,0.674c-6.495-0.893-11.568-6.863-18.114-7.241
		c-6.311-0.364-12.266,4.632-18.46,3.374c-5.574-1.132-9.786-7.119-15.449-6.593c-3.22,0.299-5.975,2.729-9.204,2.882
		c-5.642,0.268-17.113-4.527-21.116-8.623c-4.823-4.936,2.038-11.923,6.829-7.022C173.389,52.151,174.016,47.511,177.043,45.998z"/>
	<path fill="#60B000" d="M418.028,257.922c0,4.606-0.157,9.165-0.439,13.693c-0.345,5.013-0.846,9.979-1.535,14.898
		c-0.313,2.209-0.658,4.402-1.034,6.58c-0.345,1.99-0.721,3.979-1.128,5.938c-0.454,2.351-0.971,4.685-1.535,6.987v0.016
		c-0.109,0.455-0.235,0.909-0.345,1.363c-1.457,5.938-3.196,11.781-5.17,17.5c-1.942,5.655-4.136,11.217-6.564,16.638
		c-2.005,4.496-4.167,8.931-6.502,13.254c-1.05,1.975-2.146,3.933-3.274,5.891c-2.114,3.65-4.323,7.223-6.658,10.731
		c-0.736,1.113-1.488,2.226-2.256,3.322c-1.159,1.676-2.35,3.337-3.572,4.981c-0.454,0.611-0.908,1.237-1.378,1.849
		c-0.126,0.173-0.251,0.345-0.392,0.518c-0.768,1.018-1.552,2.021-2.351,3.023c-0.532,0.689-1.065,1.363-1.613,2.037
		c-0.956,1.175-1.927,2.35-2.914,3.493c-0.142,0.188-0.298,0.36-0.454,0.548c-0.424,0.486-0.847,0.987-1.27,1.473
		c-0.282,0.313-0.548,0.627-0.814,0.94c-3.76,4.245-7.677,8.351-11.75,12.251c-0.752,0.736-1.52,1.457-2.287,2.178
		c-1.145,1.081-2.304,2.131-3.463,3.165c-1.426,1.27-2.867,2.507-4.324,3.729c-1.097,0.94-2.209,1.864-3.305,2.742
		c-0.627,0.517-1.254,1.019-1.881,1.504c-0.814,0.642-1.629,1.284-2.459,1.911c-4.622,3.541-9.4,6.894-14.319,10.011l-0.016,0.016
		c-0.643,0.423-1.285,0.83-1.943,1.223c-0.109,0.078-0.234,0.156-0.36,0.234c-0.548,0.345-1.097,0.674-1.66,1.019
		c-0.705,0.438-1.426,0.861-2.131,1.269c-0.814,0.486-1.63,0.956-2.46,1.426v0.016c-1.347,0.768-2.726,1.536-4.104,2.272
		c-1.128,0.61-2.256,1.206-3.384,1.802c-0.016,0-0.031,0.016-0.047,0.03c-1.19,0.611-2.397,1.223-3.588,1.803
		c-0.142,0.078-0.282,0.141-0.407,0.203c-1.081,0.532-2.162,1.05-3.259,1.551c-1.034,0.502-2.084,0.972-3.133,1.441
		c-2.648,1.19-5.343,2.319-8.054,3.4c-1.222,0.485-2.443,0.955-3.666,1.425c-0.047,0.016-0.094,0.031-0.141,0.048
		c-0.094,0.031-0.203,0.078-0.298,0.109c-1.253,0.47-2.507,0.924-3.775,1.362c-0.094,0.031-0.188,0.063-0.267,0.095
		c-1.237,0.438-2.46,0.846-3.697,1.253c-0.188,0.062-0.392,0.126-0.579,0.188c-0.063,0.016-0.142,0.047-0.204,0.062
		c-1.175,0.376-2.35,0.752-3.541,1.112c-1.315,0.407-2.647,0.783-3.994,1.159c-2.82,0.799-5.672,1.535-8.539,2.209h-0.016
		c-0.924,0.22-1.864,0.423-2.789,0.627c-0.971,0.219-1.927,0.423-2.897,0.61c-0.533,0.126-1.081,0.235-1.63,0.329
		c-3.478,0.689-7.003,1.285-10.543,1.786c-0.689,0.109-1.395,0.204-2.1,0.282c-0.455,0.078-0.94,0.141-1.41,0.188
		c-0.674,0.095-1.348,0.173-2.037,0.251c-3.493,0.407-7.019,0.721-10.574,0.94c-0.643,0.031-1.285,0.078-1.928,0.109
		c-0.627,0.031-1.253,0.062-1.896,0.094c-0.705,0.031-1.41,0.062-2.115,0.078c-2.365,0.079-4.747,0.126-7.144,0.126
		c-14.993,0-29.626-1.599-43.694-4.685c-3.134-0.674-6.235-1.41-9.306-2.24c-3.134-0.814-6.221-1.724-9.291-2.711
		c-0.658-0.203-1.3-0.407-1.958-0.626c-1.896-0.627-3.775-1.27-5.625-1.958c-5.013-1.802-9.933-3.808-14.742-5.985
		c-4.716-2.146-9.321-4.449-13.833-6.909c-9.557-5.232-18.644-11.186-27.182-17.812c0,0,0,0-0.016-0.016
		c-2.742-2.115-5.39-4.277-7.99-6.518c-2.977-2.554-5.875-5.201-8.695-7.911c-0.125-0.11-0.235-0.235-0.36-0.345
		c-4.136-3.995-8.1-8.147-11.859-12.471c-14.946-17.062-27.088-36.629-35.752-57.999c-0.031-0.094-0.078-0.172-0.109-0.266
		c-0.407-0.987-0.799-1.99-1.175-2.993c-0.486-1.222-0.94-2.443-1.379-3.665c-1.003-2.758-1.942-5.531-2.836-8.335
		c-0.172-0.549-0.329-1.081-0.485-1.63c-0.235-0.72-0.454-1.441-0.658-2.177c-1.41-4.732-2.632-9.542-3.682-14.414
		c-0.94-4.293-1.739-8.616-2.381-13.019c-0.142-0.83-0.267-1.677-0.36-2.522c-1.285-9.181-1.928-18.565-1.928-28.106
		c0-4.997,0.173-9.964,0.533-14.867c0.47-6.596,1.253-13.098,2.35-19.506c0.987-5.938,2.24-11.765,3.729-17.515
		c0.031-0.047,0.031-0.094,0.048-0.157c0.783-2.945,1.613-5.875,2.521-8.789c1.379-4.449,2.914-8.836,4.575-13.16
		c1.566-4.073,3.274-8.084,5.107-12.031c2.35-5.092,4.903-10.059,7.661-14.931c1.425-2.538,2.914-5.045,4.48-7.521
		c1.911-3.07,3.901-6.078,5.969-9.039c1.363-1.958,2.773-3.901,4.215-5.797c3.274-4.387,6.736-8.632,10.371-12.737
		c1.331-1.504,2.679-2.993,4.058-4.45c2.318-2.475,4.7-4.888,7.144-7.238c8.335-8.037,17.328-15.385,26.932-21.917
		c4.104-2.82,8.318-5.468,12.643-7.99c17.327-10.058,36.269-17.656,56.322-22.309c5.154-1.207,10.402-2.209,15.698-3.008
		c10.089-1.52,20.429-2.319,30.941-2.319c2.24,0,4.496,0.032,6.721,0.094c3.697,0.125,7.395,0.345,11.045,0.658
		c17.531,1.504,34.42,5.202,50.4,10.842c1.394,0.485,2.772,0.987,4.151,1.504c1.817,0.674,3.635,1.394,5.421,2.131
		c1.676,0.689,3.337,1.394,4.997,2.115c3.683,1.629,7.302,3.353,10.873,5.186c9.823,5.029,19.191,10.841,28.028,17.359
		c1.19,0.862,2.365,1.754,3.54,2.647c8.569,6.611,16.575,13.865,23.97,21.699c1.99,2.083,3.933,4.214,5.812,6.376
		c0.689,0.783,1.363,1.582,2.037,2.381c2.82,3.322,5.53,6.752,8.131,10.262c1.817,2.46,3.588,4.967,5.295,7.504
		c2.24,3.337,4.387,6.721,6.424,10.184c1.724,2.93,3.384,5.906,4.966,8.914c2.351,4.465,4.544,9.009,6.549,13.662
		c0.407,0.908,0.8,1.832,1.175,2.757c0.502,1.19,0.987,2.365,1.457,3.572c0.736,1.864,1.457,3.76,2.146,5.655
		c1.441,4.011,2.773,8.068,3.964,12.188c1.802,6.11,3.306,12.33,4.512,18.659c1.176,6.048,2.068,12.188,2.68,18.424
		c0.219,2.193,0.407,4.387,0.548,6.611c0,0.017,0.016,0.031,0,0.047c0.109,1.442,0.188,2.898,0.251,4.355
		c0.078,1.646,0.141,3.306,0.156,4.967C418.013,254.898,418.028,256.402,418.028,257.922z"/>
	<path fill="#74C600" d="M206.81,338.245c-0.987,2.711-2.585,5.201-4.778,7.129c-1.786,1.582-3.792,2.741-5.922,3.603
		c-9.369,3.886-21.433,2.413-30.645,6.956c-0.768,0.361-1.504,0.784-2.225,1.254c-0.345,0.203-0.689,0.438-1.019,0.689
		c-2.162,1.582-3.947,3.54-5.608,5.64c-0.031,0.047-0.078,0.094-0.125,0.157c-2.554,3.242-4.825,6.768-7.786,9.65
		c-1.521,1.473-3.181,2.757-4.951,3.854c-0.972,0.611-1.975,1.175-2.992,1.677c-2.084,1.065-4.262,1.927-6.502,2.663
		c-1.771,0.596-3.604,1.112-5.437,1.566c-2.71,0.689-5.468,1.27-8.178,1.817c-1.144,0.235-2.303,0.471-3.446,0.705
		c-0.847,0.173-1.692,0.345-2.538,0.518c-5.656,1.144-11.327,2.256-17.03,3.212c-0.313,0.047-0.627,0.109-0.939,0.156
		c-4.575,0.768-9.165,1.426-13.771,1.942c-3.008,0.345-6.016,0.627-9.024,0.831c-4.559,0.297-10.073,0.72-15.729,0.783
		c-14.946-17.062-27.088-36.629-35.752-57.999c-0.031-0.094-0.078-0.172-0.109-0.266c-0.407-0.987-0.799-1.99-1.175-2.993
		c-0.486-1.222-0.94-2.443-1.379-3.665c-1.003-2.758-1.942-5.531-2.836-8.335c-0.172-0.549-0.329-1.081-0.485-1.63
		c-0.235-0.72-0.454-1.441-0.658-2.177c-1.41-4.732-2.632-9.542-3.682-14.414c-0.94-4.293-1.739-8.616-2.381-13.019
		c-0.142-0.83-0.267-1.677-0.36-2.522c-1.285-9.181-1.928-18.565-1.928-28.106c0-4.997,0.173-9.964,0.533-14.867
		c0.47-6.596,1.253-13.098,2.35-19.506c0.987-5.938,2.24-11.765,3.729-17.515c0.031-0.047,0.031-0.094,0.048-0.157
		c0.783-2.945,1.613-5.875,2.521-8.789c1.379-4.449,2.914-8.836,4.575-13.16c6.109,2.68,11.562,6.847,17.029,11.062
		c0.972,0.752,1.959,1.52,2.93,2.256c6.032,4.59,12.173,8.914,19.317,11.061c5.515,1.677,11.28,1.927,17.061,1.661h0.048
		c1.832-0.079,3.666-0.22,5.498-0.377l0.017-0.016c1.535-0.141,3.086-0.281,4.621-0.438c5.217-0.532,10.513-1.081,15.745-1.88
		c1.159-0.156,2.318-0.345,3.479-0.563c1.175-0.188,2.365-0.408,3.524-0.658c1.254-0.251,2.507-0.518,3.744-0.814
		c0.674-0.173,1.348-0.329,2.006-0.518c5.326-1.379,10.465-3.243,15.338-5.797c0.579-0.312,1.159-0.626,1.723-0.955
		c8.304-4.763,15.307-11.594,23.751-16.137c8.444-4.544,19.411-6.439,27.291-0.972c6.847,4.747,9.51,14.054,7.959,22.247
		c-0.814,4.293-2.601,8.303-4.966,11.985c-2.146,3.321-4.794,6.392-7.646,9.148c-3.321,3.243-7.035,6.267-8.978,10.466
		c-0.861,1.864-1.331,3.838-1.488,5.859c-0.141,1.755-0.047,3.557,0.235,5.342c0.407,2.789,1.222,5.562,2.225,8.179
		c1.724,4.512,3.901,8.914,5.279,13.505c0.533,1.738,0.94,3.493,1.16,5.295c0.955,7.708-1.41,16.043,0.141,23.375
		c0.36,1.754,0.956,3.462,1.864,5.076c5.061,8.961,17.531,10.903,24.017,18.878c0.063,0.062,0.126,0.141,0.173,0.204
		C208.188,325.352,208.94,332.354,206.81,338.245z"/>
	<path fill="#74C600" d="M383.839,371.405c-23.739,35.723-58.36,63.59-99.147,78.855c-2.845,1.063-5.717,2.076-8.626,3.013
		c-19.958,6.473-41.248,9.959-63.347,9.959c-14.997,0-29.622-1.603-43.696-4.679c0.77-1.538,1.858-3.076,3.409-4.666
		c3.218-3.28,7.089-5.908,10.562-8.921c1.73-1.499,3.358-3.076,4.756-4.896c2.807-3.652,4.537-8.023,7.126-11.844
		c2.576-3.819,6.486-7.229,11.101-7.331c5.756-0.129,10.19,4.729,14.754,8.241c4.575,3.525,12.1,5.486,15.42,0.769
		c1.294-1.845,1.551-4.28,2.948-6.036c3.55-4.436,10.498-1.437,15.74,0.718c3.217,1.319,6.652,2.166,10.126,2.499
		c2.23,0.218,4.474,0.243,6.691,0.038c6.101-0.5,12.049-2.537,17.022-6.114c9.613-6.908,14.983-19.534,12.663-31.147
		c-0.409-2.076-1.051-4.243-0.436-6.28c1.525-4.999,8.435-4.948,13.369-6.666c8.562-2.974,12.369-12.895,13.844-21.829
		c1.884-11.434,1.153-24.546-7.152-32.621c-5.589-5.435-13.639-7.755-20.099-12.075c-1.641-1.102-3.371-2.294-4.153-4.114
		c-1.243-2.896,0.513-6.409,3.192-8.075c2.678-1.666,5.985-1.897,9.139-1.833c21.444,0.462,42.043,13.344,52.297,32.173
		c5.551,10.178,8.268,21.868,14.074,31.814c0.834,1.436,1.73,2.833,2.718,4.191C379.891,366.957,381.826,369.226,383.839,371.405z"
		/>
	<path fill="#74C600" d="M418.024,257.928c0,29.775-6.345,58.064-17.74,83.611c-0.103-0.282-0.192-0.552-0.282-0.834
		c-1.936-6.024-3.742-12.267-6.485-17.944c-1.525-3.18-3.358-6.191-5.666-8.896c-3.999-4.666-9.242-8.165-13.177-12.896
		c-3.948-4.729-6.447-11.523-3.691-17.035c2.513-5.024,8.383-7.229,12.574-10.972c7.69-6.909,9.011-18.586,7.357-28.789
		c-1.653-10.216-5.704-19.958-6.819-30.238c-0.448-4.242-0.436-8.665-2.242-12.522c-3.038-6.538-10.768-10.345-12.626-17.317
		c-1.705-6.422,2.384-13.305,7.985-19.406c3.871-4.217,8.46-8.062,12.344-11.113C407.642,184.146,418.024,219.832,418.024,257.928z"
		/>
	<path fill="#74C600" d="M367.675,123.249c-0.025,0.154-0.051,0.32-0.076,0.475c-1.128,6.255-2.974,12.818-7.102,17.522
		c-0.769,0.885-1.615,1.705-2.563,2.436c-6.229,4.845-14.779,5.024-22.662,4.999c-5.819-0.025-11.677-0.051-17.407-1.103
		c-7.78-1.423-16.138-4.653-23.226-1.128c-3.141,1.564-6.229,4.447-9.588,3.461c-1.705-0.487-2.961-1.896-4.436-2.858
		c-3.679-2.41-8.446-1.987-12.792-2.641c-10.984-1.679-20.137-11.639-20.867-22.726c-0.257-3.858,0.358-7.96-1.385-11.408
		c-2.936-5.819-10.767-6.781-17.278-6.422c-24.137,1.346-47.67,10.934-66.192,26.469c-4.319,3.615-8.37,7.562-12.087,11.806
		c-1.192,1.358-2.358,2.743-3.474,4.166c-4.076,5.153-7.729,10.691-12.369,15.343c-6.922,6.934-15.741,11.588-24.419,16.15
		c-5.217,2.73-10.639,5.525-16.522,5.742c-5.14,0.205-10.126-1.602-14.817-3.704c-7.998-3.589-15.65-8.178-22.624-13.626
		c-5.178-4.024-9.984-8.51-14.278-13.42c-1-1.141-2.026-2.243-3.09-3.332c6.076-9.768,12.959-18.997,20.561-27.572
		c3.575-4.05,7.319-7.947,11.202-11.689c8.332-8.037,17.33-15.382,26.931-21.919c4.103-2.82,8.319-5.474,12.639-7.986
		c30.264-17.586,65.448-27.648,102.967-27.648c2.243,0,4.486,0.039,6.717,0.103c3.704,0.128,7.396,0.346,11.049,0.653
		c19.048,1.628,37.352,5.858,54.554,12.344c1.82,0.68,3.627,1.397,5.422,2.128c15.702,6.422,30.417,14.741,43.889,24.662
		c1.192,0.872,2.371,1.756,3.537,2.653C348.73,103.535,358.702,112.943,367.675,123.249z"/>
	<path fill="#CDDE67" d="M384.582,249.25c-1.179,16.445-14.253,29.237-29.878,35.557c-2.077,0.858-4.191,1.576-6.333,2.179
		c-2.653,0.757-5.357,1.32-8.05,1.692c-16.073,2.204-32.16-0.744-48.156-4.012c-10.14-2.077-16.869,10.407-9.422,17.586
		c0.052,0.051,0.115,0.103,0.167,0.166c5.627,5.32,12.844,8.755,18.458,14.113c8.203,7.845,12.331,19.727,10.767,30.955
		c-0.871,6.191-3.769,14.639-8.741,18.816c-3.769,3.167-9.524,2.59-13.716,5.191c-3.769,2.346-6.037,6.46-9.856,8.755
		c-5.947,3.576-14.907,1.923-18.92,7.575c-3.076,4.308-1.191,10.396,1.718,14.831c2.923,4.422,6.845,8.434,7.973,13.612
		c0.59,2.666,0.359,5.435,0.628,8.152c0.09,0.91,0.23,1.82,0.437,2.704c0.486,2.243,1.333,4.41,2.474,6.409
		c1.91,3.333,4.627,6.127,6.742,9.332c1.538,2.319,2.743,4.832,3.819,7.396c-2.845,1.063-5.717,2.076-8.626,3.013
		c-1.91-5.563-4.153-11.011-6.486-16.407c-1.436-3.308-2.909-6.614-4.614-9.78c-1.487-2.756-3.141-5.422-5.102-7.883
		c-7.37-9.319-24.366-16.805-34.326-6.422c-1.218,1.269-2.23,2.819-3.781,3.641c-4.896,2.589-9.857-3.474-15.241-4.782
		c-4.96-1.217-10.011,1.885-13.459,5.653c-3.435,3.781-6.011,8.357-9.921,11.651c-4.974,4.179-11.562,5.807-17.881,7.307
		c-2.769,0.653-5.537,1.307-8.293,1.961c-9.626,2.269-19.253,4.537-28.866,6.819c-4.704-2.141-9.318-4.448-13.83-6.909
		c-9.55-5.229-18.638-11.189-27.2-17.83c-2.73-2.114-5.384-4.281-7.985-6.524c-3.103-2.652-6.127-5.409-9.062-8.255
		c0.397,0.052,0.781,0.104,1.166,0.142c9.78,1.09,19.638,1.846,29.494,1.833c7.102-0.013,14.189-0.448,21.253-1.448
		c22.751-3.218,45.388-12.973,59.897-30.789c3.385-4.153,6.371-8.755,10.652-11.972c5.96-4.474,13.664-5.704,21.034-6.807
		c12.562-1.858,25.123-3.73,37.685-5.602c5.974-0.885,12.178-1.846,16.74-6.293c2.218-2.167,3.602-5.115,3.474-8.204
		c-0.308-7.613-8.601-10.946-15.535-13.022c-12.407-3.73-24.905-8.024-35.198-15.869c-8.523-6.499-13.42-14.535-16.958-24.431
		c-4.179-11.639,3.641-17.074,2.679-28.136c-0.923-10.408-8.921-17.625-7.113-29.097c1.999-12.651,14.958-21.496,16.74-34.186
		c1.563-11.062-6.166-21.611-15.612-27.572c-8.537-5.383-18.433-8.011-27.956-11.395c-0.616-0.219-1.244-0.436-1.846-0.666
		c-0.41-0.142-0.82-0.295-1.218-0.449c-3.808-1.448-7.537-3.089-11.178-4.909c-2.794-1.397-5.524-2.91-8.203-4.512
		c-12.562-7.55-23.777-17.355-32.878-28.841c-1.795-2.269-3.513-4.602-5.218-6.947c-4.614-6.332-9.126-12.741-14.805-18.073
		c4.103-2.82,8.319-5.474,12.639-7.986c4.961,6.089,9.883,12.203,14.984,18.086c10.768,12.447,22.342,23.829,36.774,31.648
		c0.192,0.103,0.385,0.205,0.59,0.308c3.166,1.692,6.409,3.179,9.729,4.614c1.615,0.692,3.243,1.372,4.871,2.064
		c2.371,0.974,4.743,1.961,7.089,2.987c1.423,0.615,2.832,1.243,4.229,1.897c3.73,1.73,7.37,3.64,10.818,5.896
		c15.1,9.845,25.765,26.238,28.648,44.03c0.73,4.524,18.047-12.126,19.227-13.203c4.025-3.641,8.832-6.818,13.882-9.741
		c2.653-1.538,5.384-3,8.089-4.423c3.807-1.986,7.562-3.896,11.074-5.807c6.178-3.357,12.882-6.678,19.881-5.959
		c6.345,0.652,11.997,4.588,18.342,5.28c7.384,0.808,15.164-2.808,22.086-0.115c3.589,1.396,6.512,4.37,10.293,5.114
		c6.204,1.205,11.703-3.948,15.6-8.935c0.756-0.961,1.5-1.936,2.23-2.923c3.55-4.832,6.793-9.92,9.651-15.202
		c1.82,2.461,3.589,4.961,5.294,7.499c-3.371,4.884-6.742,9.78-10.113,14.664c-2.653,3.871-5.332,7.742-7.998,11.613
		c-1.449,2.115-2.936,4.281-3.641,6.742c-0.77,2.679-0.577,5.524-0.129,8.268C365.048,207.515,386.261,226.164,384.582,249.25z"/>
	<path fill="#028C95" d="M380.763,244.212c-0.014,0.27-0.025,0.551-0.052,0.82c0,0.256-0.025,0.525-0.051,0.782v0.038
		c-0.513,6.217-2.628,12.344-5.999,17.599c-4.961,7.756-12.421,13.69-20.804,17.548c-0.718,0.334-1.436,0.642-2.166,0.937
		c-0.705,0.295-1.41,0.576-2.128,0.833c-0.525,0.192-1.051,0.371-1.59,0.551c-0.448,0.154-0.91,0.295-1.371,0.448
		c-19.111,5.871-40.133,2.257-59.36-3.717c-5.191-1.602-10.613-3.396-15.958-2.384c-3.884,0.743-7.601,3.614-8.896,7.178
		c-0.475,1.32-0.615,2.743-0.308,4.191c0.563,2.59,2.346,4.563,4.499,6.191c0.013,0.013,0.025,0.025,0.038,0.025
		c0.897,0.692,1.846,1.308,2.808,1.91c0.423,0.256,0.846,0.5,1.281,0.756c8.575,5.063,17.112,10.588,23.432,18.278
		c0.385,0.462,0.756,0.937,1.115,1.423c0.192,0.257,0.385,0.513,0.563,0.77c0.577,0.808,1.141,1.641,1.653,2.499
		c0.167,0.257,0.321,0.513,0.462,0.77c0.436,0.743,0.846,1.486,1.23,2.256c0.462,0.91,0.885,1.846,1.257,2.794c0,0,0,0,0.013,0.014
		c0.769,1.884,1.371,3.832,1.769,5.806c0.795,3.743,0.897,7.602,0.103,11.37c-1.948,9.293-8.998,16.868-17.176,21.675
		c-8.191,4.807-17.522,7.229-26.713,9.601c-14.779,3.808-29.559,7.627-44.338,11.446c-4.562,1.167-9.254,2.41-13.048,5.204
		c-4.41,3.243-7.127,8.217-10.217,12.741c-10.126,14.779-25.712,25.688-43.017,30.276h-0.013c-1.333,0.358-2.666,0.667-4.013,0.948
		c-8.639,1.769-17.496,2.013-26.302,2.243c-1.064,0.026-2.141,0.064-3.204,0.09c-9.55-5.229-18.638-11.189-27.188-17.817
		c0,0,0,0-0.013-0.013c-2.73-2.114-5.384-4.281-7.985-6.524c10.472,0.847,20.97,1.437,31.416,1.039h0.014
		c5.28-0.205,10.536-0.654,15.766-1.449c19.343-2.922,38.569-11.049,51.17-25.994c6.19-7.357,10.818-16.33,18.803-21.663
		c12.652-8.446,29.38-5.307,44.453-7.255c12.806-1.666,25.047-7.332,34.596-16.01c0.129-0.115,0.23-0.217,0.346-0.32
		c3.91-3.614,7.461-8.46,6.628-13.689c-0.09-0.563-0.231-1.115-0.423-1.641c-0.014,0-0.014-0.013-0.014-0.013
		c-1.538-4.486-6.165-7.524-10.6-9.588c-13.113-6.089-27.867-8.435-40.339-15.74c-10.651-6.242-19.496-18.202-18.521-29.917
		c0-0.064,0-0.115,0.013-0.18c0.18-1.961,0.628-3.909,1.385-5.807c1.961-4.909,5.524-11.075,2.332-14.817
		c-0.013-0.025-0.038-0.039-0.051-0.052c-0.154-0.205-0.334-0.385-0.552-0.576c-1.103-0.962-2.55-1.397-3.807-2.128
		c-2.474-1.461-3.974-4.038-4.589-6.871v-0.013c-0.077-0.333-0.115-0.679-0.166-1.012c-0.026-0.205-0.064-0.398-0.077-0.59
		c-0.013-0.218-0.039-0.437-0.052-0.654c-0.013-0.141-0.025-0.269-0.013-0.384v-0.757c0.013-0.205,0.013-0.41,0.025-0.603
		c0.013-0.256,0.039-0.5,0.077-0.756c0.025-0.295,0.077-0.59,0.128-0.885c0.91-4.653,3.718-8.69,6.589-12.472
		c13.729-17.163,29.02-32.392,47.26-44.799c1.064-0.73,2.141-1.449,3.23-2.18c0.436-0.281,0.884-0.563,1.32-0.858
		c1.474-0.961,2.974-1.909,4.485-2.833c0.731-0.475,1.462-0.923,2.192-1.346c3.025-1.846,6.102-3.589,9.229-5.217
		c0.552-0.295,1.115-0.576,1.68-0.859c2.294-1.166,4.614-2.242,6.96-3.242c9.511-4.051,20.842-0.654,30.994,0.5
		c6.178,0.705,13.305,2.037,16.176,7.537c1.358,2.615,1.577,5.922,3.769,7.883c2.666,2.371,6.832,1.563,10.152,2.846
		c6.652,2.538,7.242,11.421,9.216,18.266c3.614,12.484,14.843,21.572,18.906,33.916
		C380.429,236.342,380.916,240.276,380.763,244.212z"/>
	<g>
		<g>
			<g>
				<path fill="#CE9334" d="M218.18,262.08c-0.359,1.205-0.923,2.333-1.538,3.423c-0.91,1.602-2.192,3.076-2.782,4.819
					c-0.666,1.974-1.103,3.974-1.346,5.973c-0.179-1.602-0.218-3.191-0.141-4.768c0-0.064,0-0.115,0.013-0.18
					c0.18-1.961,0.628-3.909,1.385-5.807c1.961-4.909,5.524-11.075,2.332-14.817c0.295,0.23,0.525,0.603,0.705,0.961
					c0.23,0.475,0.462,0.962,0.654,1.462C218.603,255.992,219.051,259.158,218.18,262.08z"/>
			</g>
			<g>
				<path fill="#CE9334" d="M213.611,228.923c13.729-17.161,29.022-32.393,47.259-44.793c9.116-6.2,18.931-12.213,29.1-16.537
					c9.52-4.048,20.844-0.657,31.002,0.497c6.167,0.7,13.303,2.033,16.172,7.537c1.359,2.609,1.575,5.928,3.773,7.884
					c2.659,2.366,6.828,1.565,10.152,2.839c6.648,2.548,7.239,11.427,9.215,18.267c3.607,12.492,14.839,21.573,18.904,33.923
					c0.783,2.379,1.259,4.834,1.473,7.314c0.375-4.474-0.065-8.992-1.473-13.267c-4.065-12.35-15.297-21.431-18.904-33.923
					c-1.976-6.84-2.566-15.719-9.215-18.267c-3.324-1.273-7.493-0.473-10.152-2.839c-2.198-1.956-2.414-5.273-3.773-7.884
					c-2.869-5.504-10.005-6.837-16.172-7.537c-10.158-1.153-21.482-4.546-31.002-0.497c-10.169,4.324-19.983,10.338-29.1,16.537
					c-18.236,12.4-33.529,27.632-47.259,44.793c-2.868,3.78-5.673,7.82-6.579,12.479c-0.358,1.843-0.327,3.802,0.074,5.653
					C208.073,236.572,210.806,232.621,213.611,228.923z"/>
			</g>
			<g>
				<path fill="#CE9334" d="M275.296,348.396c-9.549,8.678-21.79,14.344-34.596,15.997c-15.073,1.948-31.801-1.192-44.453,7.255
					c-7.984,5.345-12.612,14.317-18.803,21.662c-12.601,14.959-31.827,23.072-51.17,25.995c-2.5,0.384-5.012,0.679-7.524,0.91
					c-10.497,0.974-21.085,0.756-31.673,0.089c0,0,0,0-0.013-0.013c-2.73-2.114-5.384-4.281-7.985-6.524
					c10.472,0.847,20.97,1.437,31.416,1.039h0.014c5.28-0.205,10.536-0.654,15.766-1.449c19.343-2.922,38.569-11.049,51.17-25.994
					c6.19-7.357,10.818-16.33,18.803-21.663c12.652-8.446,29.38-5.307,44.453-7.255c12.806-1.666,25.047-7.332,34.596-16.01
					c0.129-0.115,0.23-0.217,0.346-0.32c3.91-3.614,7.461-8.46,6.628-13.689c-0.09-0.563-0.231-1.115-0.423-1.641
					c0.179,0.205,0.294,0.5,0.371,0.77C284.538,335.54,281.218,343.013,275.296,348.396z"/>
			</g>
			<g>
				<path fill="#CE9334" d="M302.662,341.5c-0.743-7.011-3.999-13.843-8.523-19.342c-6.319-7.704-14.856-13.229-23.432-18.278
					c-2.807-1.667-5.832-3.41-7.768-6.114c-2.346-3.243-3.371-9.588-0.551-12.921c-0.475,1.32-0.615,2.743-0.308,4.191
					c0.563,2.59,2.346,4.563,4.499,6.191c0.013,0.013,0.025,0.025,0.038,0.025c0.462,0.449,0.897,0.872,1.5,1.192
					c0.436,0.23,0.871,0.474,1.308,0.718c0.423,0.256,0.846,0.5,1.281,0.756c8.575,5.063,17.112,10.588,23.432,18.278
					c0.385,0.462,0.756,0.937,1.115,1.423c0.192,0.257,0.385,0.513,0.563,0.77c0.577,0.808,1.141,1.641,1.653,2.499
					c0.167,0.257,0.321,0.513,0.462,0.77c0.436,0.743,0.846,1.486,1.23,2.256c0.449,0.91,0.872,1.846,1.257,2.794
					c0,0,0,0,0.013,0.014c0.756,1.884,1.358,3.832,1.769,5.806C302.816,335.488,302.996,338.501,302.662,341.5z"/>
			</g>
		</g>
	</g>
	<path fill="#028C95" d="M393.772,354.793c-1.051,1.974-2.141,3.935-3.269,5.883c-0.474-3.499-0.936-7.011-1.397-10.511
		c-0.974-7.383-2.024-14.983-5.729-21.444c-6.23-10.896-18.715-16.599-26.7-26.276c-4.179-5.063-5.974-11.037-8.96-16.74
		c-1.551-2.961-5.024-7.268-2.679-10.601c4.319-6.102,7.998,1.013,8.651,4.986c1.82,11.177,7.294,21.29,16.651,27.956
		c4.922,3.499,10.779,6.023,14.33,10.908c1.653,2.294,2.692,4.96,3.602,7.626c2.09,6.179,3.551,12.574,4.358,19.061
		C393.017,348.691,393.247,351.78,393.772,354.793z"/>
	<path fill="#028C95" d="M280.103,181.416c-1.781,3.423-6.742,3.718-10.139,1.782c-0.32-0.18-0.615-0.371-0.897-0.59
		c-0.884-0.679-1.666-1.474-2.346-2.346c-0.269-0.333-0.525-0.679-0.756-1.038c-0.705-1.013-1.308-2.102-1.858-3.23
		c-0.642-1.281-1.23-2.602-1.846-3.871c-0.526-1.102-1.077-2.191-1.667-3.255c-5.614-10.536-13.382-19.83-21.072-28.995
		c-3.474-4.14-7.024-8.344-11.613-11.177c-8.37-5.178-19.804-4.871-27.879,0.744c-4.512,3.14-7.87,7.64-11.473,11.831
		c-0.179,0.206-0.346,0.411-0.538,0.616c-0.448,0.525-0.897,1.038-1.371,1.538c-0.808,0.897-1.654,1.756-2.551,2.577
		c-1.359,1.243-2.808,2.396-4.396,3.358c-0.603,0.371-1.218,0.705-1.846,1.012c-0.872,0.436-1.757,0.834-2.654,1.192
		c-0.909,0.397-1.819,0.743-2.742,1.103c-0.282,0.115-0.577,0.218-0.859,0.333c-1.385,0.538-2.756,1.09-4.076,1.73
		c-11.151,5.358-18.483,16.151-27.443,24.688c-18.599,17.74-47.105,25.418-71.268,17.843c-2.602-0.808-5.14-1.795-7.614-2.961
		c-1.191-0.563-2.358-1.166-3.512-1.808c-4.024-2.256-7.794-4.947-11.511-7.703c-5.102-3.795-10.139-7.704-15.715-10.741
		c-1.256-0.68-2.704-1.385-4.179-2.154c2.346-5.088,4.909-10.062,7.665-14.92c0.975,1.346,1.923,2.705,3,3.871
		c4.358,4.679,9.613,8.613,14.843,12.472c2.167,1.59,4.319,3.166,6.396,4.781c6.024,4.653,12.164,9.383,19.278,12.113
		c12.356,4.742,26.636,2.846,38.39-3.23c11.754-6.075,21.175-15.983,28.521-26.995c2.704-4.037,5.268-8.369,9.306-11.087
		c1.423-0.948,2.948-1.666,4.537-2.256c0.641-0.244,1.282-0.461,1.936-0.679c1.794-0.603,3.641-1.141,5.422-1.795
		c0.782-0.282,1.551-0.589,2.308-0.936c0.166-0.077,0.346-0.154,0.513-0.244c2.384-1.154,4.524-2.653,6.512-4.371
		c0.615-0.513,1.205-1.064,1.794-1.615c0.308-0.295,0.615-0.59,0.91-0.897c0.538-0.525,1.064-1.063,1.576-1.615
		c5.961-6.358,11.114-13.908,18.74-18.074c7.46-4.088,16.382-4.409,24.893-4.102c7.832,0.282,16.805,1.666,20.983,8.293
		c3.396,5.397,2.563,12.882,6.704,17.728c3.704,4.358,10.484,5.371,13.676,10.126c2.128,3.153,2.154,7.204,2.923,10.921
		c0.372,1.756,0.897,3.436,1.577,5.062c0.909,2.27,2.089,4.423,3.422,6.512c0.795,1.23,1.628,2.436,2.513,3.615
		c0.141,0.191,0.282,0.385,0.436,0.576c0.961,1.282,1.974,2.538,2.986,3.781C278.719,179.763,279.411,180.597,280.103,181.416z"/>
	<path fill="#027F86" d="M188.557,141.271c-1.423,1.667-2.871,3.269-4.46,4.73c-1.359,1.243-2.808,2.396-4.396,3.358
		c-0.603,0.371-1.218,0.705-1.846,1.012c-2.667-2.948-5.807-5.909-9.46-7.383c2.384-1.154,4.524-2.653,6.512-4.371
		c1.499-1.269,2.909-2.667,4.28-4.127c1.514,0.461,2.975,1.128,4.295,1.922C185.545,137.644,187.108,139.399,188.557,141.271z"/>
	<path fill="#027F86" d="M184.097,146.001c-1.359,1.243-2.808,2.396-4.396,3.358c-0.603,0.371-1.218,0.705-1.846,1.012
		c-2.013,1.014-4.141,1.809-6.256,2.628c-3.166-3.319-6.96-6.383-11.446-7.037c2.59-0.872,5.255-1.603,7.729-2.73
		c0.166-0.077,0.346-0.154,0.513-0.244c2.384-1.154,4.524-2.653,6.512-4.371c1.205,0.436,2.371,0.987,3.447,1.64
		C180.738,141.681,182.456,143.809,184.097,146.001z"/>
	<path fill="#E78A34" d="M176.911,153.529c0.115,0.125,0.241,0.238,0.396,0.307c0.407,0.18,0.877-0.004,1.272-0.207
		c3.751-1.934,7.391-4.222,10.103-7.501c-2.361-3.038-4.407-6.421-7.764-8.436c-2.959-1.776-6.558-2.87-10.025-2.761
		c-4.691,0.146-8.492,3.117-12.211,5.63c-0.86,0.581-3.265,2.943-0.762,3.385c1.373,0.242,2.78-0.754,4.185-0.624
		c6.069,0.572,10.919,5.635,14.656,10.035C176.81,153.415,176.859,153.474,176.911,153.529z"/>
	<path fill="#FFFFFF" d="M275.384,174.933c-0.538-0.408-1.332-0.595-1.88-0.198c-0.547,0.396-0.451,1.469,0.217,1.57
		c-0.5,0.108-1.018,0.006-1.528-0.034c-0.51-0.04-1.067-0.003-1.457,0.329s-0.47,1.043-0.041,1.321
		c-0.455-0.175-0.932-0.353-1.415-0.296c-0.483,0.058-0.967,0.435-0.966,0.922c-0.309-0.187-0.73,0.056-0.865,0.39
		s-0.068,0.711,0,1.064c-0.466-0.426-1.039-0.834-1.668-0.768c-0.628,0.065-1.146,0.88-0.728,1.354
		c-0.464-0.648-1.63-0.553-1.983,0.162c-0.353,0.715,0.282,1.698,1.079,1.672c-0.419,0.446-0.853,0.922-0.993,1.517
		c-0.141,0.596,0.137,1.336,0.73,1.482c0.632,0.156,1.199-0.391,1.621-0.886c-0.354,0.779,0.637,1.679,1.454,1.428
		c0.818-0.25,1.218-1.258,1.033-2.093c0.339,0.536,1.222,0.497,1.644,0.022c0.422-0.474,0.439-1.203,0.22-1.799
		c0.72,0.3,1.526,0.537,2.268,0.299c0.742-0.238,1.305-1.139,0.93-1.821c0.635,0.388,1.407,0.669,2.116,0.444
		s1.204-1.145,0.776-1.753c0.612,0.315,1.429,0.336,1.934-0.132c0.505-0.469,0.442-1.468-0.197-1.722
		c0.753,0.359,1.7-0.203,1.998-0.982s0.101-1.662-0.227-2.43c-0.499-1.17-1.131-1.336-2.203-0.896
		C276.484,173.413,275.216,173.871,275.384,174.933z"/>
	<path fill="#0BA3A7" d="M265.517,175.3c0.118,0.218,0.249,0.44,0.455,0.579s0.508,0.166,0.689-0.004
		c0.414-0.387-0.167-1.262,0.294-1.592c0.45-0.321,1.154,0.447,1.573,0.086c-0.231-0.217,0.103-0.592,0.418-0.636
		c0.314-0.044,0.693,0.007,0.893-0.241c0.074-0.093,0.105-0.213,0.127-0.33c0.096-0.522-0.286-2.621-1.175-2.395
		c-0.608,0.155-0.022,0.992-0.376,1.348c-0.444,0.444-1.555-0.594-1.852,0.584c-0.062,0.248-0.033,0.555-0.234,0.713
		c-0.198,0.156-0.489,0.061-0.706-0.067C263.941,172.357,265.215,174.746,265.517,175.3z"/>
	<path fill="#0BA3A7" d="M236.61,124.535c0.194-0.542-0.245-1.148-0.084-1.7c0.799-0.008,1.597-0.015,2.396-0.022
		c0.152-0.001,0.315-0.006,0.438-0.095c0.156-0.112,0.203-0.323,0.204-0.515c0.003-0.954-0.795-1.695-1.528-2.305
		c-1.036-0.862-2.161-1.762-3.504-1.884c-0.268-0.025-0.585,0.007-0.729,0.234c-0.104,0.162-0.083,0.371-0.06,0.561
		c0.111,0.884,0.223,1.768,0.334,2.651c-0.906-0.889-1.824,0.477-1.68,1.333C232.59,123.919,236.042,126.125,236.61,124.535z"/>
	<path fill="#0BA3A7" d="M243.979,138.864c-0.277,0.001-0.555,0.001-0.833,0.002c0.236,1.88,1.782,3.522,3.646,3.871
		c-0.106-0.846-0.362-1.673-0.755-2.431c0.463,0.237,0.966,0.397,1.481,0.471c0.332-0.944-0.391-1.897-1.004-2.688
		c-0.958-1.235-2.635-6.334-4.114-6.043C239.434,132.63,243.38,137.784,243.979,138.864z"/>
	<path fill="#0BA3A7" d="M262.088,156.469c0.095,0.334,0.231,0.715,0.56,0.829c0.529,0.185,0.957-0.474,1.065-1.024
		c0.312-1.598-0.138-3.277-0.969-4.678s-2.019-2.555-3.264-3.604c-0.57-0.479-1.468-0.932-1.979-0.391
		c-0.94,0.992,1.792,2.738,2.32,3.467C260.973,152.655,261.56,154.605,262.088,156.469z"/>
	<path fill="#0BA3A7" d="M194.621,121.905c-0.504,0.476-1.028,1.105-0.872,1.781c0.838-0.019,1.463-0.737,2.026-1.356
		s1.353-1.242,2.155-1.004c-0.904,1.027-1.757,2.1-2.553,3.211c0.528,0.155,1.005-0.326,1.411-0.699
		c1.411-1.293,3.433-1.668,5.032-2.72c0.187-0.123,0.38-0.275,0.426-0.494c0.094-0.456-0.502-0.746-0.967-0.723
		c-0.466,0.023-0.984,0.166-1.361-0.106c-0.368-0.265,8.353-2.85,3.799-3.214C200.915,116.358,196.493,120.138,194.621,121.905z"/>
	<path fill="#0BA3A7" d="M238.674,210.173c-6.035,6.169-11.458,13.667-12.117,22.271c-0.133,1.734-0.062,3.514,0.515,5.155
		c1.516,4.319,8.344,8.893,13.057,7.833c0.854-0.192,1.617-1.065,1.356-1.901c-0.252-0.805-1.216-1.099-2.04-1.272
		c-1.23-0.259-2.461-0.518-3.69-0.776c-0.989-0.208-2.032-0.444-2.763-1.143c-0.869-0.83-1.092-2.115-1.228-3.31
		c-0.402-3.537-0.443-7.185,0.61-10.584c1.055-3.4,3.329-6.545,6.572-8.012c-0.334,0.968-0.525,1.984-0.566,3.007
		c1.22,0.335,2.28-0.823,3.1-1.787c4.756-5.604,12.342-8.746,15.683-15.294c0.271-0.53,0.5-1.201,0.156-1.688
		c-0.788-1.112-2.663,0.605-3.855-0.054c-0.184-1.806,1.789-2.943,3.218-4.062c1.126-0.882,2.05-2.02,2.684-3.304
		c0.986-2.001-2.428-0.226-2.963,0.121c-1.26,0.815-2.282,1.946-3.513,2.801C247.787,201.719,243.019,205.732,238.674,210.173z"/>
	<path fill="#0BA3A7" d="M303.769,175.064c-0.523,0.24-1.101,0.6-1.156,1.174c-0.083,0.846,0.979,1.295,1.825,1.371
		c1.942,0.176,3.892-0.167,5.843-0.202c1.95-0.035,4.028,0.294,5.494,1.58c3.668,3.221,1.452,10.175,5.177,13.33
		c3.485,2.951,9.465,0.243,13.071,3.045c1.427,1.108,2.157,2.86,3.14,4.377c0.215,0.332,0.462,0.67,0.826,0.823
		c1.018,0.427,1.945-0.837,2.122-1.925c0.343-2.116-0.401-4.343-1.817-5.952c-1.416-1.608-3.454-2.612-5.572-2.94
		c-2.415-0.375-5.095,0.032-7.128-1.325c-0.915-0.61-1.589-1.522-2.135-2.478c-1.529-2.675-2.186-5.776-3.709-8.454
		C316.414,171.627,309.15,172.594,303.769,175.064z"/>
	<path fill="#0BA3A7" d="M329.115,196.596c-2.596-1.036-5.628-0.921-8.138,0.309c-0.496,0.244-1.05,0.751-0.807,1.247
		c0.108,0.223,0.349,0.347,0.58,0.436c2.752,1.061,6.271-0.577,8.613,1.214c1.141,0.871,1.635,2.318,2.307,3.587
		c0.604,1.14,1.777,2.622,3.211,2.396C335.776,201.647,332.859,198.09,329.115,196.596z"/>
	<path fill="#0BA3A7" d="M351.349,279.525c0.277,1.41,0.43,2.845,0.457,4.281c-0.253,0.192-0.614-0.032-0.806-0.285
		c-0.19-0.254-0.372-0.574-0.687-0.621c-0.303-0.045-0.585,0.213-0.677,0.506c-0.091,0.292-0.041,0.608,0.011,0.91
		c-0.351,0.171-0.787,0.044-1.086-0.207c-0.299-0.25-0.489-0.604-0.673-0.947c-0.2-0.375-0.405-0.769-0.405-1.193
		c-0.001-0.425,0.277-0.883,0.699-0.929c0.49-0.054,0.916,0.441,1.406,0.385c0.166-0.473-0.018-0.992,0.005-1.493
		s0.477-1.073,0.932-0.863c0.477,0.22,0.383,1.04,0.855,1.268L351.349,279.525z"/>
	<path fill="#0BA3A7" d="M373.604,315.729c1.32,0.921,2.64,1.842,3.96,2.763c0.451-1.018-0.352-2.128-1.135-2.919
		c-1.537-1.55-3.213-2.963-5.002-4.215c-0.293-0.204-0.604-0.41-0.958-0.45C368.076,310.639,373.011,315.315,373.604,315.729z"/>
	<path fill="#0BA3A7" d="M248.607,366.896c-0.225,0.17-0.452,0.366-0.537,0.635c-0.208,0.652,0.512,1.22,1.165,1.426
		c0.652,0.204,1.435,0.349,1.746,0.958c0.118,0.231,0.146,0.497,0.216,0.748c0.267,0.943,1.151,1.613,2.096,1.875
		c0.943,0.262,1.946,0.181,2.919,0.058c1.563-0.199,3.115-0.502,4.639-0.906c1.023-0.271,2.167-0.708,2.53-1.703
		c0.146-0.401,0.117-0.905-0.2-1.193c-0.134-0.121-0.305-0.193-0.477-0.251c-1.438-0.484-3.002-0.112-4.519-0.063
		c-0.335,0.011-0.723-0.021-0.917-0.294c-0.355-0.501,0.292-1.229,0.035-1.787c-1.319-0.579-2.793,0.234-4.216,0.467
		c-0.174,0.028-0.363,0.045-0.515-0.044c-0.231-0.137-0.271-0.454-0.243-0.722C252.562,363.9,249.452,366.253,248.607,366.896z"/>
	<path fill="#0BA3A7" d="M191.774,380.872c-0.423,0.422-0.859,0.951-0.771,1.543c0.133,0.887,1.276,1.164,2.173,1.128
		c0.896-0.035,1.973-0.099,2.493,0.631c0.787,1.104-0.556,2.816,0.208,3.936c0.507,0.743,1.58,0.71,2.475,0.807
		c0.895,0.096,1.973,0.782,1.676,1.631c0.713-0.371,1.384-0.926,1.638-1.688c0.254-0.764-0.052-1.745-0.805-2.03
		c-0.42-0.16-0.909-0.09-1.311-0.293c-0.618-0.312-0.775-1.124-0.738-1.815c0.043-0.802,0.129-1.44-0.187-2.19
		c-0.22-0.522-1.219-0.243-1.068-1.255c0.076-0.51,0.479-0.918,0.936-1.157c0.455-0.239,0.967-0.342,1.462-0.483
		c1.835-0.521,3.467-1.57,5.068-2.606c0.371-0.241,0.789-0.566,0.762-1.009c-0.101-1.628-2.776-1.261-3.75-1.061
		C198.236,375.736,194.479,378.169,191.774,380.872z"/>
	<path fill="#0BA3A7" d="M148.209,419.094c-0.05,0.655,0.631,1.117,1.253,1.33s1.343,0.378,1.681,0.941
		c0.288,0.479,0.2,1.111,0.472,1.601c0.315,0.57,1.088,0.794,1.705,0.58c0.616-0.213,1.063-0.788,1.24-1.416
		c0.093-0.329,0.119-0.689-0.007-1.008c-0.353-0.895-1.765-1.23-1.736-2.191c0.017-0.555,0.562-1.073,0.356-1.59
		C152.311,415.164,148.342,417.369,148.209,419.094z"/>
	<path fill="#0BA3A7" d="M240.056,302.486c-0.181-1.162-0.361-2.323-0.543-3.485c3.558,0.017,6.412,3.838,9.942,3.396
		c0.232-0.029,0.476-0.084,0.647-0.245c0.259-0.241,0.274-0.639,0.28-0.992c0.019-1.076,0.433-2.474,1.509-2.473
		c0.392,0,0.847,0.192,1.136-0.072c0.251-0.229,0.176-0.635,0.08-0.962c-0.341-1.169-0.729-2.411-1.674-3.181
		c-0.943-0.77-2.626-0.736-3.15,0.363c-0.455,0.953-0.019,2.455-0.991,2.867c-0.451,0.19-0.967-0.014-1.4-0.242
		c-1.654-0.875-3.105-2.152-4.873-2.768c-1.769-0.615-4.098-0.299-4.967,1.359c-0.118,0.226-0.229,0.491-0.467,0.581
		c-0.353,0.132-0.693-0.208-0.906-0.518c-1.191-1.731-1.972-3.715-3.132-5.467c-0.581-0.878-3.574-4.521-4.915-3.357
		c-1.047,0.907,1.554,4.61,2.022,5.33C231.432,296.888,235.42,300.371,240.056,302.486z"/>
	<path fill="#0BA3A7" d="M353.275,224.192c-1.8,2.228-2.748,5.706-0.839,7.84c0.713,0.796,1.709,1.268,2.566,1.903
		c2.357,1.748,3.557,4.659,4.207,7.521c0.47,2.069,0.637,4.465-0.723,6.096c-1.652,1.983-4.809,1.951-6.728,3.679
		c-1.119,1.008-1.674,2.484-2.558,3.703c-1.747,2.408-4.779,3.812-6.009,6.521c-1.193,2.629-0.108,6.073,2.376,7.544
		c0.307,0.181,0.646,0.339,1.002,0.325c0.924-0.035,1.414-1.166,1.324-2.087c-0.303-3.097-0.893-4.575,1.538-6.845
		c2.357-2.201,5.099-4.279,8.314-4.966c1.318-0.281,2.715-0.328,3.917-0.938c2.76-1.399,3.366-5.134,2.804-8.176
		c-0.562-3.043-1.936-5.977-1.818-9.068c0.033-0.853,0.176-1.736-0.12-2.537c-1.077-2.911-5.221-2.209-5.537-5.896
		c-0.106-1.247-0.047-2.646-0.896-3.565c-0.294-0.319-0.674-0.547-1.056-0.752c-0.784-0.421-1.692-0.777-2.544-0.523
		c0.21,0.329,0.581,0.548,0.97,0.576L353.275,224.192z"/>
	<path fill="#0BA3A7" d="M364.501,256.966c-2.492,1.773-5.136,3.335-7.893,4.662c-0.597,0.287-1.314,0.861-1.016,1.452
		c0.165,0.327,0.572,0.438,0.936,0.488c1.401,0.188,2.823-0.051,4.203-0.36c3.3-0.74,6.612-1.956,9.043-4.308
		s3.791-6.043,2.645-9.225c-0.705-1.958-2.269-3.574-2.676-5.615c-0.223-1.118-0.077-2.279-0.244-3.406
		c-0.168-1.128-0.785-2.321-1.885-2.622c-1.361-0.372-2.734,0.895-2.999,2.28c-0.264,1.387,0.26,2.792,0.814,4.089
		c0.846,1.978,2.785,4.35,3.092,6.454C368.908,253.509,366.396,255.617,364.501,256.966z"/>
	<path fill="#0BA3A7" d="M261.351,216.766c1.536-2.069,3.41-3.873,4.922-5.96c1.554-2.145,2.698-4.551,4.019-6.847
		c2.249-3.908,5.107-7.591,8.938-9.969c3.832-2.377,8.761-3.287,12.934-1.576c0.953,0.392,1.92,0.984,2.29,1.946
		s-0.213,2.301-1.243,2.332c-0.773,0.023-1.368-0.63-1.998-1.078c-1.198-0.853-2.852-1.019-4.194-0.421
		c-0.421,0.187-0.813,0.443-1.256,0.571c-0.518,0.148-1.066,0.112-1.604,0.142c-2.547,0.138-4.803,1.766-6.429,3.731
		c-1.625,1.965-2.757,4.282-4.122,6.436c-4.911,7.743-12.952,12.629-13.072,22.76c-0.011,0.956-0.071,11.766-3.169,9.459
		c-0.605-0.45-0.341-3.998-0.39-4.716c-0.118-1.715-0.166-3.48-0.002-5.194C257.371,224.214,258.851,220.135,261.351,216.766z"/>
	<path fill="#0BA3A7" d="M55.946,187.68c0.878,0.919,1.856,1.741,2.913,2.447c0.458,0.307,1.096,0.585,1.52,0.231
		c0.28-0.233,0.323-0.648,0.282-1.011c-0.081-0.72-0.344-1.605,0.228-2.051c0.479-0.375,1.164-0.105,1.758,0.026
		c0.595,0.132,1.447-0.133,1.365-0.735c-0.033-0.243-0.221-0.434-0.405-0.595c-1.445-1.265-3.365-1.975-5.285-1.956
		c-0.388,0.004-0.831,0.066-1.046,0.389c-0.474,0.71,0.666,1.541,0.562,2.389c-0.407,0.138-0.846-0.076-1.197-0.323
		s-0.699-0.544-1.125-0.599c-0.427-0.056-0.933,0.285-0.846,0.706c0.048,0.231,0.25,0.395,0.438,0.537
		c0.629,0.477,1.257,0.953,1.885,1.429L55.946,187.68z"/>
	<path fill="#0BA3A7" d="M136.245,173.93c1.575,0.6,3.229-0.55,4.522-1.63c0.067,0.476,0.633,0.749,1.106,0.667
		s0.861-0.414,1.206-0.75c1.376-1.343,2.471-2.973,3.196-4.754c-0.298-0.022-0.595-0.045-0.893-0.067
		c-0.601-0.046,2.503-4.413,2.622-4.649c1.151-2.288,0.219-3.565-1.532-1.201C143.136,166.049,140.842,170.396,136.245,173.93z"/>
	<path fill="#578A38" d="M84.834,218.233c-0.35,4.338-5.212,7.685-9.387,6.46c3.276,2.239,4.187,7.276,1.9,10.519
		c-2.285,3.242-7.335,4.082-10.542,1.75c3.872,3.323,4.082,10.052,0.408,13.597s-10.391,3.114-13.574-0.875
		c1.166,3.452-0.991,7.662-4.466,8.735c-3.487,1.072-7.639-1.178-8.63-4.688c-0.699,3.195-3.592,5.026-6.6,5.656
		c-0.934,0.198-9.365-0.42-8.152-2.461c-1.376,2.32-4.711,3.207-7.066,1.89c-2.355-1.33-3.335-4.63-2.076-7.021
		c-2.367,0.793-5.225-0.338-6.413-2.542c-1.179-2.192-0.549-5.201,1.41-6.741c-2.985,1.843-7.37-0.256-8.314-3.638
		c-0.933-3.382,1.213-7.137,4.385-8.618c-3.708,0.314-7.382-2.775-7.696-6.495c-0.269-3.335,2.192-6.636,5.399-7.487
		c0.361-0.116,0.734-0.175,1.107-0.21c-3.044-1.189-3.557-5.795-1.376-8.232c2.181-2.426,5.994-2.799,9.084-1.737
		c-2.332-2.939-0.536-7.813,2.916-9.271c3.451-1.457,7.626,0.012,10.203,2.729c-0.151-2.344,1.354-4.711,3.546-5.562
		c3.137-1.212,6.017,0.747,7.545,3.405c-0.467-1.411-0.443-3.358,0.723-4.419c0.968-0.898,2.367-1.189,3.686-1.108
		c2.868,0.175,5.539,2.111,6.601,4.781c-0.141-2.647,2.215-5.154,4.862-5.178c1.026-0.012,2.11,0.35,2.74,1.166
		c0.361,0.479,0.548,1.05,0.712,1.633c0.373,1.341,0.641,2.729,0.805,4.116c-0.479-4.116,5.235-5.737,8.209-3.743
		c2.31,1.539,3.113,4.944,1.75,7.37c2.915-1.667,6.903-1.982,9.398,0.257c2.496,2.238,1.936,7.276-1.317,8.081
		c3.825-0.478,7.604,2.683,8.163,6.426C84.857,217.253,84.869,217.743,84.834,218.233z"/>
	<path fill="#B4812C" d="M150.41,117.055c1.719,0.852,3.614-0.917,5.541-0.914c1.856,0.003,3.237,1.607,4.33,3.06
		c-0.294-1.351,0.812-2.679,2.142-3.178c1.33-0.5,2.819-0.377,4.247-0.248c-1.297-1.858-3.606-2.886-4.912-4.738
		c-1.716-2.434-1.312-5.63-1.112-8.549c0.121-1.757,1.138-9.465-1.61-9.874c-2.173-0.322-3.548,4.051-3.613,5.461
		c-0.173,3.731,1.354,7.104,0.455,10.939C155.626,110.083,152.367,118.024,150.41,117.055z"/>
	<path fill="#B4812C" d="M191.249,111.232c1.719,0.852,3.615-0.917,5.541-0.914c1.856,0.003,3.237,1.607,4.331,3.06
		c-0.295-1.351,0.811-2.679,2.141-3.179c1.331-0.5,2.819-0.377,4.247-0.247c-1.297-1.858-3.606-2.886-4.912-4.738
		c-1.716-2.434-1.312-5.63-1.111-8.55c0.12-1.757,1.137-9.465-1.611-9.873c-2.173-0.323-3.547,4.05-3.613,5.461
		c-0.173,3.731,1.354,7.104,0.455,10.939C196.465,104.261,193.206,112.202,191.249,111.232z"/>
	<path fill="#B4812C" d="M219.217,108.767c1.719,0.852,3.614-0.917,5.54-0.914c1.857,0.003,3.238,1.607,4.331,3.06
		c-0.294-1.351,0.811-2.679,2.142-3.179c1.33-0.5,2.819-0.377,4.246-0.247c-1.297-1.858-3.606-2.886-4.912-4.739
		c-1.715-2.434-1.312-5.629-1.111-8.549c0.121-1.757,1.138-9.465-1.61-9.873c-2.173-0.322-3.548,4.05-3.613,5.461
		c-0.174,3.731,1.354,7.103,0.455,10.938C224.433,101.795,221.174,109.737,219.217,108.767z"/>
	<path fill="#B4812C" d="M282.963,132.705c1.718,0.852,3.614-0.917,5.54-0.914c1.856,0.003,3.238,1.607,4.331,3.06
		c-0.294-1.351,0.811-2.679,2.141-3.179c1.331-0.5,2.819-0.377,4.247-0.248c-1.297-1.857-3.606-2.886-4.912-4.738
		c-1.716-2.434-1.312-5.63-1.111-8.549c0.12-1.757,1.137-9.465-1.611-9.873c-2.172-0.323-3.547,4.05-3.612,5.461
		c-0.174,3.731,1.354,7.104,0.454,10.938C288.179,125.733,284.92,133.675,282.963,132.705z"/>
	<path fill="#B4812C" d="M314.586,127.476c1.556,1.122,3.716-0.311,5.615,0.009c1.831,0.309,2.93,2.117,3.77,3.73
		c-0.068-1.381,1.239-2.509,2.634-2.783c1.395-0.274,2.844,0.091,4.23,0.454c-0.975-2.046-3.084-3.439-4.067-5.481
		c-1.292-2.683-0.369-5.769,0.309-8.616c0.407-1.713,2.678-9.149,0.033-10.003c-2.09-0.675-4.164,3.412-4.461,4.793
		c-0.784,3.652,0.168,7.229-1.35,10.865C320.876,121.456,316.357,128.754,314.586,127.476z"/>
	<path fill="#B4812C" d="M339.348,140.208c1.496,1.2,3.727-0.123,5.607,0.292c1.812,0.401,2.819,2.263,3.575,3.917
		c0.002-1.383,1.365-2.444,2.772-2.647c1.406-0.204,2.835,0.235,4.201,0.668c-0.869-2.093-2.905-3.591-3.784-5.68
		c-1.155-2.745-0.077-5.78,0.744-8.589c0.493-1.69,3.136-9.002,0.539-9.989c-2.054-0.78-4.332,3.197-4.698,4.562
		c-0.968,3.607-0.197,7.229-1.896,10.783C345.935,134.513,341.052,141.574,339.348,140.208z"/>
	<path fill="#578A38" d="M173.509,89.315c-1.189,1.049-2.787,1.54-4.35,1.773c1.784,0.081,3.195,1.877,3.125,3.661
		c-0.07,1.785-1.423,3.358-3.102,3.977c-1.668,0.629-3.568,0.385-5.189-0.338c0.781,2.064-1.015,4.501-3.207,4.816
		c-2.192,0.314-4.373-1.073-5.539-2.951c-0.688,2.274-3.615,3.568-5.762,2.531c-2.146-1.038-2.95-4.128-1.586-6.087
		c-1.842,0.816-4.162-0.443-4.827-2.332c-0.653-1.901,0.163-4.117,1.69-5.423c-1.842,0.163-3.696-1.236-4.046-3.044
		c-0.351-1.819,0.839-3.801,2.612-4.338c-0.619-0.175-1.108-0.571-1.446-1.108c-0.595-0.91-0.712-2.169-0.222-3.16
		c0.781-1.562,2.682-2.344,4.42-2.181c-3.721-1.073,1.049-4.361,2.646-4.665c2.461-0.455,4.117,0.886,5.108,3.102
		c0.466-1.714,1.912-5.294,4.407-3.86c1.016,0.583,1.248,1.924,1.377,3.102c0.758-1.831,2.646-3.265,4.617-3.067
		c1.972,0.21,3.604,2.402,2.881,4.245c1.225-0.373,2.554-0.501,3.778-0.116c1.213,0.373,2.298,1.341,2.601,2.577
		c0.269,1.143-0.117,2.204-0.665,3.265c-0.63,1.213-1.457,2.414-1.772,3.72c1.353-0.816,3.3,0.14,3.813,1.633
		C175.386,86.551,174.687,88.266,173.509,89.315z"/>
	<path fill="#578A38" d="M152.425,139.086c-0.012,1.236-0.023,2.508-0.479,3.662c-0.746,1.913-2.775,3.253-4.828,3.195
		c2.787,1.33,1.727,6.041-1.096,7.3c-2.822,1.26-6.099,0.187-8.956-0.979c2.542,2.636,1.062,7.475-2.122,9.271
		c-3.195,1.807-7.23,1.225-10.612-0.188c1.236,2.217,0.467,5.33-1.656,6.706c-2.134,1.376-5.282,0.805-6.798-1.236
		c0.303,2.483-2.508,4.432-4.991,4.245c-2.496-0.188-4.618-1.785-6.589-3.324c0.571,2.729-1.166,5.738-3.813,6.612
		c-2.636,0.863-5.819-0.524-6.985-3.056c-0.291,3.639-4.361,6.053-7.988,5.703c-3.627-0.361-6.729-2.74-9.247-5.376
		c-5.097,2.413-12.035-1.213-12.944-6.787c-2.041,2.367-6.344,0.7-7.464-2.216c-1.119-2.915-0.069-6.18,1.166-9.037
		c-2.693,0.128-5.399-1.424-6.658-3.813c-1.248-2.391-0.968-5.505,0.677-7.639c-3.336-0.07-6.975-1.049-8.828-3.813
		c-1.562-2.32-0.945-6.029,1.26-7.405c0.419-0.268,0.897-0.443,1.422-0.513c-3.102-0.35-5.037-4.466-3.335-7.079
		c1.574-2.414,5.562-2.496,7.394-0.373c-1.073-1.691-1.213-4.047,0.163-5.469c1.189-1.236,3.335-0.816,4.56-0.187
		c0.49-2.507,3.323-4.35,5.819-3.359c2.822,1.12,4.198,4.292,4.933,7.23c2.298-1.994,5.866-2.367,8.524-0.886
		c2.659,1.493,4.222,4.734,3.708,7.743c2.857-1.318,6.17-2.25,9.132-1.178c2.962,1.061,5.026,4.863,3.347,7.521
		c3.009-0.746,6.285-1.469,9.143-0.268c2.869,1.201,4.665,5.248,2.554,7.521c2.869-2.355,6.775-3.417,10.449-2.845
		c0.022-7.452,8.839-13.376,15.754-10.589c1.318-2.997,4.712-4.944,7.977-4.548c3.254,0.385,6.1,3.067,6.683,6.286
		c2.215-2.087,6.099-2.064,8.291,0.058c1.364,1.33,1.982,3.137,2.239,5.061C152.413,136.381,152.437,137.757,152.425,139.086z"/>
	<path fill="#578A38" d="M233.938,84.557c0.863,2.041-0.816,4.443-2.915,5.154c-2.1,0.723-4.396,0.233-6.542-0.314
		c-0.315,2.624-2.251,5.002-4.758,5.842c-2.52,0.828-5.493,0.093-7.324-1.831c-1.189,2.985-4.746,4.805-7.871,4.023
		c-1.353-0.35-2.577-1.107-3.941-1.434c-2.928-0.711-6.496,0.501-8.746-1.504c-2.228-1.994-1.435-5.597-0.467-8.419
		c-1.819,0.828-4.175,0.268-5.423-1.294c-1.247-1.575-1.259-3.988-0.046-5.574c0.839-1.096,2.285-2.262,1.702-3.522
		c-0.222-0.455-0.665-0.758-1.05-1.084c-0.944-0.816-1.516-1.982-1.69-3.207c-0.198-1.224,0.034-2.53,0.711-3.58
		c1.12-1.737,3.335-2.624,5.341-2.286c-1.259-0.933-1.504-3.37-0.291-4.676c3.16-3.417,11.055-1.878,11.965,2.973
		c0.699-1.982,2.658-3.463,4.758-3.58c2.11-0.128,4.221,1.108,5.154,2.997c1.096-2.286,4.046-3.463,6.414-2.577
		c2.367,0.875,3.824,3.697,3.172,6.146c1.562-1.819,4.291-2.519,6.542-1.691c2.239,0.84,3.848,3.149,3.848,5.551
		c2.508-0.14,4.956,1.271,6.298,3.37c0.56,0.863,0.933,1.842,1.038,2.88C240.189,80.441,237.437,84.009,233.938,84.557z"/>
	<path fill="#578A38" d="M207.84,212.297c-0.408,3.522-4.046,6.846-7.323,5.517c1.411,2.146,0.991,5.306-0.944,6.996
		c-1.925,1.703-5.108,1.715-7.056,0.035c0.07,0.828,0.105,1.68,0.035,2.52c-0.082,1.235-0.385,2.414-1.084,3.417
		c-1.189,1.69-3.884,2.413-5.33,0.956c1.201,1.469,1.295,3.743,0.198,5.294c-1.084,1.551-3.253,2.251-5.037,1.609
		c0.641,3.429-2.228,7.09-5.715,7.276c-3.486,0.187-6.729-3.148-6.448-6.623c-2.881,1.166-6.496,0.886-8.665-1.342
		c-2.157-2.215-2.04-6.483,0.642-8.046c-2.67-3.487-0.548-9.446,3.721-10.472c-1.843-2.286-1.155-6.146,1.364-7.662
		c-3.103-0.642-5.307-4.104-4.571-7.195c-2.146,1.598-5.621,0.898-6.974-1.411c0.222,3.825-2.962,7.533-6.775,7.872
		c-0.129,2.577-0.537,5.271-2.123,7.288c-1.598,2.018-4.711,3.032-6.821,1.562c1.329,3.103,0.104,7.079-2.741,8.886
		c-2.845,1.809-6.962,1.236-9.2-1.294c-1.971,3.277-4.677,6.414-8.361,7.464c-3.674,1.037-8.35-0.875-9.119-4.618
		c-3.044,0.618-6.31-0.746-8.28-3.125c-0.816-0.98-1.411-2.123-1.69-3.382c-0.945-4.292,2.063-9.073,6.344-10.076
		c-2.064-2.216-0.758-6.157,1.865-7.661c2.612-1.505,5.901-1.167,8.805-0.361c-3.65-8.653,9.527-10.064,14.589-8.922
		c-0.852-3.288,5.388-8.921,6.099-6.646c-0.852-2.729,0.502-5.971,3.032-7.277c2.542-1.317,5.971-0.56,7.708,1.715
		c0.606-6.939,7.148-12.805,14.099-12.664c1.166,0.034,2.402,0.186,3.452-0.315c1.107-0.536,1.749-1.69,2.519-2.636
		c3.709-4.524,11.872-4.035,15.009,0.898c0.897-2.659,4.828-3.148,7.078-1.458c2.251,1.69,3.102,4.653,3.452,7.44
		c3.172-1.166,6.729,1.375,7.906,4.536c1.178,3.172,0.63,6.682,0.07,10.005c2.717,0.141,5.224,2.169,5.936,4.793
		c0.712,2.612-0.432,5.633-2.694,7.126C206.499,205.417,208.248,208.787,207.84,212.297z"/>
	<path fill="#578A38" d="M217.087,327.623c-0.799,2.961-4.669,4.936-7.176,3.181c0.126,2.804-1.128,5.468-3.102,7.441
		c-2.351,2.366-5.75,3.744-9.056,3.134c0.392,2.616-0.235,5.342-1.645,7.598c-0.643,1.05-1.441,1.99-2.397,2.758
		c-2.992,2.444-7.301,3.181-10.951,1.849c0.894,3.337-0.454,7.16-3.243,9.181c-2.788,2.021-6.846,2.131-9.729,0.235
		c2.93,4.527-1.473,11.608-6.815,10.998c-0.939-0.11-1.927-0.393-2.788-0.031c-0.956,0.376-1.457,1.425-2.037,2.287
		c-1.802,2.741-5.186,4.354-8.46,4.026c-2.271-0.22-4.418-1.379-5.938-3.103c-0.643-0.736-1.175-1.582-1.551-2.506
		c0.172,1.551-0.424,3.008-1.441,4.183c-1.05,1.222-2.554,2.114-4.121,2.46c-0.783,0.172-1.582,0.234-2.381,0.203
		c-2.334-0.031-4.685-0.799-6.862-1.692c1.144,0.627,1.583,1.959,1.426,3.259c-0.125,1.019-0.595,2.037-1.395,2.695
		c-1.802,1.473-4.418,1.473-6.689,0.924c-1.206-0.282-2.365-0.721-3.54-1.097c-1.05-0.345-2.115-0.674-3.196-0.83
		c0.298,0.423,0.517,0.877,0.658,1.348c1.097,3.65-2.46,8.146-6.549,8.46c-4.058,0.282-7.739-2.162-10.481-5.248
		c-0.392-0.424-0.752-0.862-1.097-1.316c0.126,0.485,0.173,0.986,0.157,1.473c-0.062,2.365-1.583,4.669-3.808,5.483
		c-2.679,0.986-6.016-0.345-7.269-2.93c0.266,2.585-1.129,5.264-3.416,6.518c-2.053,1.097-4.716,0.986-6.674-0.251
		c2.053,1.896,0.736,6.204-2.1,7.223c-0.312,0.109-0.626,0.203-0.955,0.266c-0.689,0.142-1.379,0.157-2.084,0.063
		c-2.162-0.235-4.309-1.395-6.11-2.742c-1.849,2.93-5.687,4.449-9.055,3.556c-3.353-0.877-5.954-4.104-6.11-7.566
		c-2.992,3.212-9.071,0.674-10.23-3.557c-1.175-4.229,1.206-8.711,4.418-11.734c-4.527,1.316-9.979-0.188-12.486-4.183
		c-2.491-3.979-0.986-10.199,3.415-11.892c-4.37,0.925-9.228-1.3-11.374-5.232c-2.146-3.916-1.409-9.212,1.724-12.392
		c-4.981-0.142-10.262-2.021-12.909-6.251c-2.647-4.215-1.285-10.904,3.415-12.55c-4.058-0.972-6.752-5.655-5.78-9.682
		c0.062-0.267,0.141-0.532,0.234-0.799c0.533-1.379,1.504-2.554,2.711-3.384c1.049-0.753,2.271-1.27,3.524-1.473
		c1.646-0.313,3.368-0.11,4.856,0.673c-2.35-1.802-2.585-5.749-0.47-7.817c2.131-2.053,6.079-1.691,7.786,0.721
		c2.601-8.1,17.202-2.867,15.166,5.342c2.35-0.312,4.716,0.471,6.58,1.912c2.303,1.786,3.807,4.605,3.431,7.614
		c2.741-0.36,6.016,0.485,7.05,3.039c0.83,2.021-1.175,4.559-3.055,4.559c1.802,1.003,3.039,2.977,3.07,5.045
		c0.016,2.554-1.849,5.014-4.324,5.688c2.68-0.032,5.265,1.801,6.126,4.339c0.862,2.522-0.078,5.562-2.209,7.16
		c4.856-3.729,12.675-2.711,16.435,2.146c2.726-1.348,5.608-2.711,8.664-2.727c3.039,0,6.345,1.771,7.003,4.747
		c2.992-3.524,9.274-3.462,12.188,0.142c-1.097-3.087,0.172-6.862,2.93-8.648c2.741-1.802,6.689-1.441,9.087,0.783
		c0-4.058,2.318-8.021,5.843-10.026c3.525-2.006,8.116-1.975,11.609,0.078c-0.83-3.196,0.83-6.878,3.791-8.351
		s6.894-0.611,8.946,1.975c-1.223-3.103-0.454-6.862,1.864-9.244c2.318-2.381,6.078-3.227,9.196-2.067
		c-1.802-3.008-1.614-7.065,0.407-9.901c2.037-2.836,5.844-4.293,9.243-3.557c0.815-4.34,1.817-9.024,5.202-11.828
		c1.629-1.348,3.947-1.849,6.031-1.535c2.256,0.345,4.214,1.676,4.652,3.916c-0.141-3.055,2.131-5.843,4.936-7.065
		c2.805-1.222,6-1.112,9.009-0.548c3.164,0.579,6.47,1.801,8.303,4.465c1.833,2.647,1.41,6.987-1.535,8.35
		c2.601-0.203,5.186,1.787,5.671,4.34c0.471,2.554-1.222,5.343-3.713,6.079c1.692,0.532,3.416,1.05,5.045,1.786
		c1.159,0.532,2.287,1.159,3.29,1.989C216.241,321.467,217.886,324.662,217.087,327.623z"/>
	<path fill="#578A38" d="M144.623,296.901c-1.166,4.933-7.207,8.047-11.895,6.134c1.003,4.583-0.583,9.656-4.023,12.852
		c-3.44,3.184-8.618,4.385-13.119,3.031c0.28,2.986-1.225,6.064-3.755,7.674s-5.959,1.667-8.548,0.151
		c-0.595-0.338-1.201-0.781-1.89-0.746c-0.84,0.047-1.457,0.781-2.052,1.388c-3.032,3.044-8.315,3.476-11.79,0.968
		c-1.294-0.933-2.402-2.239-3.953-2.624c-1.271-0.314-2.589,0.059-3.884,0.187c-3.661,0.373-7.451-1.388-9.539-4.419
		c-2.087-3.021-2.379-7.195-0.734-10.484c-5.714-0.279-10.658-5.69-10.438-11.404c0.082-2.088,0.84-4.07,2.064-5.75
		c2.11-2.927,5.598-4.909,9.225-4.815c-3.639-2.893-1.411-9.353,2.821-11.277c4.222-1.924,9.144-0.793,13.645,0.361
		c-2.426-2.67-2.693-7.055-0.606-10.005c2.099-2.939,6.32-4.152,9.644-2.741c-4.291-1.807,3.195-8.979,4.747-9.69
		c4.688-2.134,9.387-0.793,11.323,4.269c0.862,2.273,1.015,4.746,1.131,7.172c0.898-3.219,1.854-6.543,3.941-9.154
		c4.314-5.411,18.099-4.781,16.104,4.432c4.524,1.294,8.548,4.209,9.982,8.746c0.198,0.548,0.338,1.131,0.432,1.726
		c0.862,5.225-2.006,10.845-6.729,13.212C141.777,286.477,145.789,291.969,144.623,296.901z"/>
	<path fill="#578A38" d="M367.439,128.125c-2.997,1.388-6.589-0.012-9.154-2.076c-0.968,2.519-4.233,3.86-6.693,2.74
		c-2.461-1.119-3.592-4.466-2.321-6.845c-4.629,1.388-9.655-4.128-7.836-8.618c-3.79,1.901-9.05-0.548-10.029-4.676
		c-2.705,1.947-6.811,1.609-9.154-0.758c-0.047,2.46-1.819,4.804-4.187,5.492c-2.262,0.653-4.874-0.245-6.273-2.11
		c2.029,2.927-0.828,7.486-4.455,8.023c-3.743,0.56-7.312-1.726-10.075-4.292c-0.385,3.067-3.627,5.469-6.683,4.956
		c-3.055-0.513-5.329-3.837-4.688-6.869c-2.461,2.227-6.683,2.134-9.05-0.198s-2.519-6.554-0.314-9.049
		c-3.44,1.189-7.021-2.414-6.997-6.029c0-0.35,0.035-0.688,0.116-1.038c0.84-3.895,4.968-6.402,8.957-6.624
		c-2.741-1.435-2.018-6.087,0.723-7.533c2.74-1.446,6.181-0.42,8.723,1.364c-3.09-8.734,10.74-10.087,13.527-2.776
		c0.979-2.624,2.683-5.341,5.423-6.343c2.764-1.015,6.507,0.629,6.729,3.556c0.746-2.962,3.778-5.166,6.834-4.956
		c3.043,0.21,5.749,2.811,6.075,5.842c1.737-2.927,5.982-3.603,9.05-2.145c3.078,1.469,5.096,4.524,6.367,7.685
		c5.924-0.747,11.848,4.7,11.603,10.67c2.694-1.54,6.321,0.093,7.977,2.717c1.656,2.636,1.808,5.913,1.737,9.015
		c2.473-0.385,5.085,0.746,6.659,2.67c0.455,0.571,0.816,1.201,1.073,1.877c1.131,3.032-0.129,6.775-2.869,8.501
		C371.253,121.641,370.437,126.749,367.439,128.125z"/>
	<path fill="#578A38" d="M266.45,453.982c1.844,1.201,3.348,3.102,3.639,5.294c0.292,2.181-0.827,4.606-2.868,5.434
		c2.74,1.167,3.825,4.887,2.589,7.592c-1.236,2.718-4.28,4.327-7.266,4.396c-2.985,0.059-5.865-1.201-8.291-2.938
		c-0.828-0.606-1.866-1.294-2.787-0.84c-0.455,0.222-0.746,0.688-1.003,1.132c-2.449,4.116-3.568,9.096-8.839,9.702
		c-3.803,0.443-9.097-1.609-10.752-5.329c1.644,3.649-0.63,8.314-4.327,9.877c-3.685,1.562-8.187,0.314-11.078-2.461
		c-2.893-2.764-4.326-6.798-4.63-10.798c-3.871,6.122-8.536,12.804-15.661,14.063c-7.896,1.399-16.034-6.146-15.241-14.122
		c-4.525,3.195-10.169,5.831-15.464,4.21c-6.798-2.088-9.609-11.93-4.933-17.294c-3.23-0.969-6.146-2.928-8.244-5.562
		c-0.502-0.618-0.98-1.342-0.957-2.146c0-0.407,0.141-0.793,0.361-1.154v-0.012c0.21-0.361,0.49-0.688,0.781-0.991
		c3.686-3.72,10.158-4.221,14.379-1.107c-0.023-2.881,0.606-6.053,2.893-7.802c2.273-1.749,6.461-0.816,6.821,2.029
		c0.642-1.446,1.307-2.927,2.38-4.094c2.564-2.81,7.416-3.137,10.297-0.641c2.892,2.483,3.276,7.358,0.793,10.25
		c2.729-3.405,6.192-6.67,10.53-7.172c3.58-0.408,7.545,2.088,8.279,5.388c0.63-3.557,4.653-6.402,8.478-6.239
		c4.572,0.198,8.49,3.359,11.464,6.846c0.233-4.852,1.376-9.655,3.347-14.099c0.514-1.154,1.12-2.332,2.157-3.066
		c1.982-1.389,4.887-0.584,6.565,1.154c1.68,1.737,2.438,4.15,3.103,6.483c-5.12-17.865,22.553-12.058,14.88,0.42
		c1.737-2.041,4.816-2.647,7.358-1.796c2.11,0.723,3.849,2.297,4.991,4.222c0.245,0.385,0.455,0.793,0.641,1.201
		c0.898,1.982,1.26,4.303,0.525,6.355C270.626,452.407,268.62,454.075,266.45,453.982z"/>
	<path fill="#578A38" d="M376.139,385.553c-1.154,4.046-5.97,6.623-9.981,5.341c3.218,2.845,3.859,8.151,1.422,11.673
		c-2.437,3.521-7.626,4.793-11.416,2.787c2.099,3.859,2.075,9.107-0.957,12.291c-2.787,2.916-8.197,2.985-10.658-0.023
		c2.355,3.896,1.784,9.399-1.435,12.653c-3.476,3.498-9.598,3.93-13.527,0.933c1.306,4.116-1.399,9.049-5.586,10.146
		c-4.175,1.096-8.956-1.878-9.83-6.1c-2.461,2.484-6.554,3.522-9.598,1.982c-0.304-0.15-0.595-0.326-0.875-0.524
		c-3.113-2.262-3.113-7.941,0.385-9.539c-3.498,0.198-6.063-4.151-4.851-7.439c1.213-3.301,5.061-5.062,8.56-4.77
		c-3.114-1.552-3.802-6.169-1.796-9.003c1.994-2.846,5.912-3.895,9.317-3.195c-2.379-2.064-1.621-6.263,0.805-8.279
		c2.414-2.018,5.819-2.355,8.968-2.216c-2.752-1.552-3.755-5.574-2.029-8.233c1.714-2.659,5.784-3.417,8.338-1.539
		c-2.892-1.959-3.836-6.31-2.018-9.294c1.819-2.997,6.111-4.151,9.189-2.484c-3.078-1.924-4.641-5.994-3.639-9.48
		c1.015-3.499,4.514-6.111,8.151-6.088c-2.519-1.003-5.061-2.472-6.273-4.897s-0.42-5.971,2.146-6.869
		c-3.323,0.117-6.717,0.233-9.912-0.688s-6.216-3.056-7.347-6.181c-1.12-3.125,0.269-7.195,3.405-8.303
		c-3.056,0.232-6.251,0.21-9.003-1.12c-2.752-1.329-4.909-4.314-4.408-7.323c0.408-2.46,3.103-4.35,5.411-3.965
		c-2.11-1.353-3.113-4.408-2.239-6.845c1.062-2.963,4.245-4.828,7.394-4.969c3.148-0.14,6.204,1.189,8.781,3.009
		c-1.178-3.475,2.997-6.134,5.982-5.644c4.385,0.734,4.222,5.096,5.341,8.442c-0.21-2.554,2.473-4.77,5.015-4.478
		c2.554,0.291,4.56,2.624,4.991,5.143c0.42,2.53-0.524,5.143-2.064,7.195c4.21-1.493,9.621-1.318,12.314,2.25
		c0.537,0.724,0.944,1.587,0.968,2.496c0.047,1.516-1.259,2.834-2.717,3.137c0.583,0.07,1.154,0.163,1.715,0.304
		c0.862,0.198,1.69,0.501,2.448,0.968c3.323,2.063,4.408,10.146-0.292,11.545c3.405-1.015,6.939,2.414,7.032,5.959
		c0.105,3.557-2.297,6.752-5.166,8.851c2.402-0.851,4.897,1.738,4.933,4.28c0.035,2.554-1.551,4.805-3.184,6.764
		c2.997-0.514,6.204,1.714,6.752,4.711c0.561,2.985-1.632,6.216-4.605,6.811C374.576,376.771,377.294,381.494,376.139,385.553z"/>
	<path fill="#578A38" d="M424.326,278.681c3.666,1.707,6.627,5.499,6.251,9.541c-0.392,4.042-5.045,7.395-8.695,5.64
		c3.07,1.974,5.279,5.656,4.59,9.243c-0.688,3.588-4.919,6.33-8.209,4.763c2.334,1.864,2.961,5.562,1.363,8.084
		c-1.582,2.554-5.186,3.604-7.881,2.304c0.768,3.055-1.817,6.438-4.903,6.643c-0.141,0.016-0.282,0.016-0.423,0.016
		c-3.29-0.078-5.953-3.775-4.982-6.909c-2.883,0.987-6.423-0.689-7.441-3.557c-0.22-0.595-0.313-1.237-0.313-1.864
		c0-2.381,1.52-4.778,3.775-5.624c-3.102,1.41-7.237,0.783-9.274-1.958c-2.053-2.727-1.065-7.396,2.162-8.523
		c-4.183,1.441-9.525-1.19-10.277-5.546c-0.674-3.791,3.039-7.646,6.689-7.379c-1.911-0.799-3.353-2.647-3.76-4.685
		c-0.188-0.861-0.172-1.771,0.078-2.632c0.909-3.086,4.638-4.95,7.692-4.026c-1.724-0.877-2.679-2.852-2.757-4.888
		c-0.078-1.363,0.25-2.742,0.986-3.87c0.345-0.517,0.736-0.986,1.176-1.394v-0.017c2.161-2.067,5.42-2.961,8.491-3.07
		c-2.695-1.41-3.744-5.248-2.178-7.849c0.329-0.533,0.705-0.956,1.128-1.285c1.974-1.645,4.872-1.395,7.19-0.548
		c-3.618-6.235-8.647-14.539,0.048-19.912c1.817-1.113,4.12-1.692,6.125-0.956c0.188,0.078,0.36,0.141,0.533,0.234
		c1.802,0.925,3.023,2.852,3.524,4.857c0.564,2.178,0.392,4.48,0.204,6.736c0.517-0.987,1.05-1.989,1.771-2.836
		c0.329-0.407,0.689-0.768,1.112-1.065c1.66-1.206,3.995-1.175,5.812-0.219c0.752,0.407,1.426,0.987,1.896,1.707
		c0.078,0.095,0.125,0.188,0.188,0.282c1.521,2.647,0.392,6.408-2.271,7.896c1.097,0.657,2.413-0.282,3.697-0.549
		c0.392-0.094,0.768-0.109,1.144-0.016c0.799,0.204,1.348,0.94,1.724,1.677c1.786,3.446,1.05,8.021-1.739,10.716
		c2.727,1.708,4.48,4.872,4.449,8.084c0,0.485-0.438,1.708-1.128,3.228C429.997,273.291,426.237,279.573,424.326,278.681z"/>
	<path fill="#578A38" d="M409.747,211.481c-1.504,3.428-6.95,4.548-9.178,1.539c1.038,3.394-2.262,6.833-5.761,7.475
		c-2.682,0.479-5.679-0.268-7.486-2.32s-2.099-5.435-0.314-7.499c-3.067,0.793-6.577-0.676-8.151-3.416
		c-1.587-2.741-1.097-6.519,1.131-8.77c-1.924-0.175-3.708-1.143-5.038-2.543c-1.458-1.504-2.379-3.521-2.391-5.62
		c-0.012-4.035,3.37-7.79,7.382-8.21c-4.909,0.513-6.122-7.696-5.084-10.67c1.119-3.172,3.79-5.831,7.043-6.612
		c4.326-1.038,22.157,2.962,14.868,9.971c2.531-0.128,5.062,1.341,6.251,3.568c0.117,0.198,0.222,0.408,0.304,0.618
		c1.037,2.554,0.291,5.737-1.784,7.568c3.906,1.003,7.977,3.021,9.538,6.74c1.575,3.731-1.084,9.084-5.106,8.676
		C409.246,203.784,411.264,208.053,409.747,211.481z"/>
	<path fill="#508134" d="M217.087,327.623c-0.799,2.961-4.669,4.936-7.176,3.181c0.126,2.804-1.128,5.468-3.102,7.441
		c-2.351,2.366-5.75,3.744-9.056,3.134c0.392,2.616-0.235,5.342-1.645,7.598c-0.643,1.05-1.441,1.99-2.397,2.758
		c-2.992,2.444-7.301,3.181-10.951,1.849c0.894,3.337-0.454,7.16-3.243,9.181c-2.788,2.021-6.846,2.131-9.729,0.235
		c2.93,4.527-1.473,11.608-6.815,10.998c-0.939-0.11-1.927-0.393-2.788-0.031c-0.956,0.376-1.457,1.425-2.037,2.287
		c-1.802,2.741-5.186,4.354-8.46,4.026c-2.271-0.22-4.418-1.379-5.938-3.103c-0.643-0.736-1.175-1.582-1.551-2.506
		c0.172,1.551-0.424,3.008-1.441,4.183c-1.05,1.222-2.554,2.114-4.121,2.46c-0.783,0.172-1.582,0.234-2.381,0.203
		c-2.334-0.031-4.685-0.799-6.862-1.692c1.144,0.627,1.583,1.959,1.426,3.259c-0.125,1.019-0.595,2.037-1.395,2.695
		c-1.802,1.473-4.418,1.473-6.689,0.924c-1.206-0.282-2.365-0.721-3.54-1.097c-1.05-0.345-2.115-0.674-3.196-0.83
		c0.298,0.423,0.517,0.877,0.658,1.348c1.097,3.65-2.46,8.146-6.549,8.46c-4.058,0.282-7.739-2.162-10.481-5.248
		c-0.392-0.424-0.752-0.862-1.097-1.316c0.126,0.485,0.173,0.986,0.157,1.473c-0.062,2.365-1.583,4.669-3.808,5.483
		c-2.679,0.986-6.016-0.345-7.269-2.93c0.266,2.585-1.129,5.264-3.416,6.518c-2.053,1.097-4.716,0.986-6.674-0.251
		c2.053,1.896,0.736,6.204-2.1,7.223c-0.312,0.109-0.626,0.203-0.955,0.266c-0.689,0.142-1.379,0.157-2.084,0.063
		c-2.162-0.235-4.309-1.395-6.11-2.742c-1.849,2.93-5.687,4.449-9.055,3.556c-3.353-0.877-5.954-4.104-6.11-7.566
		c-2.992,3.212-9.071,0.674-10.23-3.557c-1.175-4.229,1.206-8.711,4.418-11.734c-4.527,1.316-9.979-0.188-12.486-4.183
		c-2.491-3.979-0.986-10.199,3.415-11.892c-4.37,0.925-9.228-1.3-11.374-5.232c-2.146-3.916-1.409-9.212,1.724-12.392
		c-4.981-0.142-10.262-2.021-12.909-6.251c-2.647-4.215-1.285-10.904,3.415-12.55c-4.058-0.972-6.752-5.655-5.78-9.682
		c0.062-0.267,0.141-0.532,0.234-0.799c0.533-1.379,1.504-2.554,2.711-3.384c1.582,0.031,3.008,0.234,4.183,0.704
		c0.736,0.267,1.363,0.643,1.849,1.113c0.141,0.125,0.267,0.266,0.376,0.407c0.752,0.971,1.003,2.225,1.222,3.415
		c0.518,2.883,0.925,5.781,1.254,8.694c0.125,1.176,0.234,2.351,0.329,3.541c0.25-0.25,0.532-0.423,0.846-0.548
		c1.52-0.643,3.572,0.094,4.59,1.488c1.238,1.691,1.348,3.948,1.191,6.016c1.802-0.392,3.556,1.19,4.058,2.961
		c0.501,1.786,0.078,3.682-0.36,5.468c0,0.031,3.462,3.635,3.775,4.152c1.144,1.927,1.708,4.041,2.006,6.234
		c1.488-2.647,4.449-0.736,5.515,1.27c0.971,1.833,1.3,4.026,0.893,6.078c1.582-0.234,3.196-0.454,4.731-0.078
		c2.35,0.58,3.886,2.789,3.933,5.139c0.031,1.441-0.235,2.914-0.752,4.262c1.206-2.068,4.527-2.413,6.125-0.643
		c1.739,1.911,2.867,5.828,2.491,8.351c2.209-1.473,5.405-1.175,7.363,0.611c-1.331-1.41,0.251-4.105,2.271-4.34
		c2.084-0.235,3.979,1.128,5.625,2.412c0.078-1.974,1.582-3.807,3.493-4.261c1.927-0.455,4.073,0.501,5.045,2.209
		c0.047-1.614,2.365-2.115,3.822-1.441c1.473,0.674,2.633,2.005,4.199,2.396c-0.188-2.49,2.303-4.512,4.778-4.746
		c3.008-0.298,4.825,1.566,7.582,1.88c0.063-2.225,1.646-4.324,3.776-4.998c2.131-0.658,4.637,0.172,5.953,1.958
		c-0.282-2.616,1.473-5.311,3.979-6.125c0.251-0.079,0.501-0.142,0.768-0.173c0.298-0.062,0.595-0.078,0.894-0.078
		c2.052,0,4.12,1.081,5.153,2.883c1.097-3.118,2.789-6.753,6.079-7.16c3.321-0.407,5.844,2.758,8.695,4.513
		c0.501-1.426-0.486-3.04,0-4.466c0.517-1.551,2.632-2.067,4.151-1.44c1.504,0.626,2.569,2.005,3.557,3.32
		c-0.58-2.256,0.595-4.825,2.647-5.875c2.006-1.034,4.637-0.532,6.157,1.113c0.062,0.062,0.125,0.125,0.172,0.188
		c-0.016-0.109-0.031-0.22-0.047-0.345c-0.235-1.833-1.081-4.591-0.61-6.235c0.156-0.533,0.344-1.081,0.768-1.457
		c0.626-0.58,1.598-0.58,2.443-0.423c1.457,0.25,2.852,0.877,4.026,1.786c0.799,0.596,1.488,1.332,2.053,2.162
		c-0.048-1.144,0-2.288,0.172-3.416c0.36-2.459,1.238-4.856,2.569-6.956c0.36-0.595,0.814-1.19,1.457-1.425
		c1.739-0.627,2.318,2.428,3.134,1.738c0.83-0.721,0.485-2.052,0.517-3.164c0.062-3.65,6.376-4.81,7.63-1.395
		c-1.05-2.476-0.031-5.656,2.256-7.065c2.287-1.426,5.577-0.925,7.348,1.128c-1.457-3.854,3.243-8.335,7.034-6.706
		c-2.365-0.83-3.29-4.229-1.691-6.141c1.613-1.896,5.123-1.567,6.345,0.595c-1.112-2.052-1.332-4.559-0.611-6.768
		c0.894,0,1.802,0.141,2.647,0.423c1.614,0.517,3.087,1.488,4.121,2.82c-0.376-2.084,0.689-4.23,2.365-5.452
		c1.159,0.532,2.287,1.159,3.29,1.989C216.241,321.467,217.886,324.662,217.087,327.623z"/>
	<path fill="#508134" d="M40.322,346.09c-3.752,0-3.758,5.831,0,5.831C44.074,351.921,44.081,346.09,40.322,346.09z"/>
	<path fill="#508134" d="M44.112,329.764c-3.752,0-3.758,5.831,0,5.831C47.864,335.595,47.87,329.764,44.112,329.764z"/>
	<path fill="#508134" d="M34.2,324.516c-3.752,0-3.758,5.831,0,5.831C37.952,330.347,37.958,324.516,34.2,324.516z"/>
	<path fill="#508134" d="M73.85,367.372c-3.752,0-3.758,5.831,0,5.831C77.602,373.203,77.607,367.372,73.85,367.372z"/>
	<path fill="#508134" d="M137.404,350.463c-3.752,0-3.758,5.831,0,5.831C141.156,356.294,141.163,350.463,137.404,350.463z"/>
	<path fill="#508134" d="M119.329,365.04c-3.752,0-3.758,5.83,0,5.83C123.081,370.87,123.087,365.04,119.329,365.04z"/>
	<path fill="#508134" d="M191.339,321.309c-3.752,0-3.758,5.831,0,5.831C195.091,327.14,195.097,321.309,191.339,321.309z"/>
	<path fill="#508134" d="M177.637,309.064c-3.752,0-3.758,5.831,0,5.831C181.389,314.896,181.395,309.064,177.637,309.064z"/>
	<path fill="#508134" d="M144.623,296.901c-1.166,4.933-7.207,8.047-11.895,6.134c1.003,4.583-0.583,9.656-4.023,12.852
		c-3.44,3.184-8.618,4.385-13.119,3.031c0.28,2.986-1.225,6.064-3.755,7.674s-5.959,1.667-8.548,0.151
		c-0.595-0.338-1.201-0.781-1.89-0.746c-0.84,0.047-1.457,0.781-2.052,1.388c-3.032,3.044-8.315,3.476-11.79,0.968
		c-1.294-0.933-2.402-2.239-3.953-2.624c-1.271-0.314-2.589,0.059-3.884,0.187c-3.661,0.373-7.451-1.388-9.539-4.419
		c-2.087-3.021-2.379-7.195-0.734-10.484c-5.714-0.279-10.658-5.69-10.438-11.404c0.082-2.088,0.84-4.07,2.064-5.75
		c0.852,2.846,1.073,6.1,4.805,7.382c2.811,0.969,6.554,0.514,8.104,3.044c1.119,1.854,0.326,4.291,1.003,6.332
		c0.921,2.811,4.968,3.965,7.242,2.064c0.816-0.688,1.399-1.668,2.332-2.204c3.755-2.157,7.253,3.137,8.56,5.889
		c0.07-3.16,0.548-6.32,1.435-9.353c0.536-1.865,1.329-3.813,2.974-4.862c2.332-1.505,5.609-0.514,7.545,1.469
		c1.947,1.994,2.868,4.724,3.731,7.37c-0.198-2.297,1.574-4.396,3.686-5.329c2.11-0.933,4.489-0.956,6.798-0.968
		c-2.822-2.263-3.824-6.519-2.297-9.808c1.516-3.288,5.411-5.282,8.956-4.606c-2.391-3.031-3.288-7.486-1.353-10.833
		s7.102-4.63,9.889-1.947c-0.711-2.893,2.204-5.505,5.107-6.158c1.132-0.256,2.298-0.314,3.44-0.186
		c0.198,0.548,0.338,1.131,0.432,1.726c0.862,5.225-2.006,10.845-6.729,13.212C141.777,286.477,145.789,291.969,144.623,296.901z"/>
	<path fill="#508134" d="M84.834,218.233c-0.35,4.338-5.212,7.685-9.387,6.46c3.276,2.239,4.187,7.276,1.9,10.519
		c-2.285,3.242-7.335,4.082-10.542,1.75c3.872,3.323,4.082,10.052,0.408,13.597s-10.391,3.114-13.574-0.875
		c1.166,3.452-0.991,7.662-4.466,8.735c-3.487,1.072-7.639-1.178-8.63-4.688c-0.699,3.195-3.592,5.026-6.6,5.656
		c-0.934,0.198-9.365-0.42-8.152-2.461c-1.376,2.32-4.711,3.207-7.066,1.89c-2.355-1.33-3.335-4.63-2.076-7.021
		c-2.367,0.793-5.225-0.338-6.413-2.542c-1.179-2.192-0.549-5.201,1.41-6.741c-2.985,1.843-7.37-0.256-8.314-3.638
		c-0.933-3.382,1.213-7.137,4.385-8.618c-3.708,0.314-7.382-2.775-7.696-6.495c-0.269-3.335,2.192-6.636,5.399-7.487
		c0.606,0.28,1.189,0.665,1.749,1.189c2.134,1.994,2.903,5.015,3.568,7.86c0.618-1.026,2.228-1.026,3.16-0.292
		c0.944,0.747,1.364,1.96,1.645,3.126c0.921,3.755,0.933,7.731,0.047,11.486c2.075,0.012,3.93,1.492,4.968,3.3
		c1.049,1.796,1.435,3.896,1.796,5.947c0.187-1.726,2.273-2.705,3.977-2.379c1.702,0.327,3.078,1.552,4.361,2.729
		c-0.537-1.656,0.069-3.627,1.457-4.688c1.388-1.05,3.452-1.119,4.91-0.163c-0.887-1.737-0.222-4.116,1.434-5.143
		c1.517-0.944,3.662-0.653,4.922,0.618c-0.805-1.213,0.069-3.242,1.562-3.743c1.645-0.561,3.452,0.21,4.852,1.259
		c1.388,1.05,2.588,2.379,4.14,3.161c-0.151-1.586,2.11-2.438,3.498-1.656c1.376,0.781,1.994,2.414,2.507,3.93
		c-0.396-2.157-0.77-4.489,0.245-6.426c1.026-1.936,4.07-2.856,5.399-1.119c-0.571-1.68-1.154-3.429-0.968-5.189
		c0.175-1.772,1.329-3.568,3.067-3.895c1.621-0.304,3.195,0.688,4.385,1.818c-0.677-1.796-1.354-3.767-0.735-5.574
		c0.747-2.181,3.207-3.382,5.505-3.393c2.297-0.013,4.489,0.921,6.6,1.83c-0.361-1.504,0.233-2.997,1.307-4.093
		C84.857,217.253,84.869,217.743,84.834,218.233z"/>
	<path fill="#508134" d="M192.552,227.364c-0.082,1.235-0.385,2.414-1.084,3.417c-1.189,1.69-3.884,2.413-5.33,0.956
		c1.201,1.469,1.295,3.743,0.198,5.294c-1.084,1.551-3.253,2.251-5.037,1.609c0.641,3.429-2.228,7.09-5.715,7.276
		c-3.486,0.187-6.729-3.148-6.448-6.623c-2.881,1.166-6.496,0.886-8.665-1.342c-2.157-2.215-2.04-6.483,0.642-8.046
		c-2.67-3.487-0.548-9.446,3.721-10.472c-1.843-2.286-1.155-6.146,1.364-7.662c-3.103-0.642-5.307-4.104-4.571-7.195
		c-2.146,1.598-5.621,0.898-6.974-1.411c0.222,3.825-2.962,7.533-6.775,7.872c-0.129,2.577-0.537,5.271-2.123,7.288
		c-1.598,2.018-4.711,3.032-6.821,1.562c1.329,3.103,0.104,7.079-2.741,8.886c-2.845,1.809-6.962,1.236-9.2-1.294
		c-1.971,3.277-4.677,6.414-8.361,7.464c-3.674,1.037-8.35-0.875-9.119-4.618c-3.044,0.618-6.31-0.746-8.28-3.125
		c1.353-2.158,3.347-3.604,5.947-3.266c1.89,0.233,3.627,1.131,5.307,2.006c0.629-0.945,0.128-2.181,0.081-3.312
		c-0.104-2.449,2.135-4.49,4.525-5.026c2.39-0.524,4.874,0.069,7.241,0.676c-0.665-2.216,0.187-4.805,2.029-6.192
		c1.854-1.376,4.583-1.457,6.507-0.175c0.269-2.74,1.085-5.586,3.125-7.439c2.041-1.854,5.539-2.263,7.452-0.28
		c-0.56-3.685,1.399-7.626,4.688-9.388c3.277-1.772,7.639-1.247,10.414,1.248c0.665-2.565,2.228-5.107,4.711-6.018
		c2.484-0.909,5.831,0.571,6.11,3.207c0.537-2.157,3.395-3.207,5.389-2.216c1.994,0.979,2.95,3.487,2.542,5.668
		c2.577-0.361,5.015,1.772,5.749,4.268c0.746,2.496,0.14,5.201-0.816,7.627c1.761-1.178,4.326,0.21,5.062,2.192
		c0.723,1.982,0.14,4.198-0.653,6.169c-1.271,3.137-3.044,6.075-5.236,8.664c1.481-1.049,3.93,0.21,3.941,2.029
		c0.688-1.609,2.718-2.344,4.42-1.947C190.838,225.953,191.782,226.571,192.552,227.364z"/>
	<path fill="#508134" d="M152.425,139.086c-0.012,1.236-0.023,2.508-0.479,3.662c-0.746,1.913-2.775,3.253-4.828,3.195
		c2.787,1.33,1.727,6.041-1.096,7.3c-2.822,1.26-6.099,0.187-8.956-0.979c2.542,2.636,1.062,7.475-2.122,9.271
		c-3.195,1.807-7.23,1.225-10.612-0.188c1.236,2.217,0.467,5.33-1.656,6.706c-2.134,1.376-5.282,0.805-6.798-1.236
		c0.303,2.483-2.508,4.432-4.991,4.245c-2.496-0.188-4.618-1.785-6.589-3.324c0.571,2.729-1.166,5.738-3.813,6.612
		c-2.636,0.863-5.819-0.524-6.985-3.056c-0.291,3.639-4.361,6.053-7.988,5.703c-3.627-0.361-6.729-2.74-9.247-5.376
		c-5.097,2.413-12.035-1.213-12.944-6.787c-2.041,2.367-6.344,0.7-7.464-2.216c-1.119-2.915-0.069-6.18,1.166-9.037
		c-2.693,0.128-5.399-1.424-6.658-3.813c-1.248-2.391-0.968-5.505,0.677-7.639c-3.336-0.07-6.975-1.049-8.828-3.813
		c-1.562-2.32-0.945-6.029,1.26-7.405c0.874,0.094,1.795,0.502,2.752,1.271c2.495,2.006,4.314,4.851,5.096,7.953
		c0.828-2.204,4.467-1.714,5.621,0.338c1.154,2.053,0.595,4.595-0.047,6.857c2.438-0.222,4.968,1.026,6.262,3.113
		c1.295,2.088,1.295,4.898,0.012,6.997c1.703-1.457,4.537-0.502,5.796,1.354c1.26,1.854,1.376,4.221,1.458,6.46
		c0.338-3.009,4.21-4.489,7.067-3.522c2.868,0.957,4.874,3.487,6.705,5.89c0.035-2.134,2.589-3.534,4.688-3.103
		c2.1,0.42,3.72,2.088,5.015,3.803c-0.314-1.937,0.023-4.117,1.481-5.412c1.457-1.294,4.197-1.084,4.968,0.712
		c-0.362-2.589,0.256-5.702,2.611-6.821c2.473-1.155,5.283,0.489,7.511,2.063c-0.315-2.192-0.373-4.956,1.574-6.029
		c1.458-0.804,3.3-0.14,4.641,0.828c1.354,0.979,2.508,2.263,4.059,2.88c-0.723-2.122,1.05-4.617,3.277-4.897
		c2.238-0.28,4.454,1.411,5.072,3.568c-0.28-1.516-0.548-3.079-0.269-4.595c0.292-1.516,1.271-2.997,2.753-3.439
		c2.67-0.782,4.968,2.006,6.262,4.478c0.198-2.81,1.353-5.551,3.219-7.673c0.606-0.688,1.329-1.33,2.228-1.504
		c0.897-0.175,1.959,0.292,2.157,1.189c0.84-3.72,2.682-7.976,6.448-8.594c0.117-0.024,0.233-0.036,0.339-0.036
		C152.413,136.381,152.437,137.757,152.425,139.086z"/>
	<path fill="#508134" d="M173.509,89.315c-1.189,1.049-2.787,1.54-4.35,1.773c1.784,0.081,3.195,1.877,3.125,3.661
		c-0.07,1.785-1.423,3.358-3.102,3.977c-1.668,0.629-3.568,0.385-5.189-0.338c0.781,2.064-1.015,4.501-3.207,4.816
		c-2.192,0.314-4.373-1.073-5.539-2.951c-0.688,2.274-3.615,3.568-5.762,2.531c-2.146-1.038-2.95-4.128-1.586-6.087
		c-1.842,0.816-4.162-0.443-4.827-2.332c-0.653-1.901,0.163-4.117,1.69-5.423c-1.842,0.163-3.696-1.236-4.046-3.044
		c-0.351-1.819,0.839-3.801,2.612-4.338c-0.619-0.175-1.108-0.571-1.446-1.108c2.519,0.222,4.746,2.368,4.163,5.062
		c0.42-0.829,1.796-1.096,2.635-0.537c0.98,0.676,1.318,1.982,1.377,3.184c0.058,1.189-0.082,2.426,0.291,3.568
		c2.601-0.059,5.073,2.006,5.539,4.56c-0.209-1.772,2.355-3.23,3.721-2.006c0.093-2.274,2.402-4.198,4.664-3.872
		c-1.178-1.189-1.282-3.277-0.244-4.583c1.037-1.317,3.078-1.691,4.513-0.828c-0.934-1.924,0.501-4.396,2.53-5.073
		c0.571-0.186,1.166-0.256,1.761-0.233c-0.63,1.213-1.457,2.414-1.772,3.72c1.353-0.816,3.3,0.14,3.813,1.633
		C175.386,86.551,174.687,88.266,173.509,89.315z"/>
	<path fill="#508134" d="M233.938,84.557c0.863,2.041-0.816,4.443-2.915,5.154c-2.1,0.723-4.396,0.233-6.542-0.314
		c-0.315,2.624-2.251,5.002-4.758,5.842c-2.52,0.828-5.493,0.093-7.324-1.831c-1.189,2.985-4.746,4.805-7.871,4.023
		c-1.353-0.35-2.577-1.107-3.941-1.434c-2.928-0.711-6.496,0.501-8.746-1.504c-2.228-1.994-1.435-5.597-0.467-8.419
		c-1.819,0.828-4.175,0.268-5.423-1.294c-1.247-1.575-1.259-3.988-0.046-5.574c0.839-1.096,2.285-2.262,1.702-3.522
		c-0.222-0.455-0.665-0.758-1.05-1.084c-0.944-0.816-1.516-1.982-1.69-3.207c1.9-1.539,4.478-2.041,5.341,0.898
		c1.131-1.003,2.95-0.292,3.533,0.98c0.618,1.329,0.304,2.869-0.035,4.279c0.198-0.431,0.863-0.455,1.225-0.151
		c0.361,0.315,0.479,0.816,0.524,1.294c0.094,0.945-0.022,1.901-0.35,2.799c2.1-0.956,4.863,1.096,4.56,3.37
		c-0.222,1.738-1.808,3.207-1.562,4.933c1.213-0.665,2.928-0.14,3.557,1.096c0.117-1.213,1.003-2.297,2.157-2.67
		c1.144-0.361,2.496,0.012,3.301,0.91c-0.42-1.54,1.598-2.846,3.137-2.402c1.54,0.443,2.53,1.901,3.323,3.289
		c-0.221-1.154,0.969-2.192,2.146-2.25c1.166-0.07,2.262,0.525,3.288,1.096c-0.257-0.98,0.116-2.087,0.91-2.729
		c0.78-0.63,1.958-0.746,2.856-0.28c-0.257-1.143,0.326-2.414,1.364-2.974c1.026-0.548,2.402-0.327,3.219,0.513
		c-0.257-1.586,0.361-3.289,1.574-4.338c1.213-1.049,2.985-1.422,4.524-0.944c-0.524-1.213,0.35-2.659,1.539-3.242
		c1.19-0.572,2.578-0.514,3.896-0.443c-0.047-0.128-0.081-0.256-0.116-0.385c0.56,0.863,0.933,1.842,1.038,2.88
		C240.189,80.441,237.437,84.009,233.938,84.557z"/>
	<path fill="#508134" d="M367.439,128.125c-2.997,1.388-6.589-0.012-9.154-2.076c-0.968,2.519-4.233,3.86-6.693,2.74
		c-2.461-1.119-3.592-4.466-2.321-6.845c-4.629,1.388-9.655-4.128-7.836-8.618c-3.79,1.901-9.05-0.548-10.029-4.676
		c-2.705,1.947-6.811,1.609-9.154-0.758c-0.047,2.46-1.819,4.804-4.187,5.492c-2.262,0.653-4.874-0.245-6.273-2.11
		c2.029,2.927-0.828,7.486-4.455,8.023c-3.743,0.56-7.312-1.726-10.075-4.292c-0.385,3.067-3.627,5.469-6.683,4.956
		c-3.055-0.513-5.329-3.837-4.688-6.869c-2.461,2.227-6.683,2.134-9.05-0.198s-2.519-6.554-0.314-9.049
		c-3.44,1.189-7.021-2.414-6.997-6.029c0.21-0.723,0.606-1.318,1.283-1.645c2.006-0.968,3.988,1.33,5.061,3.3
		c-0.233-1.341,1.201-2.542,2.554-2.414c1.354,0.128,2.438,1.248,2.928,2.507c0.501,1.271,0.513,2.659,0.524,4.012
		c0.933-0.77,2.438-0.723,3.323,0.093c0.898,0.816,1.062,2.309,0.385,3.312c1.295-0.758,3.044,0.163,3.709,1.504
		c0.653,1.353,0.536,2.927,0.408,4.42c0.338-1.154,1.621-1.819,2.811-1.808c1.201,0.012,2.32,0.572,3.358,1.178
		c-0.7-1.446-0.151-3.37,1.201-4.221c1.364-0.852,3.335-0.525,4.338,0.734c-0.933-0.933-0.198-2.74,1.073-3.09
		c1.259-0.362,2.635,0.385,3.416,1.446c-0.314-1.411-0.408-3.277,0.898-3.895c1.819-0.851,3.219,1.808,5.026,2.705
		c-0.724-1.469,0.804-3.3,2.437-3.288s3.009,1.353,3.615,2.869c-0.688-1.423,0.164-3.37,1.668-3.836
		c1.516-0.479,3.323,0.618,3.58,2.181c0.082-1.586,1.469-3.021,3.055-3.137c1.598-0.128,3.184,1.073,3.499,2.636
		c0.595-1.341,2.32-2.064,3.696-1.54c1.364,0.513,2.181,2.193,1.738,3.592c1.107-0.875,2.798-0.711,3.93,0.128
		c1.131,0.839,1.761,2.204,2.029,3.58c1.049-0.828,2.6-0.968,3.778-0.338c1.188,0.63,1.936,1.995,1.83,3.324
		c2.589,0.956,4.606,3.312,5.167,6.017c1.597-0.583,3.521-0.14,4.711,1.096c-0.665-1.084,0.746-2.344,2.006-2.425
		c1.271-0.082,2.589,0.385,3.767-0.059c1.586-0.595,2.146-2.484,3.09-3.883c1.05-1.562,2.752-2.565,4.606-2.95
		c0.455,0.571,0.816,1.201,1.073,1.877c1.131,3.032-0.129,6.775-2.869,8.501C371.253,121.641,370.437,126.749,367.439,128.125z"/>
	<path fill="#508134" d="M266.45,453.982c1.844,1.201,3.348,3.102,3.639,5.294c0.292,2.181-0.827,4.606-2.868,5.434
		c2.74,1.167,3.825,4.887,2.589,7.592c-1.236,2.718-4.28,4.327-7.266,4.396c-2.985,0.059-5.865-1.201-8.291-2.938
		c-0.828-0.606-1.866-1.294-2.787-0.84c-0.455,0.222-0.746,0.688-1.003,1.132c-2.449,4.116-3.568,9.096-8.839,9.702
		c-3.803,0.443-9.097-1.609-10.752-5.329c1.644,3.649-0.63,8.314-4.327,9.877c-3.685,1.562-8.187,0.314-11.078-2.461
		c-2.893-2.764-4.326-6.798-4.63-10.798c-3.871,6.122-8.536,12.804-15.661,14.063c-7.896,1.399-16.034-6.146-15.241-14.122
		c-4.525,3.195-10.169,5.831-15.464,4.21c-6.798-2.088-9.609-11.93-4.933-17.294c-3.23-0.969-6.146-2.928-8.244-5.562
		c-0.502-0.618-0.98-1.342-0.957-2.146c0-0.407,0.141-0.793,0.361-1.154v-0.012c2.135-1.644,5.609-0.478,7.568,1.552
		c2.1,2.169,3.371,5.096,5.715,6.996c1.388-1.282,3.848-0.478,4.781,1.154c0.933,1.645,0.699,3.697,0.128,5.493
		c-0.21,0.653-0.455,1.376-0.151,1.982c0.536,1.015,2.181,0.711,2.903-0.187c0.712-0.897,0.863-2.111,1.364-3.148
		c1.562-3.277,6.297-3.941,9.492-2.204s5.12,5.107,6.601,8.431c-0.151-2.46,2.659-4.361,5.085-3.941s4.279,2.508,5.259,4.77
		c-1.049-3.288,0.852-7.241,4.082-8.466s7.276,0.466,8.664,3.638c-0.093-1.818,2.367-2.856,4.035-2.122
		c1.656,0.735,2.612,2.473,3.452,4.082c-1.097-2.31,1.411-5.026,3.965-5.073c2.542-0.035,4.77,1.691,6.542,3.521
		c-0.373-0.909,0.711-1.865,1.69-1.784c0.98,0.094,1.762,0.816,2.461,1.505c1.551,1.504,3.102,3.021,4.642,4.524
		c-0.222-2.391,2.285-4.326,4.688-4.396c2.402-0.069,4.63,1.155,6.694,2.391c-1.4-2.483,0.209-5.854,2.752-7.137
		c2.542-1.282,5.621-0.933,8.326-0.047c-3.266-3.3-2.064-9.749,2.169-11.661c-1.213-3.941,1.667-8.314,5.539-9.749
		c0.35-0.128,0.688-0.245,1.05-0.338c0.245,0.385,0.455,0.793,0.641,1.201c0.898,1.982,1.26,4.303,0.525,6.355
		C270.626,452.407,268.62,454.075,266.45,453.982z"/>
	<path fill="#508134" d="M376.139,385.553c-1.154,4.046-5.97,6.623-9.981,5.341c3.218,2.845,3.859,8.151,1.422,11.673
		c-2.437,3.521-7.626,4.793-11.416,2.787c2.099,3.859,2.075,9.107-0.957,12.291c-2.787,2.916-8.197,2.985-10.658-0.023
		c2.355,3.896,1.784,9.399-1.435,12.653c-3.476,3.498-9.598,3.93-13.527,0.933c1.306,4.116-1.399,9.049-5.586,10.146
		c-4.175,1.096-8.956-1.878-9.83-6.1c-2.461,2.484-6.554,3.522-9.598,1.982c-0.047-0.723,0.104-1.445,0.443-2.075
		c0.909-1.714,2.95-2.647,4.897-2.554c-0.304-2.355,2.204-4.606,4.514-4.035c0.886,0.21,1.644,0.747,2.391,1.26
		c1.877,1.317,3.767,2.636,5.644,3.953c0-3.965,3.662-7.545,7.615-7.475c-1.283-1.54-1.668-3.778-1.003-5.668
		c0.676-1.889,2.402-3.37,4.373-3.755c0.42-0.082,0.874-0.128,1.213-0.385c0.979-0.781,0.093-2.286-0.141-3.51
		c-0.396-1.983,1.307-3.884,3.242-4.455s4.012-0.163,5.982,0.257c-0.443-2.473,0.77-5.155,2.927-6.438
		c2.157-1.283,5.097-1.062,7.044,0.514c-0.326-2.146,0.501-4.42,2.123-5.854c1.632-1.435,3.999-1.971,6.075-1.376
		c-0.909-2.216-0.805-4.84,0.303-6.974c0.233-0.455,0.525-0.944,0.455-1.446c-0.047-0.408-0.315-0.746-0.571-1.05
		c-0.758-0.909-1.598-1.772-2.064-2.856c-0.467-1.073-0.479-2.461,0.338-3.312c0.396-0.42,0.992-0.723,1.085-1.294
		c0.116-0.677-0.548-1.201-1.097-1.621c-1.632-1.236-2.915-3.032-3.206-5.062c-0.292-2.017,0.524-4.244,2.238-5.363
		c-1.306-1.388-2.39-3.067-2.658-4.957c-0.269-1.877,0.454-3.988,2.075-4.979c-1.037-0.862-1.994-1.959-2.203-3.288
		c-0.199-1.329,0.629-2.892,1.97-3.044c-0.372-1.947,2.624-2.029,2.951-3.988c0.069-0.443-0.047-0.897,0.035-1.329
		c0.35-1.784,3.02-1.307,4.583-0.385c0.093-2.367-0.514-4.746-1.715-6.787c-1.435,0.571-2.216-1.831-1.527-3.207
		c0.699-1.364,1.982-2.764,1.457-4.21c-0.268-0.734-0.944-1.224-1.388-1.865c-0.548-0.828-0.641-1.819-0.396-2.775
		c0.862,0.198,1.69,0.501,2.448,0.968c3.323,2.063,4.408,10.146-0.292,11.545c3.405-1.015,6.939,2.414,7.032,5.959
		c0.105,3.557-2.297,6.752-5.166,8.851c2.402-0.851,4.897,1.738,4.933,4.28c0.035,2.554-1.551,4.805-3.184,6.764
		c2.997-0.514,6.204,1.714,6.752,4.711c0.561,2.985-1.632,6.216-4.605,6.811C374.576,376.771,377.294,381.494,376.139,385.553z"/>
	<path fill="#508134" d="M424.326,278.681c3.666,1.707,6.627,5.499,6.251,9.541c-0.392,4.042-5.045,7.395-8.695,5.64
		c3.07,1.974,5.279,5.656,4.59,9.243c-0.688,3.588-4.919,6.33-8.209,4.763c2.334,1.864,2.961,5.562,1.363,8.084
		c-1.582,2.554-5.186,3.604-7.881,2.304c0.768,3.055-1.817,6.438-4.903,6.643c-0.141,0.016-0.282,0.016-0.423,0.016
		c-3.29-0.078-5.953-3.775-4.982-6.909c-2.883,0.987-6.423-0.689-7.441-3.557c-0.22-0.595-0.313-1.237-0.313-1.864
		c1.63,0.078,3.29,1.175,4.841,0.627c0.643-0.251,1.191-0.768,1.849-0.972c1.097-0.36,2.335,0.204,3.087,1.097
		c0.768,0.878,1.128,2.021,1.504,3.118c0.109-1.441,0.282-3.024,1.331-4.011c1.05-1.003,3.243-0.721,3.432,0.721
		c0.814-1.065,0.47-2.569,0.705-3.901c0.141-0.846,0.861-1.66,1.582-1.864c0.423-0.156,0.846-0.094,1.159,0.298
		c-0.313-0.533-0.579-1.081-0.814-1.661v-0.016c-0.564-1.426-0.83-2.961-0.423-4.418c0.282-1.05,1.034-2.005,1.958-2.569
		c0.878-0.548,1.911-0.752,2.883-0.407c-0.392-1.88-1.222-3.619-1.739-5.468c0-0.016-0.016-0.047-0.016-0.062
		c-0.517-1.833-0.673-3.854,0.204-5.53c0.203-0.392,0.485-0.752,0.83-1.05c1.081-1.019,2.711-1.473,3.995-0.768
		c-0.925-2.382-1.864-4.841-1.786-7.41c0.062-2.569,1.426-5.264,3.838-6.11c-0.297-0.251-0.548-0.532-0.768-0.846
		c-1.551-2.225-1.175-5.734,1.034-7.395c0.282-0.204,0.58-0.392,0.752-0.689c0.36-0.674-0.125-1.457-0.47-2.162
		c-1.582-3.228,0.392-6.987,2.303-10.058c-0.83-0.048-1.66-0.11-2.49-0.235c-1.285-0.204-2.522-0.564-3.572-1.316
		c-0.407-0.281-0.783-0.657-1.081-1.097c-0.94-1.315-1.222-3.117-0.251-4.355c0-0.016,0.016-0.03,0.031-0.047
		c-0.016,0-0.016,0-0.031,0c-2.178,0.047-4.935-0.328-5.515-2.428c-0.548-1.911,1.254-3.713,1.332-5.703
		c-2.303,0.204-4.277-2.334-3.776-4.605c0.235-1.05,0.972-2.006,1.912-2.633c1.802,0.925,3.023,2.852,3.524,4.857
		c0.564,2.178,0.392,4.48,0.204,6.736c0.517-0.987,1.05-1.989,1.771-2.836c0.329-0.407,0.689-0.768,1.112-1.065
		c1.66-1.206,3.995-1.175,5.812-0.219c0.752,0.407,1.426,0.987,1.896,1.707c0.078,0.095,0.125,0.188,0.188,0.282
		c1.521,2.647,0.392,6.408-2.271,7.896c1.097,0.657,2.413-0.282,3.697-0.549c0.392-0.094,0.768-0.109,1.144-0.016
		c0.799,0.204,1.348,0.94,1.724,1.677c1.786,3.446,1.05,8.021-1.739,10.716c2.727,1.708,4.48,4.872,4.449,8.084
		c0,0.485-0.438,1.708-1.128,3.228C429.997,273.291,426.237,279.573,424.326,278.681z"/>
	<path fill="#508134" d="M409.747,211.481c-1.504,3.428-6.95,4.548-9.178,1.539c1.038,3.394-2.262,6.833-5.761,7.475
		c-2.682,0.479-5.679-0.268-7.486-2.32s-2.099-5.435-0.314-7.499c-3.067,0.793-6.577-0.676-8.151-3.416
		c-1.587-2.741-1.097-6.519,1.131-8.77c-1.924-0.175-3.708-1.143-5.038-2.543c0.724-1.936,1.819-3.731,3.138-4.232
		c1.235-0.467,2.693,0.175,3.475,1.236c0.793,1.072,1.003,2.46,0.956,3.777c0.141-1.375,2.344-1.562,3.242-0.501
		c0.897,1.062,0.828,2.601,0.723,3.988c-0.128,1.621-0.257,3.242-0.373,4.852c0.339-0.934,1.562-1.295,2.507-0.968
		c0.934,0.326,1.621,1.154,2.1,2.017c2.053,3.615,1.924,8.747,5.446,10.95c1.714-0.629,1.609-3.113,0.944-4.827
		c-0.665-1.703-1.516-3.79-0.35-5.201c0.583-0.7,1.551-1.038,2.005-1.831c0.98-1.714-1.178-3.58-1.422-5.551
		c-0.292-2.461,2.519-4.606,1.959-7.021c-0.222-0.933-0.91-1.69-1.213-2.601c-0.408-1.213-0.082-2.542,0.257-3.778
		c0.548-2.04,1.119-4.151,2.402-5.83c0.641-0.84,1.41-1.517,2.273-2.053c0.117,0.198,0.222,0.408,0.304,0.618
		c1.037,2.554,0.291,5.737-1.784,7.568c3.906,1.003,7.977,3.021,9.538,6.74c1.575,3.731-1.084,9.084-5.106,8.676
		C409.246,203.784,411.264,208.053,409.747,211.481z"/>
</g>
<g>
	<path fill="#00A89B" d="M428.572,433.494l82.85,91.283c1.65,1.65,4.326,1.65,5.975,0l25.641-25.643
		c1.649-1.648,1.646-4.324,0-5.972l-91.286-82.853L428.572,433.494z"/>
	<path fill="#008C88" d="M453.566,434.846l11.998-12l-13.813-12.535l-23.179,23.184l82.85,91.283c1.65,1.65,4.326,1.65,5.975,0
		l13.051-13.052L453.566,434.846z"/>
	<polygon fill="#D0D2D3" points="470.97,427.76 451.751,410.311 428.572,433.494 446.014,452.715 	"/>
	<polygon fill="#A6A8AB" points="458.702,439.977 439.968,422.143 428.158,433.958 445.994,452.688 	"/>
	<path fill="#403F41" d="M324.61,306.35c-33.464,33.464-33.468,87.716,0,121.178c33.46,33.464,87.714,33.464,121.179,0
		c33.461-33.462,33.461-87.714,0.002-121.178C412.326,272.886,358.07,272.886,324.61,306.35z M436.363,418.102
		c-28.259,28.26-74.072,28.267-102.33,0.004c-28.26-28.259-28.26-74.076,0-102.334c28.258-28.258,74.071-28.258,102.33-0.002
		C464.622,344.029,464.622,389.847,436.363,418.102z"/>
	<circle opacity="0.3" fill="#E6E6E7" cx="385.199" cy="366.94" r="75.752"/>
	<path opacity="0.5" fill="#FFFFFF" d="M449.437,371.201c1.419-27.342-14.834-53.613-41.855-63.684
		c-27.013-10.066-56.497-0.838-73.32,20.764c0,0,40.101,4.617,62.803,13.078C420.468,350.078,449.437,371.201,449.437,371.201z"/>
</g>
<path fill="#FFFFFF" d="M278.479,10.525c2.04-0.739,4.383,0.316,5.791,1.966c1.409,1.65,2.089,3.784,2.735,5.855
	c1.552-0.271,3.227,0.317,4.267,1.5c1.041,1.183,1.411,2.919,0.943,4.423c1.08-0.619,2.518-0.182,3.407,0.688
	s1.353,2.076,1.772,3.247c0.418,1.168,0.731,2.685-0.228,3.472c1.802-0.285,3.182,2.079,2.463,3.756
	c-0.72,1.677-2.754,2.454-4.573,2.317c-1.99-0.15-4.008-1.154-5.898-0.516c-1.231,0.416-2.128,1.449-3.101,2.309
	c-1.824,1.613-4.33,2.741-6.684,2.116c-2.573-0.684-4.548-3.32-7.206-3.18c-1.179,0.062-2.243,0.679-3.306,1.192
	c-3.26,1.574-7.162,2.248-10.498,0.845c-0.568-0.239-1.119-0.537-1.725-0.65c-1.694-0.319-3.284,0.843-4.974,1.189
	c-2.339,0.479-4.923-0.83-5.922-2.999c-0.231-0.501-0.389-1.047-0.725-1.485c-0.701-0.914-2.061-1.213-2.587-2.237
	c-0.66-1.284,0.526-2.889,1.929-3.229c1.403-0.339,2.855,0.173,4.22,0.645c1.364,0.473,2.859,0.913,4.224,0.439
	c0.768-0.267,1.408-0.797,2.074-1.262c2.915-2.036,7.142-2.802,9.927-0.593c0.518-1.539,2.005-2.608,3.583-2.991
	s3.24-0.177,4.825,0.176c0.738,0.164,1.877,0.576,2.631,0.357c0.578-0.168,0.805-0.758,1.422-0.901
	c0.794-0.183,1.712,0.227,2.512,0.284c1.254,0.09,3.68-0.113,2.42-2.096c-0.271-0.426-0.906-0.377-1.383-0.211
	c-0.478,0.166-1.009,0.395-1.461,0.169c-0.438-0.219-0.59-0.771-0.953-1.1c-0.784-0.709-1.991-0.1-3.023,0.126
	c-1.144,0.25-2.397-0.065-3.287-0.826c-0.891-0.761-1.396-1.95-1.328-3.119c0.018-0.291,0.069-0.584,0.194-0.848
	c0.206-0.435,0.592-0.752,0.954-1.069c1.43-1.245,2.377-2.437,3.164-4.086C275.812,12.655,276.763,11.147,278.479,10.525z"/>
<path fill="#FFFFFF" d="M188.517,19.984c-0.686-1.425-2.361-2.301-3.922-2.051c-1.562,0.25-2.88,1.605-3.086,3.173
	c-2.316-0.479-4.857,0.327-6.475,2.054c-1.618,1.727-2.257,4.314-1.629,6.595c-1.527-0.108-3.215-0.172-4.418,0.778
	c-1.537,1.213-1.421,3.957,0.214,5.035c2.021,1.333,4.901,0.011,7.079,1.067c1.168,0.566,1.919,1.716,2.869,2.601
	c2.364,2.197,6.204,2.609,8.979,0.962c1.442-0.855,2.862-2.254,4.501-1.9c1.156,0.25,1.926,1.306,2.842,2.056
	c2.155,1.769,5.56,1.783,7.73,0.032c1.954-1.577,3.143-4.443,5.635-4.756c1.516-0.191,3.039,0.7,4.536,0.396
	c1.608-0.327,2.699-2.156,2.321-3.752s-2.07-2.73-3.704-2.579c-1.901,0.176-3.625,1.813-5.479,1.358
	c-1.517-0.373-2.425-2.02-3.908-2.505c-3.126-1.021-5.714,3.567-8.986,3.239c-0.956-0.096-1.831-0.618-2.788-0.705
	c-1.849-0.168-3.723,1.294-5.45,0.615c-1.417-0.558-1.912-2.656-0.896-3.789c1.039-1.157,2.863-1.029,4.306-1.612
	c1.603-0.648,2.742-2.263,4.43-2.708c1.327-0.351,3.101,0.659,3.124-1.173c0.016-1.271-2.024-3.149-3.044-3.611
	C192.745,18.553,187.868,18.637,188.517,19.984z"/>
<path fill="#FFFFFF" d="M465.306,236.919c-4.762,2.444-10.512,2.898-15.588,1.223c-1.175-0.392-2.35-0.894-3.572-0.878
	c-0.047,0-1.707,0.486-4.026,1.019v0.016c-5.922,1.41-16.136,3.337-14.836-0.956c-0.501,1.646-1.222,3.228-2.131,4.669
	c-1.315,2.068-3.023,3.901-4.981,5.374c-1.379,1.05-2.883,1.911-4.497,2.554c-0.955,0.407-1.942,0.721-2.961,0.939
	c-6.078,1.363-12.721-0.407-17.39-4.496c-0.549-0.485-1.081-1.002-1.566-1.551c-1.003,2.413-2.602,4.543-4.591,6.235
	c-2.507,2.162-5.64,3.619-8.914,4.058c-0.721,0.125-1.457,0.173-2.209,0.173c-1.003,0-1.99-0.095-2.961-0.298
	c-1.99-0.36-3.917-1.112-5.656-2.178c-1.347-0.799-2.601-1.771-3.666-2.914c-1.441-1.473-2.601-3.212-3.384-5.123
	c0,0-0.016,0-0.016,0.016c-4.011,2.852-8.006,5.733-12.032,8.601c-2.914,2.1-6.22,4.152-9.666,5.186
	c-3.775,1.145-7.724,1.05-11.515-1.598c-2.257-1.582-3.4-5.107-1.552-7.176c-3.337,1.395-6.799,2.68-10.418,2.82
	c-0.267,0.016-0.518,0.016-0.783,0.016c-3.385-0.047-6.831-1.284-8.931-3.9c-3.634-4.56-1.66-11.938,3.071-15.354
	c2.852-2.053,6.376-2.914,9.854-2.883c1.88,0,6.345,2.021,7.833,1.551c4.198-1.331,3.729-11.953,6.016-16.403
	c2.476-4.81,7.176-8.867,12.581-8.992c0.971-0.016,1.927,0.078,2.867,0.282c3.18,0.658,6.156,2.412,8.977,4.12
	c0.549-1.488,1.003-2.992,1.41-4.528c0.345-1.362,0.658-2.741,0.908-4.136c0.016-0.016,0.016-0.016,0.016-0.016
	c0.596-3.039,1.019-6.125,1.457-9.196c0.188-1.3,0.376-2.585,0.58-3.869c0.203-1.301,0.407-2.585,0.658-3.87
	c0.705-3.666,1.707-7.395,3.195-10.856c1.959-4.606,4.763-8.742,8.789-11.672c4.763-3.463,10.732-4.622,16.56-3.886
	c5.562,0.674,11.03,3.071,15.213,6.8c8.601,7.645,12.313,19.692,12.001,31.177c0.156-6.032,7.771-11.28,13.52-10.23
	c0.549,0.094,1.065,0.25,1.567,0.47c3.462,1.473,5.796,5.264,5.577,9.024c-0.267,4.198-3.321,7.786-3.869,11.969
	c4.715-4.136,12.031-5.608,17.452-2.443c5.421,3.148,7.536,11.39,3.415,16.121c2.758-0.549,5.656-0.894,8.366-0.173
	c2.726,0.736,5.248,2.758,5.875,5.499C472.247,231.248,468.94,235.039,465.306,236.919z"/>
<path fill="#FFFFFF" d="M135.366,226.527c-1.326-5.122,2.439-10.09,3.254-15.318c1.334-8.567-6.602-17.004-15.271-17.141
	s-16.531,7.083-18.176,15.597c-1.816-6.441-9.502-10.137-16.016-8.601c-6.514,1.537-11.47,7.357-13.22,13.817
	c-1.749,6.46-0.675,13.412,1.666,19.683c-6.307-1.996-13.575-2.193-19.175,1.328c-5.599,3.521-8.572,11.498-5.121,17.142
	c-5.765-1.517-12.22-2.723-17.424,0.185c-5.203,2.906-6.948,11.723-1.7,14.548c-8.925,1.354-17.458,5.195-24.39,10.979
	c-1.114,0.93-2.236,1.982-2.647,3.375c-1.025,3.476,2.821,6.458,6.332,7.356c9.202,2.355,18.854-1.433,27.051-6.232
	c3.498-2.049,7.579-4.378,11.354-2.902c1.697,0.663,3.021,2.015,4.57,2.976c5.457,3.384,12.502,1.458,18.632-0.454
	c7.937-2.476,15.929-4.768,23.92-7.059c5.472-1.568,11.184-3.151,16.78-2.117c7.43,1.373,13.939,7.241,21.468,6.598
	c9.838-0.841,15.566-12.115,24.955-15.176c6.733-2.195,20.275,1.58,24.242-6.336c3.172-6.33-4.829-14.019-10.484-15.678
	c-5.188-1.521-10.75-0.609-16.037,0.524c0.814-7.217,1.356-20.047-6.133-23.929C149.958,217.7,133.428,219.036,135.366,226.527z"/>
</svg>
