<?xml version="1.0" encoding="utf-8"?>
<!-- Generator: Adobe Illustrator 16.0.4, SVG Export Plug-In . SVG Version: 6.00 Build 0)  -->
<!DOCTYPE svg PUBLIC "-//W3C//DTD SVG 1.1//EN" "http://www.w3.org/Graphics/SVG/1.1/DTD/svg11.dtd">
<svg version="1.1" id="Layer_1" xmlns="http://www.w3.org/2000/svg" xmlns:xlink="http://www.w3.org/1999/xlink" x="0px" y="0px"
	 width="117.999px" height="95px" viewBox="0 0 117.999 95" enable-background="new 0 0 117.999 95" xml:space="preserve">
<path fill="#EBEBEB" d="M101.305,10.079c3.764,0,6.827,3.129,6.827,6.975c0,3.845-3.063,6.974-6.827,6.974
	c-3.764,0-6.828-3.129-6.828-6.974C94.478,13.208,97.541,10.079,101.305,10.079z M101.305,19.01c1.056,0,1.916-0.878,1.916-1.958
	c0-1.079-0.859-1.957-1.916-1.957c-1.057,0-1.916,0.878-1.916,1.957C99.389,18.132,100.249,19.01,101.305,19.01z"/>
<path fill="#EBEBEB" d="M4.653,31.4V13.687c0-3.429,2.732-6.223,6.092-6.226l76.783-0.04c0.6-0.892,1.286-1.733,2.057-2.51
	c3.205-3.229,7.448-4.977,11.957-4.909c9.021,0.128,16.404,7.731,16.457,16.948c0.016,2.731-0.616,5.452-1.828,7.868
	c-0.024,0.048-3.993,6.848-3.993,6.848v57.057c0,3.432-2.733,6.224-6.092,6.224L10.75,95c-3.362,0-6.098-2.793-6.098-6.226V55.816
	c0,0-2.801-4.798-2.825-4.847C0.632,48.584,0,45.899,0,43.205C0,38.762,1.651,34.591,4.653,31.4z M21.444,12.473l11.857,12.112
	L45.17,12.46L21.444,12.473z M36.427,27.778l20.665,21.11l7.556-7.718c0-0.001,0.001-0.001,0.001-0.002c0,0,0.001,0,0.001,0
	l5.668-5.79L49.653,14.268L36.427,27.778z M77.578,57.571L66.211,45.958L51.607,60.877L62.974,72.49L77.578,57.571z M74.807,66.787
	l12.751,13.026l10.217-10.438L85.025,56.35L74.807,66.787z M86.441,24.818c-1.196-2.385-1.828-5.07-1.828-7.765
	c0-1.584,0.214-3.131,0.619-4.614L54.13,12.456l19.313,19.729l6.916-7.064c0.864-0.881,2.263-0.881,3.126,0
	c0.863,0.883,0.863,2.312,0,3.194L69.337,42.766l11.367,11.613l9.206-9.406c0.863-0.881,2.263-0.881,3.126,0
	c0.863,0.883,0.863,2.312,0,3.194l-4.885,4.991l19.115,19.527V40.075l-1.744,2.987c-0.895,1.531-2.47,2.445-4.216,2.445
	c-1.745,0-3.322-0.915-4.216-2.445C97.09,43.062,86.465,24.866,86.441,24.818z M111.834,22.462c0.843-1.708,1.264-3.55,1.253-5.482
	c-0.038-6.505-5.248-11.871-11.613-11.961c-3.185-0.04-6.178,1.186-8.441,3.465c-0.779,0.785-1.434,1.662-1.963,2.605
	c-0.023,0.045-0.048,0.088-0.074,0.131c-0.96,1.764-1.472,3.756-1.472,5.833c0,1.905,0.422,3.725,1.253,5.409l10.525,18.029
	L111.834,22.462z M106.084,89.93c0.651,0,1.181-0.541,1.181-1.206V79.07l-6.364-6.502L83.895,89.942L106.084,89.93z M77.64,89.946
	l6.793-6.94L71.682,69.98L52.124,89.959L77.64,89.946z M59.848,75.683L48.481,64.071l-8.254,8.432l11.367,11.611L59.848,75.683z
	 M45.869,89.963l2.599-2.655L37.101,75.696L23.123,89.976L45.869,89.963z M10.749,89.982l6.119-0.003l17.107-17.476l-5.149-5.261
	c-0.864-0.881-0.864-2.311,0-3.193c0.863-0.882,2.262-0.882,3.126,0l5.149,5.26l9.816-10.028c0,0,0-0.001,0.001-0.001
	c0,0,0.001,0,0.001-0.001l7.046-7.199l-8.379-8.558l-4.341,4.435c-0.48,0.49-1.108,0.735-1.737,0.735
	c-0.628,0-1.257-0.245-1.736-0.735c-0.959-0.979-0.959-2.568,0-3.549l4.342-4.435L15.196,12.476l-4.448,0.003
	c-0.653,0-1.184,0.542-1.184,1.209v14.088c2.27-1.098,4.772-1.661,7.365-1.621c9.021,0.127,16.403,7.73,16.457,16.948
	c0.016,2.732-0.616,5.452-1.828,7.869c-0.024,0.048-10.65,18.243-10.65,18.243c-0.894,1.531-2.47,2.446-4.216,2.446
	s-3.321-0.914-4.216-2.445l-2.913-4.987v24.547h0C9.564,89.439,10.096,89.982,10.749,89.982z M6.165,48.613l3.099,5.309
	c0.001,0.002,0.002,0.004,0.004,0.006l7.423,12.714l10.53-18.029c0.843-1.708,1.265-3.551,1.253-5.482
	c-0.038-6.506-5.248-11.871-11.614-11.961c-3.178-0.044-6.178,1.185-8.44,3.465c-2.263,2.279-3.509,5.323-3.509,8.569
	C4.912,45.109,5.333,46.929,6.165,48.613z"/>
<path fill="#EBEBEB" d="M16.693,36.23c3.765,0,6.827,3.129,6.827,6.975c0,3.845-3.063,6.974-6.827,6.974
	c-3.765,0-6.827-3.129-6.827-6.974C9.865,39.359,12.928,36.23,16.693,36.23z M16.693,45.161c1.056,0,1.916-0.877,1.916-1.957
	c0-1.08-0.859-1.958-1.916-1.958s-1.916,0.878-1.916,1.958C14.777,44.284,15.636,45.161,16.693,45.161z"/>
</svg>
