<?xml version="1.0" encoding="utf-8"?>
<!-- Generator: Adobe Illustrator 16.0.4, SVG Export Plug-In . SVG Version: 6.00 Build 0)  -->
<!DOCTYPE svg PUBLIC "-//W3C//DTD SVG 1.1//EN" "http://www.w3.org/Graphics/SVG/1.1/DTD/svg11.dtd">
<svg version="1.1" id="Layer_1" xmlns="http://www.w3.org/2000/svg" xmlns:xlink="http://www.w3.org/1999/xlink" x="0px" y="0px"
	 width="13px" height="18px" viewBox="0 0 13 18" enable-background="new 0 0 13 18" xml:space="preserve">
<path fill="#46B5E7" d="M12.693,4.48c-0.067-0.24-0.204-0.496-0.305-0.72C11.181,0.992,8.542,0,6.412,0C3.56,0,0.419,1.824,0,5.584
	v0.768c0,0.032,0.012,0.32,0.028,0.464c0.235,1.792,1.718,3.696,2.825,5.488C4.043,14.224,5.279,16.112,6.504,18
	c0.755-1.232,1.507-2.48,2.245-3.68c0.201-0.352,0.435-0.704,0.636-1.04c0.134-0.224,0.391-0.448,0.508-0.656
	C11.083,10.544,13,8.448,13,6.384V5.536C13,5.312,12.709,4.528,12.693,4.48z M6.464,8.336c-0.838,0-1.756-0.4-2.209-1.504
	c-0.067-0.176-0.062-0.528-0.062-0.56V5.776c0-1.408,1.253-2.048,2.343-2.048c1.342,0,2.38,1.024,2.38,2.304
	C8.917,7.312,7.807,8.336,6.464,8.336z"/>
</svg>
