<?xml version="1.0" encoding="utf-8"?>
<!-- Generator: Adobe Illustrator 16.0.4, SVG Export Plug-In . SVG Version: 6.00 Build 0)  -->
<!DOCTYPE svg PUBLIC "-//W3C//DTD SVG 1.1//EN" "http://www.w3.org/Graphics/SVG/1.1/DTD/svg11.dtd">
<svg version="1.1" id="Layer_1" xmlns="http://www.w3.org/2000/svg" xmlns:xlink="http://www.w3.org/1999/xlink" x="0px" y="0px"
	 width="279.836px" height="45.782px" viewBox="0 0 279.836 45.782" enable-background="new 0 0 279.836 45.782"
	 xml:space="preserve">
<g>
	<path fill="#F6C214" d="M48.305,4.836c-1.795,0-3.256,1.5-3.256,3.346c0,1.845,1.461,3.347,3.256,3.347
		c1.795,0,3.255-1.501,3.255-3.347C51.561,6.336,50.101,4.836,48.305,4.836z M48.305,9.121c-0.503,0-0.914-0.42-0.914-0.938
		s0.41-0.939,0.914-0.939c0.504,0,0.913,0.421,0.913,0.939S48.809,9.121,48.305,9.121z"/>
	
		<linearGradient id="SVGID_1_" gradientUnits="userSpaceOnUse" x1="166.0005" y1="-232.0093" x2="222.2661" y2="-232.0093" gradientTransform="matrix(1 0 0 -1 -166 -209.2178)">
		<stop  offset="0" style="stop-color:#5FAE45"/>
		<stop  offset="1" style="stop-color:#F6C214"/>
	</linearGradient>
	<path fill="url(#SVGID_1_)" d="M48.418,0.001c-2.15-0.033-4.173,0.806-5.701,2.355c-0.368,0.373-0.695,0.776-0.981,1.204
		L5.123,3.58C3.521,3.582,2.219,4.922,2.219,6.567v8.499C0.788,16.597,0,18.599,0,20.73c0,1.293,0.302,2.582,0.872,3.726
		c0.012,0.023,1.347,2.326,1.347,2.326v15.812c0,1.646,1.304,2.988,2.908,2.988l45.458-0.027c1.601,0,2.904-1.34,2.904-2.986V15.193
		c0,0,1.893-3.263,1.904-3.286c0.578-1.159,0.879-2.464,0.873-3.775C56.239,3.71,52.719,0.062,48.418,0.001z M30.028,34.782
		l-5.42-5.572l6.964-7.159l5.42,5.571L30.028,34.782z M40.542,27.038l6.079,6.25l-4.872,5.008l-6.08-6.25L40.542,27.038z
		 M30.827,19.752C30.827,19.753,30.827,19.753,30.827,19.752C30.827,19.752,30.827,19.753,30.827,19.752l-3.604,3.704l-9.854-10.127
		l6.307-6.483l9.853,10.129L30.827,19.752z M21.539,5.979l-5.659,5.818l-5.654-5.812L21.539,5.979z M4.418,25.874L2.94,23.325
		c-0.396-0.808-0.598-1.682-0.598-2.595c0-1.558,0.595-3.019,1.673-4.112c1.079-1.094,2.51-1.684,4.025-1.663
		c3.035,0.044,5.519,2.618,5.538,5.739c0.005,0.927-0.196,1.812-0.598,2.631l-5.021,8.651L4.42,25.874
		C4.419,25.875,4.418,25.874,4.418,25.874z M5.125,43.174c-0.311,0-0.565-0.262-0.565-0.58l0,0V30.817l1.389,2.393
		c0.427,0.735,1.178,1.174,2.011,1.174c0.832,0,1.583-0.438,2.01-1.174c0,0,5.066-8.729,5.078-8.754
		c0.578-1.158,0.879-2.462,0.871-3.774c-0.025-4.422-3.545-8.069-7.847-8.131c-1.236-0.02-2.429,0.25-3.511,0.777v-6.76
		c0-0.32,0.254-0.58,0.564-0.58l2.121-0.001L20.081,19.18l-2.07,2.128c-0.458,0.471-0.458,1.233,0,1.703
		c0.228,0.235,0.528,0.354,0.828,0.354c0.299,0,0.6-0.118,0.829-0.354l2.07-2.128l3.995,4.106l-3.36,3.454l0,0h-0.001l-4.68,4.812
		l-2.456-2.522c-0.411-0.424-1.079-0.424-1.49,0c-0.412,0.422-0.412,1.108,0,1.531l2.456,2.524l-8.158,8.385L5.125,43.174z
		 M21.872,43.165L11.025,43.17l6.666-6.852l5.419,5.572L21.872,43.165z M19.181,34.788l3.936-4.045l5.42,5.571l-3.936,4.045
		L19.181,34.788z M24.854,43.163l9.325-9.584l6.08,6.25l-3.239,3.328L24.854,43.163z M51.147,42.57c0,0.319-0.252,0.578-0.563,0.578
		l-10.582,0.007l8.11-8.336l3.035,3.12V42.57z M51.147,34.875l-9.115-9.371l2.33-2.394c0.412-0.423,0.412-1.11,0-1.532
		c-0.412-0.423-1.078-0.423-1.49,0l-4.39,4.511l-5.419-5.57l6.746-6.935c0.412-0.423,0.412-1.109,0-1.532
		c-0.412-0.423-1.079-0.423-1.491,0l-3.297,3.39l-9.208-9.466l14.83-0.008c-0.194,0.711-0.295,1.454-0.295,2.214
		c0,1.294,0.301,2.581,0.872,3.726c0.012,0.023,5.078,8.753,5.078,8.753c0.426,0.735,1.177,1.174,2.01,1.174
		c0.832,0,1.583-0.439,2.01-1.174l0.832-1.433v15.646H51.147z M53.326,10.777l-5.022,8.651l-5.019-8.651
		c-0.396-0.808-0.597-1.681-0.597-2.595c0-0.996,0.244-1.953,0.702-2.799c0.013-0.021,0.024-0.041,0.035-0.063
		c0.253-0.453,0.565-0.873,0.937-1.25c1.078-1.094,2.505-1.682,4.024-1.663c3.035,0.043,5.519,2.618,5.537,5.739
		C53.929,9.074,53.728,9.958,53.326,10.777z"/>
	<path fill="#5FAE45" d="M11.215,20.73c0-1.846-1.461-3.347-3.255-3.347c-1.796,0-3.256,1.501-3.256,3.347
		c0,1.845,1.46,3.347,3.256,3.347C9.754,24.077,11.215,22.576,11.215,20.73z M7.045,20.73c0-0.518,0.41-0.939,0.915-0.939
		c0.503,0,0.913,0.421,0.913,0.939s-0.41,0.938-0.913,0.938C7.456,21.668,7.045,21.248,7.045,20.73z"/>
</g>
<path fill="#2A2E2B" d="M77.856,29.108v-2.667h-5.87V4.555h-2.841l-5.699,3.991v2.962l5.442-3.956v18.89h-6.144v2.667L77.856,29.108
	L77.856,29.108z"/>
<path fill="#2A2E2B" d="M95.664,7.377c-1.352-2.126-3.449-3.189-6.29-3.189c-2.921,0-5.058,1.052-6.409,3.155
	c-1.352,2.103-2.028,5.263-2.028,9.48c0,4.124,0.695,7.261,2.087,9.41s3.474,3.225,6.247,3.225s4.87-1.08,6.29-3.242
	c1.42-2.16,2.13-5.292,2.13-9.391C97.692,12.652,97.016,9.503,95.664,7.377z M93.294,24.42c-0.844,1.648-2.174,2.475-3.988,2.475
	c-1.826,0-3.158-0.807-3.997-2.423c-0.838-1.614-1.257-4.164-1.257-7.649c0-3.59,0.414-6.169,1.241-7.737
	c0.827-1.569,2.188-2.354,4.082-2.354c1.848,0,3.174,0.796,3.979,2.388c0.805,1.592,1.207,4.159,1.207,7.703
	C94.561,20.238,94.138,22.771,93.294,24.42z"/>
<path fill="#2A2E2B" d="M115.158,7.377c-1.352-2.126-3.449-3.189-6.29-3.189c-2.921,0-5.058,1.052-6.41,3.155
	c-1.352,2.103-2.028,5.263-2.028,9.48c0,4.124,0.696,7.261,2.088,9.41s3.475,3.225,6.248,3.225c2.772,0,4.869-1.08,6.289-3.242
	c1.42-2.16,2.131-5.292,2.131-9.391C117.186,12.652,116.51,9.503,115.158,7.377z M112.788,24.42
	c-0.845,1.648-2.173,2.475-3.988,2.475c-1.826,0-3.157-0.807-3.996-2.423c-0.839-1.614-1.258-4.164-1.258-7.649
	c0-3.59,0.413-6.169,1.241-7.737c0.827-1.569,2.188-2.354,4.082-2.354c1.848,0,3.175,0.796,3.979,2.388
	c0.804,1.592,1.207,4.159,1.207,7.703C114.054,20.238,113.632,22.771,112.788,24.42z"/>
<path fill="#5FAE45" d="M138.956,25.083h-13.743l13.042-16.956V4.555H120.9V8.58h11.74L119.6,25.467v3.642h19.356V25.083z"/>
<path fill="#5FAE45" d="M161.976,29.108v-3.975H147.36V18.67h12.871v-3.973H147.36v-6.17h13.916V4.555h-18.964v24.554
	L161.976,29.108L161.976,29.108z"/>
<path fill="#5FAE45" d="M190.198,29.108V4.555h-6.725l-4.436,14.411l-1.078,3.938l-0.82-3.293l-0.376-1.325L172.45,4.555h-6.76
	v24.554h4.482V14.226c0-0.871-0.068-2.654-0.205-5.349l1.83,6.535l4.35,13.697h3.594l4.348-13.697
	c0.389-1.231,0.986-3.41,1.797-6.535c-0.104,2.556-0.156,4.002-0.162,4.338c-0.006,0.337-0.01,0.674-0.01,1.011v14.883
	L190.198,29.108L190.198,29.108z"/>
<path fill="#5FAE45" d="M214.553,29.108v-3.975h-14.615V18.67h12.869v-3.973h-12.869v-6.17h13.913V4.555h-18.962v24.554
	L214.553,29.108L214.553,29.108z"/>
<path fill="#5FAE45" d="M236.254,29.108v-3.975h-12.939V4.555h-5.048v24.554L236.254,29.108L236.254,29.108z"/>
<path fill="#2A2E2B" d="M244.659,29.108v-5.316h-4.947v5.316H244.659z"/>
<path fill="#2A2E2B" d="M254.329,29.108v-9.254c0-1.94,0.332-3.403,1-4.391c0.668-0.988,1.602-1.482,2.799-1.482
	c0.593,0,1.275,0.088,2.054,0.261v-4.094c-0.376-0.175-0.872-0.262-1.489-0.262c-0.753,0-1.38,0.131-1.882,0.392
	c-0.501,0.262-0.937,0.662-1.302,1.203c-0.365,0.54-0.78,1.473-1.25,2.797h-0.066c0-0.349-0.029-1.054-0.086-2.117
	c-0.059-1.063-0.104-1.699-0.137-1.908h-4.588c0.035,0.535,0.065,1.147,0.095,1.838c0.026,0.691,0.043,1.555,0.043,2.588v14.43
	L254.329,29.108L254.329,29.108z"/>
<path fill="#2A2E2B" d="M262.885,10.253v11.972c0,2.371,0.525,4.168,1.574,5.393c1.051,1.227,2.557,1.838,4.519,1.838
	c1.358,0,2.528-0.324,3.517-0.976c0.988-0.649,1.801-1.69,2.44-3.119h0.086c0,0.825,0.067,2.074,0.204,3.748h4.588
	c-0.093-1.208-0.139-2.614-0.139-4.218V10.253h-4.809V20.36c0,1.592-0.357,2.896-1.07,3.913c-0.713,1.017-1.651,1.524-2.814,1.524
	c-2.191,0-3.285-1.655-3.285-4.966V10.253H262.885z"/>
<g>
	<path fill="#828383" d="M66.936,42.65c0.454-0.364,0.68-0.872,0.68-1.519c0-0.463-0.162-0.848-0.483-1.152
		c-0.323-0.305-0.74-0.484-1.25-0.539v-0.014c0.435-0.037,0.805-0.201,1.11-0.489c0.306-0.29,0.459-0.649,0.459-1.079
		c0-0.535-0.217-0.973-0.652-1.312c-0.435-0.336-1.006-0.506-1.715-0.506c-1.396,0-2.191,0.549-2.386,1.646l1.026,0.127
		c0.051-0.298,0.195-0.524,0.433-0.683c0.239-0.155,0.545-0.235,0.921-0.235c0.393,0,0.693,0.092,0.902,0.274
		s0.313,0.432,0.313,0.748c0,0.373-0.16,0.649-0.481,0.828c-0.32,0.178-0.821,0.27-1.5,0.27v0.873c1.396,0,2.095,0.425,2.095,1.277
		c0,0.387-0.119,0.68-0.358,0.879c-0.239,0.201-0.56,0.301-0.965,0.301c-0.848,0-1.383-0.35-1.607-1.047l-1.006,0.281
		c0.19,0.549,0.493,0.957,0.908,1.221c0.416,0.267,0.976,0.4,1.68,0.4C65.857,43.198,66.483,43.016,66.936,42.65z"/>
	<path fill="#828383" d="M74.591,39.862v-0.152c0-2.446-1.006-3.67-3.019-3.67c-0.983,0-1.739,0.305-2.269,0.914
		c-0.53,0.607-0.795,1.481-0.795,2.621c0,1.201,0.265,2.104,0.795,2.715c0.529,0.606,1.301,0.91,2.313,0.91
		c1.452,0,2.381-0.543,2.791-1.633l-1-0.288c-0.105,0.306-0.307,0.56-0.604,0.761c-0.297,0.198-0.693,0.299-1.186,0.299
		c-0.624,0-1.099-0.215-1.424-0.645c-0.325-0.429-0.487-1.041-0.487-1.831L74.591,39.862L74.591,39.862z M69.717,38.981
		c0.025-0.65,0.2-1.163,0.522-1.535c0.323-0.371,0.76-0.558,1.313-0.558c0.57,0,1.006,0.166,1.31,0.5
		c0.304,0.334,0.488,0.864,0.551,1.592L69.717,38.981L69.717,38.981z"/>
	<path fill="#828383" d="M82.142,36.991l-0.031,0.733l-0.02,0.728v4.618h1.095v-6.903h-1.702l-1.392,4.217
		c-0.195,0.533-0.338,1.141-0.432,1.826c-0.068-0.609-0.21-1.217-0.43-1.826l-1.393-4.217h-1.772v6.903h1.102v-4.618
		c0-0.304-0.012-0.785-0.038-1.449l2.051,6.067h0.969L82.142,36.991z"/>
	<path fill="#828383" d="M90.711,39.862v-0.152c0-2.446-1.006-3.67-3.019-3.67c-0.983,0-1.739,0.305-2.268,0.914
		c-0.53,0.607-0.795,1.481-0.795,2.621c0,1.201,0.265,2.104,0.795,2.715c0.529,0.606,1.3,0.91,2.313,0.91
		c1.451,0,2.381-0.543,2.791-1.633l-1-0.288c-0.106,0.306-0.308,0.56-0.606,0.761c-0.297,0.198-0.692,0.299-1.185,0.299
		c-0.625,0-1.1-0.215-1.425-0.645c-0.325-0.429-0.488-1.041-0.488-1.831L90.711,39.862L90.711,39.862z M85.838,38.981
		c0.025-0.65,0.199-1.163,0.522-1.535c0.323-0.371,0.76-0.558,1.312-0.558c0.57,0,1.006,0.166,1.311,0.5
		c0.304,0.334,0.487,0.864,0.551,1.592L85.838,38.981L85.838,38.981z"/>
	<path fill="#828383" d="M97.521,43.07v-6.903h-4.543l-0.279,2.074c-0.148,1.123-0.279,1.971-0.395,2.545
		c-0.116,0.574-0.245,0.979-0.387,1.215c-0.143,0.232-0.328,0.35-0.561,0.35c-0.182,0-0.326-0.02-0.431-0.059v0.824
		c0.186,0.055,0.384,0.082,0.595,0.082c0.363,0,0.659-0.078,0.889-0.234c0.23-0.158,0.423-0.403,0.579-0.735
		c0.157-0.331,0.302-0.823,0.437-1.472c0.134-0.647,0.327-1.898,0.576-3.754h2.374v6.067H97.521z"/>
	<path fill="#828383" d="M100.458,39.088v-2.922h-1.139v6.903h2.703c0.834,0,1.48-0.173,1.937-0.522
		c0.456-0.348,0.684-0.852,0.684-1.506c0-0.676-0.222-1.17-0.666-1.482c-0.442-0.312-1.097-0.469-1.961-0.469h-1.558V39.088z
		 M100.458,39.885h1.399c0.562,0,0.964,0.094,1.209,0.279c0.245,0.185,0.367,0.477,0.367,0.875c0,0.422-0.126,0.73-0.38,0.926
		c-0.253,0.197-0.653,0.295-1.202,0.295h-1.393V39.885z"/>
	<path fill="#828383" d="M106.072,36.167v6.904h1.139v-3.146h3.083v3.146h1.14v-6.904h-1.14v2.924h-3.083v-2.924H106.072z"/>
	<path fill="#828383" d="M114.37,39.088v-2.922h-1.14v6.903h2.588c0.835,0,1.481-0.173,1.938-0.522
		c0.455-0.348,0.683-0.852,0.683-1.506c0-0.676-0.222-1.17-0.664-1.482c-0.443-0.312-1.097-0.469-1.962-0.469h-1.443V39.088z
		 M114.37,39.885h1.284c0.562,0,0.964,0.094,1.209,0.279c0.245,0.185,0.367,0.477,0.367,0.875c0,0.422-0.126,0.73-0.38,0.926
		c-0.253,0.197-0.654,0.295-1.203,0.295h-1.278L114.37,39.885L114.37,39.885z M120.749,43.07v-6.903h-1.139v6.903H120.749z"/>
	<path fill="#828383" d="M128.28,39.862v-0.152c0-2.446-1.006-3.67-3.018-3.67c-0.983,0-1.74,0.305-2.269,0.914
		c-0.529,0.607-0.795,1.481-0.795,2.621c0,1.201,0.266,2.104,0.795,2.715c0.529,0.606,1.3,0.91,2.313,0.91
		c1.452,0,2.382-0.543,2.792-1.633l-1-0.288c-0.106,0.306-0.307,0.56-0.605,0.761c-0.297,0.198-0.692,0.299-1.187,0.299
		c-0.625,0-1.1-0.215-1.424-0.645c-0.324-0.429-0.487-1.041-0.487-1.831L128.28,39.862L128.28,39.862z M123.408,38.981
		c0.025-0.65,0.198-1.163,0.521-1.535c0.323-0.371,0.76-0.558,1.313-0.558c0.569,0,1.006,0.166,1.31,0.5
		c0.304,0.334,0.488,0.864,0.551,1.592L123.408,38.981L123.408,38.981z"/>
	<path fill="#828383" d="M134.676,45.518c0.298-0.176,0.569-0.443,0.813-0.805c0.245-0.359,0.509-0.906,0.792-1.644l2.634-6.903
		h-1.204l-1.5,4.396l-0.444,1.257c-0.012-0.056-0.098-0.319-0.259-0.792c-0.16-0.471-0.255-0.749-0.284-0.832
		c-0.03-0.083-0.056-0.154-0.077-0.214l-1.443-3.815h-1.215l2.716,6.873l-0.108,0.273c-0.413,1.051-0.975,1.576-1.683,1.576
		c-0.195,0-0.372-0.014-0.532-0.039v0.861c0.211,0.045,0.473,0.07,0.786,0.07C134.042,45.782,134.378,45.694,134.676,45.518z"/>
	<path fill="#828383" d="M139.711,36.167v2.625c0,0.599,0.151,1.062,0.453,1.394c0.303,0.33,0.724,0.495,1.27,0.495
		c0.529,0,1.104-0.119,1.723-0.357l0.491-0.191v2.94h1.142v-6.903h-1.142v3.299c-0.701,0.201-1.282,0.3-1.746,0.3
		c-0.7,0-1.051-0.345-1.051-1.034v-2.564h-1.14V36.167z"/>
	<path fill="#828383" d="M149.721,42.872c0.387-0.221,0.724-0.595,1.016-1.121h0.038c0.024,0.477,0.134,0.826,0.326,1.049
		c0.19,0.224,0.498,0.334,0.92,0.334c0.301,0,0.595-0.032,0.881-0.102v-0.715c-0.142,0.029-0.264,0.045-0.373,0.045
		c-0.249,0-0.419-0.087-0.508-0.26c-0.088-0.172-0.133-0.428-0.133-0.77v-2.972c0-0.752-0.218-1.329-0.65-1.726
		c-0.435-0.399-1.083-0.598-1.942-0.598c-1.639,0-2.553,0.621-2.748,1.862l1.188,0.108c0.048-0.381,0.187-0.661,0.419-0.834
		c0.232-0.174,0.604-0.262,1.113-0.262c0.508,0,0.877,0.121,1.115,0.363c0.234,0.242,0.354,0.645,0.354,1.206v0.376l-1.537,0.025
		c-1.039,0.025-1.789,0.229-2.256,0.613c-0.468,0.381-0.699,0.932-0.699,1.646c0,0.638,0.172,1.142,0.519,1.506
		c0.346,0.366,0.862,0.548,1.551,0.548C148.866,43.198,149.334,43.088,149.721,42.872z M147.715,42.03
		c-0.201-0.203-0.301-0.492-0.301-0.865c0-0.346,0.073-0.625,0.222-0.836c0.146-0.213,0.358-0.373,0.636-0.473
		c0.275-0.102,0.684-0.158,1.219-0.167l1.246-0.026v0.568c0,0.354-0.095,0.698-0.281,1.031c-0.188,0.333-0.442,0.597-0.769,0.787
		c-0.326,0.191-0.696,0.287-1.114,0.287C148.2,42.336,147.915,42.234,147.715,42.03z"/>
	<path fill="#828383" d="M155.047,37.545c0.27-0.404,0.705-0.606,1.31-0.606c0.442,0,0.785,0.112,1.024,0.339
		c0.242,0.225,0.391,0.529,0.451,0.911l1.17-0.088c-0.117-0.644-0.407-1.146-0.871-1.513c-0.461-0.365-1.043-0.549-1.742-0.549
		c-0.945,0-1.672,0.305-2.18,0.916c-0.504,0.609-0.758,1.496-0.758,2.656c0,1.17,0.252,2.059,0.756,2.67
		c0.506,0.611,1.235,0.916,2.192,0.916c0.728,0,1.327-0.197,1.798-0.594c0.473-0.395,0.754-0.926,0.842-1.588l-1.15-0.076
		c-0.062,0.458-0.23,0.798-0.504,1.02c-0.271,0.223-0.609,0.332-1.016,0.332c-0.578,0-1.01-0.222-1.298-0.662
		c-0.286-0.442-0.43-1.123-0.43-2.043C154.643,38.631,154.777,37.95,155.047,37.545z"/>
	<path fill="#828383" d="M159.604,37.002h2.178v6.067h1.139v-6.067h2.178v-0.836h-5.493L159.604,37.002L159.604,37.002z"/>
	<path fill="#828383" d="M166.191,43.07h1.14v-3.044c0.109,0,0.234-0.012,0.371-0.038s0.245-0.055,0.325-0.089l1.761,3.171h1.266
		l-2.234-3.776c0.146-0.125,0.419-0.476,0.811-1.053l1.367-2.074h-1.188c-0.823,1.34-1.306,2.107-1.444,2.304
		c-0.138,0.196-0.263,0.348-0.373,0.458c-0.109,0.105-0.215,0.179-0.316,0.213c-0.1,0.033-0.215,0.05-0.342,0.05v-3.024h-1.14v6.903
		H166.191z"/>
	<path fill="#828383" d="M171.889,36.167v6.904h1.215l3.203-5.57c-0.014,0.133-0.025,0.354-0.041,0.664
		c-0.018,0.312-0.021,0.543-0.021,0.696v4.21h1.088v-6.904h-1.246l-3.16,5.547l0.064-1.769v-3.778H171.889z"/>
	<path fill="#828383" d="M182.73,36.167v6.904h1.14v-6.066h2.942v6.066h1.14v-6.904H182.73z"/>
	<path fill="#828383" d="M194.773,36.911c-0.493-0.58-1.265-0.871-2.31-0.871c-2.047,0-3.068,1.19-3.068,3.572
		c0,1.162,0.254,2.051,0.764,2.664c0.512,0.615,1.268,0.922,2.268,0.922c1.005,0,1.771-0.295,2.299-0.886
		c0.525-0.591,0.79-1.492,0.79-2.7C195.515,38.392,195.269,37.491,194.773,36.911z M193.879,41.686
		c-0.295,0.441-0.781,0.664-1.465,0.664c-0.629,0-1.092-0.229-1.383-0.686c-0.294-0.457-0.439-1.142-0.439-2.052
		c0-0.935,0.146-1.624,0.445-2.063c0.297-0.441,0.779-0.66,1.446-0.66c0.66,0,1.132,0.216,1.414,0.648
		c0.28,0.43,0.42,1.123,0.42,2.075C194.318,40.554,194.172,41.245,193.879,41.686z"/>
	<path fill="#828383" d="M201.053,42.234h-3.146c0.27-0.616,0.502-1.353,0.69-2.21s0.362-1.863,0.519-3.021h1.938V42.234z
		 M203.116,42.234h-0.925v-6.067h-4.073c-0.195,1.558-0.41,2.824-0.641,3.803c-0.232,0.979-0.506,1.732-0.823,2.265H195.9v3.44
		h1.032V43.07h5.15v2.604h1.033V42.234L203.116,42.234z"/>
	<path fill="#828383" d="M209.086,37.545c0.268-0.404,0.705-0.606,1.309-0.606c0.443,0,0.785,0.112,1.025,0.339
		c0.238,0.225,0.391,0.529,0.449,0.911l1.17-0.088c-0.119-0.644-0.406-1.146-0.871-1.513c-0.459-0.365-1.041-0.549-1.742-0.549
		c-0.944,0-1.67,0.305-2.178,0.916c-0.506,0.609-0.76,1.496-0.76,2.656c0,1.17,0.252,2.059,0.758,2.67
		c0.504,0.611,1.234,0.916,2.192,0.916c0.726,0,1.324-0.197,1.797-0.594c0.474-0.395,0.752-0.926,0.843-1.588l-1.152-0.076
		c-0.062,0.458-0.23,0.798-0.504,1.02c-0.271,0.223-0.61,0.332-1.016,0.332c-0.578,0-1.01-0.222-1.297-0.662
		c-0.288-0.442-0.431-1.123-0.431-2.043C208.68,38.631,208.814,37.95,209.086,37.545z"/>
	<path fill="#828383" d="M213.642,37.002h2.176v6.067h1.142v-6.067h2.178v-0.836h-5.494L213.642,37.002L213.642,37.002z"/>
	<path fill="#828383" d="M225.395,36.9c-0.418-0.569-1.048-0.854-1.891-0.854c-0.547,0-0.985,0.1-1.317,0.297
		c-0.333,0.199-0.603,0.511-0.806,0.936h-0.023c0-0.081-0.006-0.23-0.018-0.447c-0.01-0.217-0.02-0.377-0.027-0.481
		c-0.01-0.104-0.016-0.166-0.02-0.183h-1.103c0.026,0.229,0.039,0.701,0.039,1.41v8.205h1.14v-2.697c0-0.69-0.008-1.053-0.025-1.086
		h0.031c0.363,0.801,1.071,1.199,2.129,1.199c1.679,0,2.517-1.203,2.517-3.611C226.021,38.366,225.812,37.471,225.395,36.9z
		 M224.437,41.722c-0.261,0.418-0.673,0.628-1.237,0.628c-0.646,0-1.111-0.215-1.4-0.645c-0.285-0.431-0.428-1.098-0.428-2.004
		c0-0.65,0.064-1.18,0.198-1.586s0.326-0.705,0.58-0.896c0.259-0.193,0.61-0.288,1.062-0.288c0.561,0,0.972,0.207,1.228,0.619
		c0.259,0.412,0.388,1.099,0.388,2.061C224.825,40.599,224.696,41.301,224.437,41.722z"/>
	<path fill="#828383" d="M232.489,36.911c-0.492-0.58-1.262-0.871-2.311-0.871c-2.045,0-3.067,1.19-3.067,3.572
		c0,1.162,0.255,2.051,0.765,2.664c0.512,0.615,1.268,0.922,2.267,0.922c1.004,0,1.771-0.295,2.298-0.886
		c0.525-0.591,0.791-1.492,0.791-2.7C233.23,38.392,232.982,37.491,232.489,36.911z M231.595,41.686
		c-0.294,0.441-0.783,0.664-1.466,0.664c-0.629,0-1.09-0.229-1.383-0.686s-0.439-1.142-0.439-2.052c0-0.935,0.148-1.624,0.445-2.063
		c0.297-0.441,0.779-0.66,1.445-0.66c0.662,0,1.135,0.216,1.415,0.648c0.281,0.43,0.421,1.123,0.421,2.075
		C232.034,40.554,231.889,41.245,231.595,41.686z"/>
	<path fill="#828383" d="M234.674,36.167v6.904h1.214l3.204-5.57c-0.014,0.133-0.027,0.354-0.043,0.664
		c-0.014,0.312-0.021,0.543-0.021,0.696v4.21h1.09v-6.904h-1.248l-3.158,5.547l0.062-1.769v-3.778H234.674z"/>
	<path fill="#828383" d="M241.236,37.002h2.179v6.067h1.137v-6.067h2.18v-0.836h-5.494L241.236,37.002L241.236,37.002z"/>
	<path fill="#828383" d="M253.438,39.862v-0.152c0-2.446-1.007-3.67-3.02-3.67c-0.982,0-1.738,0.305-2.269,0.914
		c-0.53,0.607-0.796,1.481-0.796,2.621c0,1.201,0.266,2.104,0.796,2.715c0.529,0.606,1.302,0.91,2.313,0.91
		c1.451,0,2.381-0.543,2.791-1.633l-1.002-0.288c-0.104,0.306-0.308,0.56-0.604,0.761c-0.298,0.198-0.693,0.299-1.186,0.299
		c-0.625,0-1.102-0.215-1.426-0.645c-0.324-0.429-0.486-1.041-0.486-1.831L253.438,39.862L253.438,39.862z M248.565,38.981
		c0.025-0.65,0.2-1.163,0.523-1.535c0.322-0.371,0.76-0.558,1.312-0.558c0.569,0,1.007,0.166,1.312,0.5
		c0.303,0.334,0.485,0.864,0.549,1.592L248.565,38.981L248.565,38.981z"/>
	<path fill="#828383" d="M256.163,37.545c0.268-0.404,0.705-0.606,1.309-0.606c0.441,0,0.783,0.112,1.025,0.339
		c0.238,0.225,0.389,0.529,0.448,0.911l1.171-0.088c-0.117-0.644-0.408-1.146-0.871-1.513c-0.459-0.365-1.041-0.549-1.742-0.549
		c-0.944,0-1.672,0.305-2.176,0.916c-0.509,0.609-0.761,1.496-0.761,2.656c0,1.17,0.251,2.059,0.756,2.67
		c0.503,0.611,1.235,0.916,2.192,0.916c0.725,0,1.324-0.197,1.798-0.594c0.472-0.395,0.752-0.926,0.842-1.588l-1.151-0.076
		c-0.062,0.458-0.23,0.798-0.504,1.02c-0.271,0.223-0.611,0.332-1.015,0.332c-0.58,0-1.012-0.222-1.299-0.662
		c-0.288-0.442-0.431-1.123-0.431-2.043C255.754,38.631,255.89,37.95,256.163,37.545z"/>
	<path fill="#828383" d="M260.717,37.002h2.178v6.067h1.141v-6.067h2.176v-0.836h-5.493L260.717,37.002L260.717,37.002z"/>
	<path fill="#828383" d="M267.331,36.167v6.904h2.816c0.814,0,1.452-0.176,1.915-0.525c0.462-0.353,0.692-0.84,0.692-1.465
		c0-0.455-0.135-0.82-0.408-1.098c-0.271-0.277-0.682-0.451-1.225-0.523v-0.043c0.459-0.09,0.811-0.268,1.051-0.531
		s0.359-0.594,0.359-0.989c0-0.558-0.211-0.983-0.633-1.282c-0.422-0.298-1.055-0.447-1.896-0.447H267.331z M268.472,39.913h1.416
		c0.604,0,1.03,0.088,1.282,0.266c0.252,0.176,0.375,0.479,0.375,0.908c0,0.396-0.116,0.685-0.354,0.867
		c-0.236,0.18-0.645,0.27-1.227,0.27h-1.493V39.913z M269.926,37.04c0.511,0,0.873,0.082,1.089,0.244
		c0.216,0.163,0.323,0.418,0.323,0.766c0,0.383-0.116,0.65-0.346,0.806c-0.229,0.151-0.615,0.229-1.154,0.229h-1.366V37.04H269.926z
		"/>
	<path fill="#828383" d="M279.098,36.911c-0.494-0.58-1.264-0.871-2.311-0.871c-2.047,0-3.07,1.19-3.07,3.572
		c0,1.162,0.256,2.051,0.766,2.664c0.512,0.615,1.268,0.922,2.268,0.922c1.004,0,1.771-0.295,2.297-0.886
		c0.525-0.591,0.791-1.492,0.791-2.7C279.836,38.392,279.59,37.491,279.098,36.911z M278.202,41.686
		c-0.293,0.441-0.781,0.664-1.466,0.664c-0.628,0-1.09-0.229-1.383-0.686s-0.44-1.142-0.44-2.052c0-0.935,0.149-1.624,0.446-2.063
		c0.3-0.441,0.779-0.66,1.447-0.66c0.661,0,1.132,0.216,1.413,0.648c0.281,0.43,0.423,1.123,0.423,2.075
		C278.643,40.554,278.495,41.245,278.202,41.686z"/>
</g>
</svg>
