<?xml version="1.0" encoding="utf-8"?>
<!-- Generator: Adobe Illustrator 16.0.4, SVG Export Plug-In . SVG Version: 6.00 Build 0)  -->
<!DOCTYPE svg PUBLIC "-//W3C//DTD SVG 1.1//EN" "http://www.w3.org/Graphics/SVG/1.1/DTD/svg11.dtd">
<svg version="1.1" id="Layer_1" xmlns="http://www.w3.org/2000/svg" xmlns:xlink="http://www.w3.org/1999/xlink" x="0px" y="0px"
	 width="18px" height="19px" viewBox="0 0 18 19" enable-background="new 0 0 18 19" xml:space="preserve">
<path fill="#fff" d="M17.719,17.306l-4.436-4.703c1.141-1.382,1.766-3.121,1.766-4.932C15.049,3.441,11.673,0,7.523,0
	s-7.525,3.441-7.525,7.671c0,4.229,3.376,7.671,7.525,7.671c1.558,0,3.042-0.479,4.311-1.388l4.47,4.739
	C16.491,18.891,16.742,19,17.012,19c0.255,0,0.497-0.099,0.68-0.279C18.082,18.338,18.094,17.704,17.719,17.306z M7.523,2.001
	c3.067,0,5.562,2.543,5.562,5.67s-2.495,5.67-5.562,5.67s-5.562-2.543-5.562-5.67S4.457,2.001,7.523,2.001z"/>
</svg>
