<?xml version="1.0" encoding="utf-8"?>
<!-- Generator: Adobe Illustrator 16.0.4, SVG Export Plug-In . SVG Version: 6.00 Build 0)  -->
<!DOCTYPE svg PUBLIC "-//W3C//DTD SVG 1.1//EN" "http://www.w3.org/Graphics/SVG/1.1/DTD/svg11.dtd">
<svg version="1.1" id="Layer_1" xmlns="http://www.w3.org/2000/svg" xmlns:xlink="http://www.w3.org/1999/xlink" x="0px" y="0px"
	 width="19px" height="14px" viewBox="0 0 19 14" enable-background="new 0 0 19 14" xml:space="preserve">
<path fill="#46B5E7" d="M16.625,2.333V0H0v12.833C0,13.478,0.532,14,1.188,14h16.031C18.203,14,19,13.216,19,12.25V2.333H16.625z
	 M15.438,12.833H1.188V1.167h14.25V12.833z M2.375,3.5H14.25v1.167H2.375V3.5z M9.5,5.833h4.75V7H9.5V5.833z M9.5,8.167h4.75v1.167
	H9.5V8.167z M9.5,10.5h3.562v1.167H9.5V10.5z M2.375,5.833h5.938v5.833H2.375V5.833z"/>
</svg>
