<?xml version="1.0" encoding="utf-8"?>
<!-- Generator: Adobe Illustrator 16.0.4, SVG Export Plug-In . SVG Version: 6.00 Build 0)  -->
<!DOCTYPE svg PUBLIC "-//W3C//DTD SVG 1.1//EN" "http://www.w3.org/Graphics/SVG/1.1/DTD/svg11.dtd">
<svg version="1.1" id="Layer_1" xmlns="http://www.w3.org/2000/svg" xmlns:xlink="http://www.w3.org/1999/xlink" x="0px" y="0px"
	 width="152px" height="42px" viewBox="0 0 152 42" enable-background="new 0 0 152 42" xml:space="preserve">
<path fill="#9295AF" d="M143.624,7.201c-2.223,0-3.353-1.021-4.351-1.919c-0.903-0.815-1.613-1.455-3.137-1.455
	c-1.521,0-2.233,0.64-3.135,1.455c-0.998,0.898-2.131,1.919-4.351,1.919c-2.222,0-3.354-1.021-4.352-1.919
	c-0.902-0.815-1.613-1.455-3.135-1.455c-1.522,0-2.234,0.64-3.136,1.455c-0.997,0.898-2.129,1.919-4.35,1.919
	c-2.222,0-3.354-1.021-4.352-1.919c-0.901-0.815-1.614-1.455-3.135-1.455s-2.233,0.64-3.135,1.455
	c-0.999,0.898-2.129,1.919-4.353,1.919c-2.221,0-3.352-1.021-4.351-1.919c-0.902-0.815-1.613-1.455-3.134-1.455
	c-0.498,0-0.901-0.396-0.901-0.886c0-0.492,0.403-0.886,0.901-0.886c2.222,0,3.353,1.017,4.352,1.919
	c0.9,0.811,1.613,1.453,3.134,1.453c1.522,0,2.234-0.643,3.136-1.453c0.998-0.902,2.13-1.919,4.351-1.919
	c2.221,0,3.354,1.017,4.351,1.919c0.902,0.811,1.614,1.453,3.136,1.453c1.521,0,2.232-0.643,3.135-1.453
	c0.999-0.902,2.129-1.919,4.352-1.919c2.222,0,3.352,1.017,4.352,1.919c0.902,0.811,1.613,1.453,3.135,1.453
	c1.522,0,2.234-0.643,3.134-1.453c1-0.902,2.131-1.919,4.352-1.919c2.222,0,3.354,1.017,4.352,1.919
	c0.902,0.811,1.613,1.453,3.135,1.453c1.522,0,2.234-0.643,3.136-1.453c0.999-0.902,2.131-1.919,4.353-1.919
	c0.498,0,0.901,0.395,0.901,0.886c0,0.49-0.403,0.886-0.901,0.886c-1.522,0-2.233,0.64-3.136,1.455
	C146.977,6.18,145.846,7.201,143.624,7.201z"/>
<path fill="#9295AF" d="M53.487,7.201c-2.222,0-3.354-1.021-4.353-1.919c-0.9-0.815-1.613-1.455-3.135-1.455
	c-1.521,0-2.232,0.64-3.135,1.455c-0.998,0.898-2.13,1.919-4.351,1.919c-2.222,0-3.353-1.021-4.352-1.919
	c-0.901-0.815-1.614-1.455-3.136-1.455c-1.521,0-2.233,0.64-3.135,1.455c-0.999,0.898-2.13,1.919-4.352,1.919
	c-2.22,0-3.353-1.021-4.35-1.919c-0.902-0.815-1.613-1.455-3.136-1.455c-1.521,0-2.232,0.64-3.134,1.455
	c-0.999,0.898-2.13,1.919-4.352,1.919c-2.221,0-3.353-1.021-4.351-1.919C3.315,4.467,2.604,3.827,1.082,3.827
	c-0.499,0-0.901-0.396-0.901-0.886c0-0.492,0.403-0.886,0.901-0.886c2.221,0,3.353,1.017,4.351,1.919
	c0.901,0.811,1.614,1.453,3.135,1.453c1.522,0,2.233-0.643,3.135-1.453c0.999-0.902,2.13-1.919,4.351-1.919
	c2.222,0,3.354,1.017,4.351,1.919c0.901,0.811,1.613,1.453,3.135,1.453c1.522,0,2.234-0.643,3.135-1.453
	c0.999-0.902,2.13-1.919,4.352-1.919c2.223,0,3.354,1.017,4.353,1.919c0.901,0.811,1.613,1.453,3.134,1.453
	c1.522,0,2.233-0.643,3.135-1.453c0.999-0.902,2.13-1.919,4.351-1.919c2.222,0,3.354,1.017,4.352,1.919
	c0.901,0.811,1.614,1.453,3.135,1.453c1.522,0,2.234-0.643,3.136-1.453c0.999-0.902,2.13-1.919,4.353-1.919
	c0.497,0,0.9,0.395,0.9,0.886c0,0.49-0.403,0.886-0.9,0.886c-1.523,0-2.234,0.64-3.137,1.455C56.841,6.18,55.71,7.201,53.487,7.201z
	"/>
<path fill="#9295AF" d="M6.358,19.596L5.41,28.314H1.834l-1.847-16.359h2.534l1.397,12.9l1.256-12.9h2.51L8.987,24.95l1.35-12.995
	h2.274l-1.847,16.359H7.305L6.358,19.596z"/>
<path fill="#9295AF" d="M22.916,18.848h3.577v2.338h-3.577v4.792h4.5v2.337H20.31V11.955h7.106v2.338h-4.5V18.848z"/>
<path fill="#9295AF" d="M43.216,15.716v0.585c0,1.683-0.521,2.759-1.682,3.295c1.397,0.539,1.942,1.777,1.942,3.506v1.331
	c0,2.524-1.35,3.881-3.956,3.881h-4.098V11.955h3.932C42.055,11.955,43.216,13.193,43.216,15.716z M38.028,14.293v4.323h1.019
	c0.971,0,1.563-0.42,1.563-1.73v-0.911c0-1.168-0.402-1.682-1.326-1.682H38.028z M38.028,20.953v5.025h1.493
	c0.876,0,1.351-0.396,1.351-1.613V22.94c0-1.521-0.498-1.988-1.683-1.988H38.028z"/>
<path fill="#9295AF" d="M54.94,11.768c2.536,0,3.838,1.496,3.838,4.113v0.515h-2.463v-0.679c0-1.167-0.475-1.611-1.303-1.611
	c-0.83,0-1.303,0.443-1.303,1.611c0,3.367,5.093,3.997,5.093,8.672c0,2.617-1.326,4.113-3.885,4.113
	c-2.557,0-3.884-1.497-3.884-4.113v-1.006h2.463v1.169c0,1.168,0.521,1.588,1.35,1.588c0.829,0,1.35-0.42,1.35-1.588
	c0-3.366-5.092-3.998-5.092-8.671C51.104,13.263,52.406,11.768,54.94,11.768z"/>
<path fill="#9295AF" d="M69.177,11.955v12.62c0,1.169,0.522,1.588,1.351,1.588c0.829,0,1.349-0.419,1.349-1.588v-12.62h2.464v12.456
	c0,2.617-1.326,4.114-3.885,4.114c-2.557,0-3.884-1.497-3.884-4.114V11.955H69.177z"/>
<path fill="#9295AF" d="M87.962,28.314c-0.143-0.421-0.238-0.677-0.238-2.009v-2.571c0-1.521-0.521-2.082-1.705-2.082h-0.9v6.662
	h-2.606V11.955h3.932c2.7,0,3.86,1.238,3.86,3.761v1.287c0,1.682-0.544,2.781-1.706,3.32c1.303,0.536,1.729,1.774,1.729,3.48v2.523
	c0,0.796,0.023,1.381,0.284,1.988H87.962z M85.12,14.293v5.025h1.018c0.971,0,1.563-0.422,1.563-1.731v-1.612
	c0-1.168-0.403-1.682-1.327-1.682H85.12z"/>
<path fill="#9295AF" d="M101.036,19.223h3.364v2.338h-3.364v6.753h-2.605V11.955h6.894v2.338h-4.288V19.223z"/>
<path fill="#9295AF" d="M115.581,18.848h3.576v2.338h-3.576v4.792h4.5v2.337h-7.105V11.955h7.105v2.338h-4.5V18.848z"/>
<path fill="#9295AF" d="M133.536,28.314c-0.142-0.421-0.238-0.677-0.238-2.009v-2.571c0-1.521-0.52-2.082-1.705-2.082h-0.899v6.662
	h-2.605V11.955h3.932c2.7,0,3.86,1.238,3.86,3.761v1.287c0,1.682-0.545,2.781-1.706,3.32c1.303,0.536,1.729,1.774,1.729,3.48v2.523
	c0,0.796,0.024,1.381,0.284,1.988H133.536z M130.694,14.293v5.025h1.018c0.971,0,1.563-0.422,1.563-1.731v-1.612
	c0-1.168-0.402-1.682-1.327-1.682H130.694z"/>
<path fill="#9295AF" d="M147.511,11.768c2.535,0,3.838,1.496,3.838,4.113v0.515h-2.464v-0.679c0-1.167-0.474-1.611-1.302-1.611
	c-0.83,0-1.303,0.443-1.303,1.611c0,3.367,5.093,3.997,5.093,8.672c0,2.617-1.327,4.113-3.885,4.113
	c-2.559,0-3.885-1.497-3.885-4.113v-1.006h2.464v1.169c0,1.168,0.52,1.588,1.349,1.588s1.351-0.42,1.351-1.588
	c0-3.366-5.093-3.998-5.093-8.671C143.674,13.263,144.977,11.768,147.511,11.768z"/>
<path fill="#9295AF" d="M151.373,30.132H-0.013v-1.817h151.386V30.132z"/>
<path fill="#9295AF" d="M74.327,0.009c1.256,0,2.217,0.22,2.885,0.661c0.667,0.441,1.002,1.126,1.002,2.054
	c0,0.58-0.135,1.051-0.405,1.412c-0.27,0.362-0.658,0.646-1.165,0.852c0.168,0.207,0.346,0.443,0.531,0.709
	c0.185,0.267,0.369,0.544,0.549,0.834c0.181,0.29,0.356,0.592,0.525,0.905c0.169,0.314,0.326,0.621,0.471,0.923h-2.105
	c-0.153-0.271-0.309-0.544-0.466-0.823c-0.157-0.277-0.319-0.547-0.485-0.81c-0.165-0.262-0.329-0.51-0.49-0.744
	c-0.162-0.235-0.324-0.447-0.485-0.637h-0.93v3.013h-1.883V0.223c0.411-0.079,0.835-0.135,1.273-0.167
	C73.588,0.024,73.981,0.009,74.327,0.009z M74.436,1.592c-0.137,0-0.26,0.004-0.369,0.012c-0.108,0.008-0.211,0.016-0.308,0.023
	v2.239h0.531c0.708,0,1.215-0.087,1.521-0.262c0.306-0.174,0.458-0.472,0.458-0.893c0-0.405-0.155-0.693-0.464-0.864
	C75.496,1.678,75.039,1.592,74.436,1.592z"/>
<path fill="#9295AF" d="M84.31,8.524c-0.588,0-1.095-0.082-1.521-0.244s-0.779-0.389-1.056-0.679
	c-0.278-0.29-0.483-0.635-0.616-1.036c-0.132-0.4-0.199-0.844-0.199-1.328V0.104h1.883v4.979c0,0.333,0.038,0.617,0.115,0.851
	c0.076,0.235,0.181,0.425,0.313,0.572c0.133,0.147,0.294,0.252,0.483,0.315c0.188,0.063,0.396,0.096,0.621,0.096
	c0.459,0,0.832-0.139,1.117-0.417c0.286-0.277,0.429-0.75,0.429-1.416V0.104h1.883v5.133c0,0.483-0.068,0.929-0.205,1.334
	c-0.137,0.404-0.346,0.752-0.627,1.042c-0.282,0.288-0.64,0.513-1.074,0.673C85.42,8.445,84.905,8.524,84.31,8.524z"/>
<path fill="#9295AF" d="M67.663,3.196c0,0.358-0.114,0.629-0.344,0.816c-0.229,0.187-0.489,0.279-0.779,0.279
	c-0.29,0-0.549-0.093-0.778-0.279c-0.229-0.187-0.344-0.458-0.344-0.816c0-0.357,0.115-0.628,0.344-0.815
	c0.229-0.187,0.488-0.279,0.778-0.279c0.29,0,0.55,0.093,0.779,0.279C67.549,2.567,67.663,2.839,67.663,3.196z"/>
<path fill="#9295AF" d="M6.061,36.642c0,0.71-0.234,1.274-0.705,1.692c-0.469,0.417-1.107,0.627-1.912,0.627H1.211v2.922H0.181v-7.5
	h3.199c0.852,0,1.512,0.197,1.98,0.591C5.828,35.369,6.061,35.926,6.061,36.642z M5.025,36.651c0-0.968-0.59-1.452-1.769-1.452
	H1.211v2.96h2.087C4.449,38.159,5.025,37.655,5.025,36.651z"/>
<path fill="#9295AF" d="M14.962,41.884l-0.869-2.192H10.63l-0.874,2.192H8.688l3.103-7.5h1.17l3.054,7.5H14.962z M12.361,35.151
	L12.313,35.3c-0.089,0.294-0.223,0.674-0.399,1.133l-0.972,2.465h2.844l-0.977-2.476c-0.101-0.244-0.201-0.521-0.302-0.83
	L12.361,35.151z"/>
<path fill="#9295AF" d="M22.024,41.992c-0.734,0-1.339-0.143-1.813-0.428c-0.475-0.286-0.867-0.762-1.176-1.425l0.89-0.41
	c0.428,0.965,1.115,1.448,2.061,1.448c0.55,0,0.984-0.126,1.3-0.377c0.317-0.253,0.476-0.605,0.476-1.061
	c0-0.472-0.173-0.812-0.518-1.022c-0.346-0.209-0.881-0.312-1.608-0.312h-0.383v-0.788h0.383c0.651,0,1.132-0.106,1.443-0.318
	c0.311-0.211,0.467-0.534,0.467-0.972c0-0.379-0.13-0.678-0.391-0.895c-0.261-0.219-0.634-0.329-1.12-0.329
	c-0.453,0-0.834,0.104-1.144,0.311c-0.309,0.208-0.556,0.542-0.739,1.004l-0.96-0.325c0.252-0.614,0.615-1.069,1.09-1.367
	s1.072-0.447,1.792-0.447c0.762,0,1.37,0.177,1.823,0.53c0.454,0.352,0.68,0.829,0.68,1.429c0,0.449-0.129,0.823-0.388,1.119
	c-0.258,0.293-0.633,0.498-1.122,0.611c0.546,0.083,0.973,0.278,1.278,0.588c0.307,0.309,0.459,0.701,0.459,1.168
	c0,0.694-0.249,1.245-0.747,1.652C23.557,41.786,22.88,41.992,22.024,41.992z"/>
<path fill="#9295AF" d="M34.896,36.642c0,0.71-0.234,1.274-0.704,1.692c-0.469,0.417-1.107,0.627-1.912,0.627h-2.234v2.922h-1.03
	v-7.5h3.2c0.852,0,1.512,0.197,1.979,0.591C34.662,35.369,34.896,35.926,34.896,36.642z M33.86,36.651
	c0-0.968-0.59-1.452-1.77-1.452h-2.044v2.96h2.088C33.285,38.159,33.86,37.655,33.86,36.651z"/>
<path fill="#9295AF" d="M43.797,41.884l-0.869-2.192h-3.462l-0.875,2.192h-1.069l3.103-7.5h1.171l3.053,7.5H43.797z M41.196,35.151
	L41.148,35.3c-0.09,0.294-0.223,0.674-0.399,1.133l-0.971,2.465h2.844l-0.977-2.476c-0.102-0.244-0.202-0.521-0.302-0.83
	L41.196,35.151z"/>
<path fill="#9295AF" d="M54.311,39.687c0,0.664-0.231,1.195-0.696,1.598c-0.463,0.4-1.104,0.6-1.92,0.6h-3.156v-7.5h4.996v0.832
	h-3.965v2.34h2.061c0.849,0,1.507,0.187,1.977,0.561C54.077,38.489,54.311,39.012,54.311,39.687z M53.275,39.697
	c0-0.43-0.147-0.759-0.442-0.986c-0.295-0.23-0.737-0.344-1.328-0.344h-1.936v2.714h1.979c0.59,0,1.025-0.121,1.306-0.362
	C53.136,40.476,53.275,40.136,53.275,39.697z"/>
<path fill="#9295AF" d="M65.586,38.1c0,0.785-0.151,1.472-0.457,2.061c-0.303,0.588-0.739,1.042-1.307,1.357
	c-0.568,0.316-1.24,0.474-2.013,0.474c-0.78,0-1.454-0.157-2.02-0.469c-0.566-0.312-0.999-0.765-1.298-1.354
	c-0.298-0.591-0.447-1.28-0.447-2.069c0-1.201,0.333-2.137,0.998-2.812c0.665-0.675,1.592-1.014,2.779-1.014
	c0.773,0,1.444,0.151,2.012,0.456c0.568,0.303,1.002,0.743,1.303,1.323C65.437,36.629,65.586,37.312,65.586,38.1z M64.534,38.1
	c0-0.934-0.237-1.667-0.709-2.198c-0.473-0.532-1.141-0.798-2.004-0.798c-0.87,0-1.542,0.263-2.018,0.788
	c-0.474,0.525-0.711,1.262-0.711,2.209c0,0.941,0.239,1.687,0.72,2.239c0.48,0.552,1.146,0.826,1.999,0.826
	c0.878,0,1.552-0.266,2.021-0.801C64.299,39.832,64.534,39.076,64.534,38.1z"/>
<path fill="#9295AF" d="M72.761,35.216v6.668h-1.025v-6.668h-2.611v-0.832h6.247v0.832H72.761z"/>
<path fill="#9295AF" d="M79.294,34.384h1.03v3.296c0.27,0,0.485-0.037,0.647-0.11c0.162-0.072,0.33-0.208,0.507-0.405
	c0.178-0.198,0.458-0.582,0.842-1.158l1.105-1.624h1.079l-1.527,2.183c-0.471,0.671-0.793,1.068-0.965,1.192l2.746,4.125h-1.197
	l-2.304-3.635c-0.091,0.042-0.234,0.087-0.429,0.133c-0.196,0.045-0.364,0.07-0.505,0.07v3.432h-1.03V34.384z"/>
<path fill="#9295AF" d="M93.882,41.884l-0.869-2.192h-3.464l-0.875,2.192h-1.067l3.102-7.5h1.17l3.055,7.5H93.882z M91.282,35.151
	L91.233,35.3c-0.09,0.294-0.223,0.674-0.399,1.133l-0.972,2.465h2.843l-0.977-2.476c-0.101-0.244-0.202-0.521-0.302-0.83
	L91.282,35.151z"/>
<path fill="#9295AF" d="M107.821,35.103c-0.841,0-1.496,0.266-1.963,0.802c-0.468,0.534-0.701,1.266-0.701,2.195
	c0,0.919,0.244,1.659,0.73,2.218c0.488,0.559,1.147,0.838,1.978,0.838c1.064,0,1.865-0.519,2.4-1.56l0.842,0.416
	c-0.313,0.647-0.753,1.136-1.319,1.473c-0.566,0.339-1.223,0.507-1.971,0.507c-0.767,0-1.429-0.158-1.988-0.471
	c-0.56-0.315-0.985-0.763-1.279-1.35c-0.293-0.582-0.439-1.273-0.439-2.072c0-1.196,0.327-2.131,0.981-2.81
	c0.655-0.678,1.561-1.017,2.72-1.017c0.809,0,1.484,0.155,2.028,0.469c0.543,0.311,0.942,0.774,1.197,1.388l-0.976,0.32
	c-0.177-0.437-0.46-0.77-0.85-1.001C108.82,35.219,108.356,35.103,107.821,35.103z"/>
<path fill="#9295AF" d="M120.342,41.884l-0.868-2.192h-3.464l-0.875,2.192h-1.067l3.102-7.5h1.17l3.054,7.5H120.342z
	 M117.743,35.151l-0.048,0.149c-0.091,0.294-0.223,0.674-0.399,1.133l-0.971,2.465h2.842l-0.976-2.476
	c-0.1-0.244-0.201-0.521-0.302-0.83L117.743,35.151z"/>
<path fill="#9295AF" d="M125.084,41.884v-7.5h0.928v4.918c0,0.405-0.015,0.892-0.043,1.459l4.046-6.377h1.197v7.5h-0.917v-4.982
	c0-0.433,0.011-0.884,0.033-1.352l-4.003,6.333H125.084z M128.181,33.742c-1.28,0-1.94-0.569-1.98-1.704h0.885
	c0.043,0.706,0.409,1.059,1.095,1.059c0.687,0,1.052-0.354,1.096-1.059h0.885C130.122,33.173,129.461,33.742,128.181,33.742z"/>
<path fill="#9295AF" d="M138.765,35.216v6.668h-1.024v-6.668h-2.611v-0.832h6.246v0.832H138.765z"/>
<path fill="#9295AF" d="M150.321,41.884l-0.869-2.192h-3.464l-0.874,2.192h-1.068l3.102-7.5h1.171l3.053,7.5H150.321z
	 M147.721,35.151l-0.049,0.149c-0.089,0.294-0.223,0.674-0.398,1.133l-0.972,2.465h2.844l-0.977-2.476
	c-0.101-0.244-0.202-0.521-0.302-0.83L147.721,35.151z"/>
</svg>
